<svg width="21" height="95" viewBox="0 0 21 95" fill="none" xmlns="http://www.w3.org/2000/svg">
<g opacity="0.64">
<path d="M11.5914 82.0781C11.0991 71.3856 10.6068 60.6655 10.9897 49.9453C11.5914 33.5612 14.2715 17.0389 11.564 0.875786" fill="#ED94AB"/>
<path d="M11.5914 82.0781C11.0991 71.3856 10.6068 60.6655 10.9897 49.9453C11.5914 33.5612 14.2715 17.0389 11.564 0.875785" stroke="#F974AB" stroke-width="1.06593" stroke-miterlimit="10"/>
<path d="M11.4275 80.9458L13.6427 88.2675C14.1076 89.7871 14.5726 91.4173 13.9983 92.9092C13.7248 93.6276 13.0957 94.2907 12.3573 94.2078C11.6463 94.1526 11.1814 93.4618 10.8806 92.8264C9.07558 89.1517 9.34907 84.5376 11.4002 80.9458H11.4275Z" fill="#ED94AB" stroke="#F974AB" stroke-width="1.06593" stroke-miterlimit="10"/>
<mask id="path-4-inside-1_576_934" fill="white">
<path d="M11.3178 74.1212C11.9468 75.779 12.7946 77.2986 13.8612 78.5695C14.4082 79.205 14.9825 79.8128 15.6389 80.3101C16.2952 80.8904 16.8695 81.0561 16.9516 80.7798C17.225 80.5035 17.0609 79.7852 16.6781 79.0116C16.3499 78.2656 15.885 77.5749 15.3927 76.8841C14.3808 75.5855 13.0134 74.508 11.2905 74.0936L11.3178 74.1212ZM11.3178 74.1212C13.1228 73.9278 14.9278 74.8948 16.1858 76.1934C16.8695 76.8289 17.3891 77.6025 17.8267 78.4314C18.0455 78.8458 18.2643 79.2602 18.3737 79.8128C18.5104 80.3654 18.4557 81.0838 18.0181 81.6364C17.6079 82.2442 16.6234 82.41 16.1038 82.1613C15.5295 81.9679 15.1192 81.6087 14.791 81.3048C14.1073 80.6693 13.5057 79.9786 13.0134 79.205C12.0015 77.6854 11.3725 75.9171 11.2905 74.1212H11.3178Z"/>
</mask>
<path d="M11.3178 74.1212C11.9468 75.779 12.7946 77.2986 13.8612 78.5695C14.4082 79.205 14.9825 79.8128 15.6389 80.3101C16.2952 80.8904 16.8695 81.0561 16.9516 80.7798C17.225 80.5035 17.0609 79.7852 16.6781 79.0116C16.3499 78.2656 15.885 77.5749 15.3927 76.8841C14.3808 75.5855 13.0134 74.508 11.2905 74.0936L11.3178 74.1212ZM11.3178 74.1212C13.1228 73.9278 14.9278 74.8948 16.1858 76.1934C16.8695 76.8289 17.3891 77.6025 17.8267 78.4314C18.0455 78.8458 18.2643 79.2602 18.3737 79.8128C18.5104 80.3654 18.4557 81.0838 18.0181 81.6364C17.6079 82.2442 16.6234 82.41 16.1038 82.1613C15.5295 81.9679 15.1192 81.6087 14.791 81.3048C14.1073 80.6693 13.5057 79.9786 13.0134 79.205C12.0015 77.6854 11.3725 75.9171 11.2905 74.1212H11.3178Z" fill="#ED94AB"/>
<path d="M13.8612 78.5695L12.2282 79.9399L12.2367 79.9501L12.2454 79.9602L13.8612 78.5695ZM15.6389 80.3101L17.0508 78.7129L16.9905 78.6596L16.9263 78.611L15.6389 80.3101ZM16.9516 80.7798L15.4364 79.2801L15.0601 79.6602L14.9079 80.173L16.9516 80.7798ZM16.6781 79.0116L14.7267 79.87L14.746 79.9141L14.7674 79.9572L16.6781 79.0116ZM15.3927 76.8841L17.1288 75.6468L17.1023 75.6097L17.0743 75.5738L15.3927 76.8841ZM11.2905 74.0936L11.789 72.0208L4.49957 70.2674L9.77589 75.5939L11.2905 74.0936ZM16.1858 76.1934L14.6546 77.6767L14.6935 77.7169L14.7344 77.7549L16.1858 76.1934ZM18.3737 79.8128L16.2824 80.2268L16.2921 80.2761L16.3042 80.3249L18.3737 79.8128ZM18.0181 81.6364L16.3468 80.3129L16.2964 80.3765L16.251 80.4438L18.0181 81.6364ZM16.1038 82.1613L17.024 80.2383L16.907 80.1823L16.7841 80.1409L16.1038 82.1613ZM14.791 81.3048L13.3396 82.8663L13.3425 82.8689L14.791 81.3048ZM13.0134 79.205L14.812 78.0605L14.8001 78.0418L14.7879 78.0234L13.0134 79.205ZM11.2905 74.1212V71.9893H9.05897L9.16081 74.2185L11.2905 74.1212ZM11.3178 74.1212L9.32462 74.8775C10.0239 76.7203 10.9836 78.4569 12.2282 79.9399L13.8612 78.5695L15.4942 77.1991C14.6056 76.1402 13.8698 74.8376 13.311 73.3649L11.3178 74.1212ZM13.8612 78.5695L12.2454 79.9602C12.8259 80.6346 13.5157 81.3761 14.3514 82.0093L15.6389 80.3101L16.9263 78.611C16.4493 78.2495 15.9905 77.7754 15.477 77.1788L13.8612 78.5695ZM15.6389 80.3101L14.2269 81.9074C14.6792 82.3072 15.2311 82.6848 15.8302 82.8866C16.1064 82.9796 16.61 83.1105 17.1988 82.9996C17.9328 82.8614 18.7128 82.3378 18.9952 81.3867L16.9516 80.7798L14.9079 80.173C15.0077 79.8367 15.2101 79.4957 15.5307 79.2276C15.8396 78.9692 16.1651 78.8556 16.4095 78.8096C16.847 78.7272 17.1506 78.8322 17.1909 78.8458C17.3183 78.8887 17.2549 78.8933 17.0508 78.7129L15.6389 80.3101ZM16.9516 80.7798L18.4667 82.2796C19.3922 81.3445 19.2333 80.1264 19.1605 79.7127C19.0578 79.1289 18.8302 78.5538 18.5887 78.0659L16.6781 79.0116L14.7674 79.9572C14.9088 80.2429 14.9547 80.4138 14.9613 80.4517C14.9646 80.4702 14.9423 80.369 14.9681 80.1909C14.9945 80.0081 15.091 79.629 15.4364 79.2801L16.9516 80.7798ZM16.6781 79.0116L18.6294 78.1531C18.2063 77.1913 17.6287 76.3483 17.1288 75.6468L15.3927 76.8841L13.6566 78.1214C14.1412 78.8014 14.4934 79.3399 14.7267 79.87L16.6781 79.0116ZM15.3927 76.8841L17.0743 75.5738C15.8504 74.0031 14.0996 72.5766 11.789 72.0208L11.2905 74.0936L10.7919 76.1663C11.9272 76.4394 12.9112 77.168 13.7111 78.1945L15.3927 76.8841ZM11.2905 74.0936L9.77589 75.5939L9.80326 75.6215L11.3178 74.1212L12.8324 72.6209L12.805 72.5933L11.2905 74.0936ZM11.3178 74.1212L11.545 76.2409C12.4661 76.1422 13.6628 76.653 14.6546 77.6767L16.1858 76.1934L17.717 74.71C16.1927 73.1366 13.7795 71.7134 11.0907 72.0015L11.3178 74.1212ZM16.1858 76.1934L14.7344 77.7549C15.1823 78.1712 15.5692 78.7217 15.9414 79.4266L17.8267 78.4314L19.712 77.4361C19.209 76.4833 18.5567 75.4865 17.6372 74.6319L16.1858 76.1934ZM17.8267 78.4314L15.9414 79.4266C16.1654 79.8509 16.2405 80.0153 16.2824 80.2268L18.3737 79.8128L20.465 79.3988C20.288 78.5052 19.9256 77.8407 19.712 77.4361L17.8267 78.4314ZM18.3737 79.8128L16.3042 80.3249C16.305 80.328 16.3071 80.3387 16.3078 80.3538C16.3085 80.3686 16.3075 80.3796 16.3066 80.3849C16.3058 80.3899 16.3061 80.3844 16.3119 80.3707C16.318 80.3561 16.3292 80.3352 16.3468 80.3129L18.0181 81.6364L19.6895 82.9598C20.6361 81.7643 20.6954 80.3202 20.4431 79.3007L18.3737 79.8128ZM18.0181 81.6364L16.251 80.4438C16.3452 80.3042 16.446 80.2284 16.5031 80.1933C16.559 80.1589 16.5957 80.1491 16.6079 80.1462C16.6198 80.1433 16.6431 80.1388 16.6874 80.1413C16.7227 80.1434 16.8481 80.1541 17.024 80.2383L16.1038 82.1613L15.1835 84.0843C16.0064 84.4781 16.9108 84.4571 17.5961 84.2938C18.3049 84.1249 19.1946 83.7041 19.7852 82.8289L18.0181 81.6364ZM16.1038 82.1613L16.7841 80.1409C16.6717 80.103 16.5447 80.0232 16.2396 79.7406L14.791 81.3048L13.3425 82.8689C13.6937 83.1942 14.3872 83.8327 15.4234 84.1817L16.1038 82.1613ZM14.791 81.3048L16.2424 79.7433C15.6661 79.2076 15.1896 78.6539 14.812 78.0605L13.0134 79.205L11.2148 80.3495C11.8217 81.3033 12.5486 82.131 13.3397 82.8663L14.791 81.3048ZM13.0134 79.205L14.7879 78.0234C13.9671 76.7907 13.4826 75.3923 13.4201 74.0239L11.2905 74.1212L9.16081 74.2185C9.26239 76.4419 10.036 78.58 11.2389 80.3866L13.0134 79.205ZM11.2905 74.1212V76.2531H11.3178V74.1212V71.9893H11.2905V74.1212Z" fill="#F974AB" mask="url(#path-4-inside-1_576_934)"/>
<mask id="path-6-inside-2_576_934" fill="white">
<path d="M11.0713 65.9152L7.59807 71.6897C6.94171 72.7396 6.36737 73.7067 5.51958 74.6461C5.08201 75.1157 4.53504 75.5302 3.85134 75.7512C3.22233 76.0275 1.99166 75.8618 1.58144 74.9224C1.22591 74.0659 1.44471 73.3475 1.63614 72.7396C1.85493 72.1594 2.10106 71.6069 2.40189 71.0819C3.00355 70.032 3.74196 69.065 4.67179 68.319C6.47677 66.7441 8.80139 65.86 11.0986 65.9152H11.0713ZM11.0713 65.9152C8.85606 66.4402 6.85967 67.5177 5.38287 69.0926C4.67182 69.8938 4.01544 70.7503 3.52318 71.7174C3.05826 72.6291 2.566 73.8448 2.81214 74.3421C2.81214 74.7289 3.9334 74.5079 4.58975 73.7343C5.32815 73.0159 5.92983 72.0213 6.61353 71.2477C7.95359 69.5899 9.48508 67.9045 11.0439 65.9152H11.0713Z"/>
</mask>
<path d="M11.0713 65.9152L7.59807 71.6897C6.94171 72.7396 6.36737 73.7067 5.51958 74.6461C5.08201 75.1157 4.53504 75.5302 3.85134 75.7512C3.22233 76.0275 1.99166 75.8618 1.58144 74.9224C1.22591 74.0659 1.44471 73.3475 1.63614 72.7396C1.85493 72.1594 2.10106 71.6069 2.40189 71.0819C3.00355 70.032 3.74196 69.065 4.67179 68.319C6.47677 66.7441 8.80139 65.86 11.0986 65.9152H11.0713ZM11.0713 65.9152C8.85606 66.4402 6.85967 67.5177 5.38287 69.0926C4.67182 69.8938 4.01544 70.7503 3.52318 71.7174C3.05826 72.6291 2.566 73.8448 2.81214 74.3421C2.81214 74.7289 3.9334 74.5079 4.58975 73.7343C5.32815 73.0159 5.92983 72.0213 6.61353 71.2477C7.95359 69.5899 9.48508 67.9045 11.0439 65.9152H11.0713Z" fill="#ED94AB"/>
<path d="M7.59807 71.6897L9.40576 72.8198L9.41549 72.8043L9.42495 72.7885L7.59807 71.6897ZM5.51958 74.6461L7.07944 76.0992L7.09093 76.0869L7.10223 76.0744L5.51958 74.6461ZM3.85134 75.7512L3.19555 73.7227L3.09282 73.7559L2.99398 73.7994L3.85134 75.7512ZM1.58144 74.9224L-0.387544 75.7397L-0.380072 75.7577L-0.372272 75.7755L1.58144 74.9224ZM1.63614 72.7396L-0.358621 71.9875L-0.379491 72.0428L-0.397261 72.0992L1.63614 72.7396ZM4.67179 68.319L6.00587 69.9818L6.04021 69.9543L6.07337 69.9253L4.67179 68.319ZM11.0986 65.9152V68.0471L11.1499 63.784L11.0986 65.9152ZM5.38287 69.0926L3.82778 67.6343L3.80776 67.6557L3.78834 67.6776L5.38287 69.0926ZM3.52318 71.7174L5.42239 72.6858L5.42305 72.6845L3.52318 71.7174ZM2.81214 74.3421H4.94401V73.8434L4.72281 73.3965L2.81214 74.3421ZM4.58975 73.7343L3.10317 72.2062L3.0301 72.2773L2.96413 72.3551L4.58975 73.7343ZM6.61353 71.2477L8.21096 72.6594L8.242 72.6243L8.27146 72.5879L6.61353 71.2477ZM11.0439 65.9152V63.7834H10.006L9.36589 64.6003L11.0439 65.9152ZM11.0713 65.9152L9.24438 64.8164L5.77119 70.5909L7.59807 71.6897L9.42495 72.7885L12.8981 67.014L11.0713 65.9152ZM7.59807 71.6897L5.79037 70.5596C5.09854 71.6663 4.63122 72.4484 3.93694 73.2177L5.51958 74.6461L7.10223 76.0744C8.10353 74.9649 8.78489 73.813 9.40576 72.8198L7.59807 71.6897ZM5.51958 74.6461L3.95972 73.1929C3.69591 73.4761 3.44378 73.6425 3.19555 73.7227L3.85134 75.7512L4.50713 77.7797C5.62631 77.4179 6.46811 76.7554 7.07944 76.0992L5.51958 74.6461ZM3.85134 75.7512L2.99398 73.7994C3.06577 73.7678 3.11921 73.754 3.14772 73.748C3.17748 73.7417 3.19532 73.7406 3.2015 73.7403C3.2097 73.74 3.21071 73.7402 3.21701 73.742C3.22404 73.744 3.27036 73.7578 3.3357 73.809C3.40853 73.8661 3.48551 73.9555 3.53514 74.0692L1.58144 74.9224L-0.372272 75.7755C0.151064 76.9739 1.17108 77.5932 2.05167 77.8434C2.88328 78.0797 3.86721 78.0727 4.7087 77.7031L3.85134 75.7512ZM1.58144 74.9224L3.55042 74.1051C3.52375 74.0408 3.52001 74.0028 3.52614 73.9379C3.53638 73.8292 3.56931 73.6983 3.66955 73.3801L1.63614 72.7396L-0.397261 72.0992C-0.590415 72.7125 -1.06472 74.1082 -0.387544 75.7397L1.58144 74.9224ZM1.63614 72.7396L3.63091 73.4918C3.82163 72.986 4.02195 72.5426 4.25157 72.1419L2.40189 71.0819L0.55221 70.0219C0.180168 70.6711 -0.111769 71.3328 -0.358621 71.9875L1.63614 72.7396ZM2.40189 71.0819L4.25157 72.1419C4.76518 71.2456 5.34417 70.5127 6.00587 69.9818L4.67179 68.319L3.33772 66.6561C2.13975 67.6172 1.24191 68.8184 0.55221 70.0219L2.40189 71.0819ZM4.67179 68.319L6.07337 69.9253C7.50637 68.675 9.32107 68.0049 11.0474 68.0465L11.0986 65.9152L11.1499 63.784C8.2817 63.715 5.44718 64.8132 3.27021 66.7126L4.67179 68.319ZM11.0986 65.9152V63.7834H11.0713V65.9152V68.0471H11.0986V65.9152ZM11.0713 65.9152L10.5797 63.8408C8.01512 64.4485 5.6291 65.7134 3.82778 67.6343L5.38287 69.0926L6.93797 70.5509C8.09025 69.3221 9.69699 68.4318 11.5628 67.9896L11.0713 65.9152ZM5.38287 69.0926L3.78834 67.6776C3.01474 68.5493 2.22977 69.5589 1.6233 70.7502L3.52318 71.7174L5.42305 72.6845C5.80111 71.9418 6.3289 71.2384 6.9774 70.5076L5.38287 69.0926ZM3.52318 71.7174L1.62396 70.7489C1.36496 71.2569 1.06727 71.9075 0.866662 72.5478C0.7671 72.8655 0.669704 73.2483 0.631683 73.649C0.597978 74.0043 0.582032 74.6423 0.901465 75.2877L2.81214 74.3421L4.72281 73.3965C4.82917 73.6114 4.86109 73.7924 4.87176 73.8883C4.88265 73.9863 4.87692 74.0458 4.87636 74.0518C4.87594 74.0562 4.88451 73.9849 4.93536 73.8226C5.03558 73.5027 5.21647 73.0896 5.42239 72.6858L3.52318 71.7174ZM2.81214 74.3421H0.680269C0.680269 74.9664 0.932644 75.5798 1.41612 76.0258C1.84128 76.418 2.31101 76.5595 2.60551 76.6146C3.17909 76.722 3.70404 76.6194 4.04087 76.5231C4.76761 76.3153 5.58835 75.8526 6.21537 75.1135L4.58975 73.7343L2.96413 72.3551C2.9348 72.3897 2.86673 72.4242 2.86876 72.4236C2.88028 72.4203 2.92146 72.4092 2.99108 72.4023C3.05214 72.3963 3.19506 72.3872 3.38967 72.4236C3.5688 72.4571 3.9458 72.5586 4.30708 72.8918C4.72667 73.2789 4.94401 73.8146 4.94401 74.3421H2.81214ZM4.58975 73.7343L6.07633 75.2624C6.57389 74.7783 6.99426 74.2329 7.32424 73.7954C7.68787 73.3132 7.93993 72.9661 8.21096 72.6594L6.61353 71.2477L5.0161 69.8359C4.60343 70.3028 4.2128 70.8399 3.92006 71.2281C3.59368 71.6608 3.34402 71.9719 3.10317 72.2062L4.58975 73.7343ZM6.61353 71.2477L8.27146 72.5879C8.92042 71.7851 9.61464 70.9768 10.3714 70.086C11.1199 69.205 11.9152 68.2597 12.722 67.2302L11.0439 65.9152L9.36589 64.6003C8.6138 65.5601 7.86393 66.4521 7.12196 67.3255C6.38826 68.1892 5.6467 69.0525 4.95561 69.9075L6.61353 71.2477ZM11.0439 65.9152V68.0471H11.0713V65.9152V63.7834H11.0439V65.9152Z" fill="#F974AB" mask="url(#path-6-inside-2_576_934)"/>
<mask id="path-8-inside-3_576_934" fill="white">
<path d="M10.8256 53.4543C11.3453 55.7199 11.7008 58.0131 12.4939 60.113C12.9041 61.1629 13.369 62.1575 13.998 63.0417C14.5724 63.9258 15.4201 64.4508 15.9124 64.0363C16.5414 63.6495 16.6781 62.6548 16.3773 61.6326C16.1038 60.5827 15.6663 59.5604 15.174 58.5657C14.1348 56.604 12.6033 54.891 10.7983 53.4543H10.8256ZM10.8256 53.4543C12.9315 54.3937 14.7911 55.9962 16.1039 58.0131C16.7876 59.0078 17.2525 60.113 17.6354 61.2734C18.0182 62.3786 18.0729 64.2021 16.6508 65.1691C15.9671 65.6664 14.9552 65.5835 14.3262 65.1691C13.6972 64.7823 13.2596 64.2573 12.9315 63.7324C12.3025 62.6825 11.7828 61.5773 11.5093 60.4169C10.8803 58.096 10.7709 55.7475 10.8256 53.4267V53.4543Z"/>
</mask>
<path d="M10.8256 53.4543C11.3453 55.7199 11.7008 58.0131 12.4939 60.113C12.9041 61.1629 13.369 62.1575 13.998 63.0417C14.5724 63.9258 15.4201 64.4508 15.9124 64.0363C16.5414 63.6495 16.6781 62.6548 16.3773 61.6326C16.1038 60.5827 15.6663 59.5604 15.174 58.5657C14.1348 56.604 12.6033 54.891 10.7983 53.4543H10.8256ZM10.8256 53.4543C12.9315 54.3937 14.7911 55.9962 16.1039 58.0131C16.7876 59.0078 17.2525 60.113 17.6354 61.2734C18.0182 62.3786 18.0729 64.2021 16.6508 65.1691C15.9671 65.6664 14.9552 65.5835 14.3262 65.1691C13.6972 64.7823 13.2596 64.2573 12.9315 63.7324C12.3025 62.6825 11.7828 61.5773 11.5093 60.4169C10.8803 58.096 10.7709 55.7475 10.8256 53.4267V53.4543Z" fill="#ED94AB"/>
<path d="M12.4939 60.113L10.4995 60.8662L10.5038 60.8775L10.5082 60.8888L12.4939 60.113ZM13.998 63.0417L15.7858 61.8804L15.7613 61.8425L15.7351 61.8058L13.998 63.0417ZM15.9124 64.0363L14.7957 62.2203L14.6606 62.3034L14.5394 62.4055L15.9124 64.0363ZM16.3773 61.6326L14.3143 62.1699L14.3227 62.2023L14.3322 62.2344L16.3773 61.6326ZM15.174 58.5657L17.0847 57.6201L17.0716 57.5937L17.0578 57.5677L15.174 58.5657ZM10.7983 53.4543V51.3224H4.69682L9.47064 55.1223L10.7983 53.4543ZM16.1039 58.0131L14.3171 59.176L14.3318 59.1986L14.347 59.2208L16.1039 58.0131ZM17.6354 61.2734L15.6108 61.9414L15.6158 61.9564L15.6209 61.9713L17.6354 61.2734ZM16.6508 65.1691L15.4521 63.4062L15.4241 63.4252L15.3968 63.4451L16.6508 65.1691ZM14.3262 65.1691L15.4991 63.3889L15.4713 63.3706L15.4429 63.3531L14.3262 65.1691ZM12.9315 63.7324L11.1027 64.828L11.1131 64.8454L11.1238 64.8625L12.9315 63.7324ZM11.5093 60.4169L13.5844 59.9279L13.5762 59.8934L13.567 59.8592L11.5093 60.4169ZM10.8256 53.4267H12.9575L8.69436 53.3764L10.8256 53.4267ZM10.8256 53.4543L8.74772 53.9309C9.22016 55.9908 9.63826 58.5859 10.4995 60.8662L12.4939 60.113L14.4882 59.3597C13.7633 57.4404 13.4704 55.4491 12.9036 52.9777L10.8256 53.4543ZM12.4939 60.113L10.5082 60.8888C10.9467 62.0111 11.4864 63.1889 12.2609 64.2775L13.998 63.0417L15.7351 61.8058C15.2516 61.1262 14.8615 60.3147 14.4796 59.3371L12.4939 60.113ZM13.998 63.0417L12.2102 64.203C12.6308 64.8504 13.2241 65.4898 13.9584 65.8938C14.6525 66.2757 16.0587 66.6999 17.2854 65.6672L15.9124 64.0363L14.5394 62.4055C14.8538 62.1408 15.2333 62.0396 15.5505 62.0492C15.8251 62.0574 15.9866 62.1432 16.0136 62.1581C16.0574 62.1822 15.9396 62.117 15.7858 61.8804L13.998 63.0417ZM15.9124 64.0363L17.0291 65.8523C18.0204 65.2427 18.4487 64.2582 18.5928 63.4444C18.7375 62.6267 18.644 61.7834 18.4225 61.0307L16.3773 61.6326L14.3322 62.2344C14.3692 62.3602 14.3881 62.4699 14.3951 62.5569C14.4023 62.6456 14.3958 62.693 14.3943 62.7011C14.3926 62.7106 14.4009 62.6523 14.4568 62.5577C14.5168 62.456 14.6255 62.325 14.7957 62.2203L15.9124 64.0363ZM16.3773 61.6326L18.4403 61.0952C18.1147 59.8449 17.6069 58.6753 17.0847 57.6201L15.174 58.5657L13.2633 59.5113C13.7256 60.4454 14.093 61.3204 14.3143 62.1699L16.3773 61.6326ZM15.174 58.5657L17.0578 57.5677C15.8546 55.2965 14.1113 53.3666 12.126 51.7863L10.7983 53.4543L9.47064 55.1223C11.0953 56.4155 12.4149 57.9116 13.2901 59.5637L15.174 58.5657ZM10.7983 53.4543V55.5862H10.8256V53.4543V51.3224H10.7983V53.4543ZM10.8256 53.4543L9.95712 55.4012C11.6733 56.1668 13.2197 57.49 14.3171 59.176L16.1039 58.0131L17.8906 56.8502C16.3626 54.5024 14.1896 52.6206 11.6942 51.5074L10.8256 53.4543ZM16.1039 58.0131L14.347 59.2208C14.8708 59.9828 15.2597 60.8771 15.6108 61.9414L17.6354 61.2734L19.6599 60.6054C19.2453 59.3488 18.7043 58.0328 17.8607 56.8055L16.1039 58.0131ZM17.6354 61.2734L15.6209 61.9713C15.7178 62.2507 15.7658 62.6231 15.7157 62.9309C15.6727 63.1955 15.5817 63.3181 15.4521 63.4062L16.6508 65.1691L17.8496 66.932C19.1421 66.0531 19.7347 64.7804 19.9242 63.6152C20.1066 62.4932 19.9358 61.4013 19.6498 60.5755L17.6354 61.2734ZM16.6508 65.1691L15.3968 63.4451C15.4522 63.4047 15.4976 63.3885 15.518 63.3828C15.5368 63.3776 15.5378 63.3802 15.5209 63.3798C15.504 63.3794 15.4856 63.3762 15.472 63.3722C15.4572 63.3677 15.4677 63.3682 15.4991 63.3889L14.3262 65.1691L13.1533 66.9493C14.3807 67.758 16.3734 68.0071 17.9049 66.8931L16.6508 65.1691ZM14.3262 65.1691L15.4429 63.3531C15.1804 63.1917 14.9561 62.9494 14.7392 62.6023L12.9315 63.7324L11.1238 64.8625C11.5631 65.5653 12.214 66.3729 13.2095 66.9851L14.3262 65.1691ZM12.9315 63.7324L14.7602 62.6368C14.1985 61.6991 13.7905 60.8027 13.5844 59.9279L11.5093 60.4169L9.43432 60.9059C9.77512 62.352 10.4064 63.6659 11.1027 64.828L12.9315 63.7324ZM11.5093 60.4169L13.567 59.8592C13.0152 57.8234 12.9043 55.7082 12.9569 53.4769L10.8256 53.4267L8.69436 53.3764C8.63756 55.7869 8.74544 58.3686 9.45171 60.9746L11.5093 60.4169ZM10.8256 53.4267H8.69377V53.4543H10.8256H12.9575V53.4267H10.8256Z" fill="#F974AB" mask="url(#path-8-inside-3_576_934)"/>
<mask id="path-10-inside-4_576_934" fill="white">
<path d="M11.9741 41.3256C11.0989 44.1161 9.78624 46.7962 8.17269 49.2552C7.3796 50.4708 6.50446 51.7142 5.27379 52.7088C4.67213 53.2061 3.93374 53.6206 3.14064 53.8416C2.42959 54.035 1.2536 54.256 0.433155 53.2614C-0.250549 52.322 -0.00441265 51.1892 0.351113 50.4708C0.70664 49.7248 1.08952 49.1446 1.4724 48.5092C2.2655 47.2658 3.14065 46.0502 4.17988 44.9726C5.21911 43.8951 6.36772 42.9004 7.70778 42.2373C9.04784 41.6019 10.552 41.2427 12.0015 41.3256H11.9741ZM11.9741 41.3256C9.04783 41.7124 6.69591 43.453 4.94563 45.6634C4.07049 46.7685 3.27736 47.9566 2.56631 49.1999C1.85526 50.4156 0.925421 51.8247 1.49973 52.4049C1.60913 52.6259 2.18347 52.7088 2.81248 52.543C3.41413 52.4049 3.96109 52.0733 4.50805 51.6865C5.57463 50.8853 6.44975 49.7525 7.35224 48.6197C9.10252 46.3541 10.6341 43.8951 12.0015 41.3256H11.9741Z"/>
</mask>
<path d="M11.9741 41.3256C11.0989 44.1161 9.78624 46.7962 8.17269 49.2552C7.3796 50.4708 6.50446 51.7142 5.27379 52.7088C4.67213 53.2061 3.93374 53.6206 3.14064 53.8416C2.42959 54.035 1.2536 54.256 0.433155 53.2614C-0.250549 52.322 -0.00441265 51.1892 0.351113 50.4708C0.70664 49.7248 1.08952 49.1446 1.4724 48.5092C2.2655 47.2658 3.14065 46.0502 4.17988 44.9726C5.21911 43.8951 6.36772 42.9004 7.70778 42.2373C9.04784 41.6019 10.552 41.2427 12.0015 41.3256H11.9741ZM11.9741 41.3256C9.04783 41.7124 6.69591 43.453 4.94563 45.6634C4.07049 46.7685 3.27736 47.9566 2.56631 49.1999C1.85526 50.4156 0.925421 51.8247 1.49973 52.4049C1.60913 52.6259 2.18347 52.7088 2.81248 52.543C3.41413 52.4049 3.96109 52.0733 4.50805 51.6865C5.57463 50.8853 6.44975 49.7525 7.35224 48.6197C9.10252 46.3541 10.6341 43.8951 12.0015 41.3256H11.9741Z" fill="#ED94AB"/>
<path d="M12.0015 41.3256V40.2596H11.9741V41.3256V42.3915H12.0015V41.3256ZM11.9741 41.3256L14.0083 41.9635L15.0085 38.774L11.6947 39.2121L11.9741 41.3256ZM8.17269 49.2552L6.39029 48.0856L6.38719 48.0903L8.17269 49.2552ZM5.27379 52.7088L3.93373 51.0508L3.9246 51.0582L3.91556 51.0656L5.27379 52.7088ZM3.14064 53.8416L3.70018 55.8988L3.71297 55.8952L3.14064 53.8416ZM0.433155 53.2614L-1.29052 54.5159L-1.25252 54.5681L-1.21143 54.6179L0.433155 53.2614ZM0.351113 50.4708L2.26179 51.4165L2.2688 51.4023L2.2756 51.388L0.351113 50.4708ZM1.4724 48.5092L-0.324933 47.3627L-0.339584 47.3856L-0.353642 47.409L1.4724 48.5092ZM7.70778 42.2373L6.79433 40.3111L6.77824 40.3187L6.76229 40.3266L7.70778 42.2373ZM12.0015 41.3256L13.8834 42.3271L15.4479 39.3873L12.1232 39.1972L12.0015 41.3256ZM2.56631 49.1999L4.40652 50.2762L4.41176 50.2673L4.41691 50.2583L2.56631 49.1999ZM1.49973 52.4049L3.4104 51.4593L3.25745 51.1502L3.01488 50.9052L1.49973 52.4049ZM2.81248 52.543L2.33539 50.4652L2.30215 50.4729L2.26917 50.4816L2.81248 52.543ZM4.50805 51.6865L5.73898 53.4271L5.76401 53.4094L5.78851 53.391L4.50805 51.6865ZM7.35224 48.6197L9.01964 49.9481L9.02956 49.9356L9.0393 49.923L7.35224 48.6197ZM11.9741 41.3256L9.93991 40.6876C9.12947 43.2718 7.90682 45.7744 6.39029 48.0856L8.17269 49.2552L9.9551 50.4247C11.6657 47.8179 13.0684 44.9604 14.0083 41.9635L11.9741 41.3256ZM8.17269 49.2552L6.38719 48.0903C5.60866 49.2837 4.88561 50.2814 3.93373 51.0508L5.27379 52.7088L6.61386 54.3669C8.12331 53.1469 9.15053 51.658 9.9582 50.42L8.17269 49.2552ZM5.27379 52.7088L3.91556 51.0656C3.51435 51.3973 3.03845 51.657 2.56831 51.788L3.14064 53.8416L3.71297 55.8952C4.82902 55.5842 5.82992 55.015 6.63203 54.352L5.27379 52.7088ZM3.14064 53.8416L2.58111 51.7845C2.4448 51.8215 2.33017 51.8476 2.22675 51.8627C2.12298 51.8777 2.05794 51.8773 2.02425 51.8742C1.99514 51.8715 2.00815 51.8687 2.04123 51.8849C2.08022 51.904 2.09245 51.9227 2.07774 51.9048L0.433155 53.2614L-1.21143 54.6179C0.525496 56.7237 2.99581 56.0903 3.70017 55.8987L3.14064 53.8416ZM0.433155 53.2614L2.15683 52.0069C2.14524 51.991 2.14224 51.9824 2.13977 51.9733C2.13628 51.9604 2.13007 51.9288 2.13243 51.8723C2.1378 51.7438 2.18437 51.5729 2.26179 51.4165L0.351113 50.4708L-1.55956 49.5252C-2.06143 50.5393 -2.6621 52.6314 -1.29052 54.5159L0.433155 53.2614ZM0.351113 50.4708L2.2756 51.388C2.57224 50.7656 2.86629 50.3266 3.29844 49.6094L1.4724 48.5092L-0.353642 47.409C-0.687242 47.9626 -1.15896 48.6841 -1.57337 49.5537L0.351113 50.4708ZM1.4724 48.5092L3.26973 49.6557C4.02324 48.4744 4.8118 47.3884 5.71437 46.4526L4.17988 44.9726L2.64539 43.4927C1.4695 44.7119 0.507751 46.0573 -0.324933 47.3627L1.4724 48.5092ZM4.17988 44.9726L5.71437 46.4526C6.67718 45.4543 7.62784 44.6555 8.65327 44.1481L7.70778 42.2373L6.76229 40.3266C5.1076 41.1454 3.76105 42.3359 2.64539 43.4927L4.17988 44.9726ZM7.70778 42.2373L8.62123 44.1636C9.7022 43.651 10.851 43.3951 11.8798 43.454L12.0015 41.3256L12.1232 39.1972C10.253 39.0902 8.39348 39.5527 6.79433 40.3111L7.70778 42.2373ZM11.9741 41.3256L11.6947 39.2121C8.05396 39.6933 5.2485 41.8468 3.27431 44.3399L4.94563 45.6634L6.61695 46.9868C8.14333 45.0592 10.0417 43.7314 12.2535 43.439L11.9741 41.3256ZM4.94563 45.6634L3.27431 44.3399C2.32712 45.536 1.47501 46.8138 0.715706 48.1415L2.56631 49.1999L4.41691 50.2583C5.07971 49.0993 5.81385 48.001 6.61695 46.9868L4.94563 45.6634ZM2.56631 49.1999L0.726101 48.1236C0.428595 48.6322 -0.0887384 49.4619 -0.405567 50.1941C-0.566844 50.5669 -0.758044 51.0898 -0.801745 51.6702C-0.84834 52.2891 -0.732484 53.1802 -0.0154133 53.9046L1.49973 52.4049L3.01488 50.9052C3.44479 51.3395 3.46151 51.8369 3.44996 51.9903C3.44129 52.1054 3.41931 52.0913 3.50759 51.8873C3.58575 51.7066 3.70521 51.4781 3.87033 51.1889C4.04483 50.8832 4.20235 50.6253 4.40652 50.2762L2.56631 49.1999ZM1.49973 52.4049L-0.41094 53.3505C-0.0821295 54.0149 0.462083 54.3378 0.773722 54.4808C1.11406 54.6369 1.448 54.7053 1.71327 54.7364C2.25069 54.7993 2.82154 54.7453 3.35578 54.6045L2.81248 52.543L2.26917 50.4816C2.1744 50.5065 2.14358 50.4939 2.20923 50.5016C2.23861 50.5051 2.36914 50.5217 2.55137 50.6053C2.70489 50.6757 3.13629 50.9054 3.4104 51.4593L1.49973 52.4049ZM2.81248 52.543L3.28956 54.6208C4.31824 54.3846 5.14902 53.8443 5.73898 53.4271L4.50805 51.6865L3.27711 49.9459C2.77315 50.3023 2.51003 50.4251 2.33539 50.4652L2.81248 52.543ZM4.50805 51.6865L5.78851 53.391C7.12047 52.3904 8.17718 51.0055 9.01964 49.9481L7.35224 48.6197L5.68484 47.2913C4.72232 48.4994 4.02878 49.3802 3.22758 49.982L4.50805 51.6865ZM7.35224 48.6197L9.0393 49.923C10.8771 47.5441 12.4717 44.9798 13.8834 42.3271L12.0015 41.3256L10.1195 40.324C8.79638 42.8103 7.32793 45.164 5.66518 47.3163L7.35224 48.6197Z" fill="#F974AB" mask="url(#path-10-inside-4_576_934)"/>
<mask id="path-12-inside-5_576_934" fill="white">
<path d="M12.7399 24.4159C13.0681 26.2394 13.5057 27.9248 13.9159 29.4997C14.2715 31.0193 14.5723 32.7599 14.9825 34.3624C15.3927 35.9925 15.8576 37.595 16.5687 39.0594C17.1977 40.4132 18.401 42.3473 18.9753 41.8223C19.2761 41.6289 19.577 40.7448 19.6317 40.0264C19.7137 39.2804 19.6317 38.4515 19.5223 37.6503C19.3035 36.0478 18.7292 34.4729 18.0729 32.9533C16.7055 29.9141 14.5996 27.2064 12.7126 24.3883L12.7399 24.4159ZM12.7399 24.4159C15.0645 26.8749 17.3891 29.4168 19.03 32.5112C19.8778 34.0309 20.4795 35.7162 20.8077 37.4569C20.9444 38.341 21.0538 39.2252 20.9717 40.1646C20.8076 41.104 20.7803 42.071 19.7411 42.9551C18.3463 43.784 17.143 42.6512 16.7055 41.9328C16.1858 41.1868 15.7482 40.4132 15.3927 39.612C14.6817 37.9818 14.2441 36.2965 13.9433 34.5834C13.6424 32.8704 13.451 31.2403 13.2322 29.3892C13.0681 27.6209 12.9314 25.9355 12.7126 24.3883L12.7399 24.4159Z"/>
</mask>
<path d="M12.7399 24.4159C13.0681 26.2394 13.5057 27.9248 13.9159 29.4997C14.2715 31.0193 14.5723 32.7599 14.9825 34.3624C15.3927 35.9925 15.8576 37.595 16.5687 39.0594C17.1977 40.4132 18.401 42.3473 18.9753 41.8223C19.2761 41.6289 19.577 40.7448 19.6317 40.0264C19.7137 39.2804 19.6317 38.4515 19.5223 37.6503C19.3035 36.0478 18.7292 34.4729 18.0729 32.9533C16.7055 29.9141 14.5996 27.2064 12.7126 24.3883L12.7399 24.4159ZM12.7399 24.4159C15.0645 26.8749 17.3891 29.4168 19.03 32.5112C19.8778 34.0309 20.4795 35.7162 20.8077 37.4569C20.9444 38.341 21.0538 39.2252 20.9717 40.1646C20.8076 41.104 20.7803 42.071 19.7411 42.9551C18.3463 43.784 17.143 42.6512 16.7055 41.9328C16.1858 41.1868 15.7482 40.4132 15.3927 39.612C14.6817 37.9818 14.2441 36.2965 13.9433 34.5834C13.6424 32.8704 13.451 31.2403 13.2322 29.3892C13.0681 27.6209 12.9314 25.9355 12.7126 24.3883L12.7399 24.4159Z" fill="#ED94AB"/>
<path d="M12.7126 24.3883L11.955 25.1381L11.9824 25.1657L12.7399 24.4159L13.4975 23.666L13.4702 23.6384L12.7126 24.3883ZM12.7399 24.4159L14.2891 22.9514L9.37465 17.7527L10.6418 24.7935L12.7399 24.4159ZM13.9159 29.4997L15.9917 29.014L15.9857 28.9881L15.979 28.9623L13.9159 29.4997ZM14.9825 34.3624L17.0499 33.8422L17.0478 33.8337L14.9825 34.3624ZM16.5687 39.0594L18.5021 38.1611L18.4944 38.1446L18.4864 38.1282L16.5687 39.0594ZM18.9753 41.8223L17.8224 40.0291L17.6704 40.1268L17.537 40.2488L18.9753 41.8223ZM19.6317 40.0264L17.5126 39.7933L17.5087 39.8289L17.506 39.8646L19.6317 40.0264ZM18.0729 32.9533L20.03 32.108L20.0236 32.0933L20.017 32.0786L18.0729 32.9533ZM12.7126 24.3883L14.484 23.2021L10.6017 24.6868L12.7126 24.3883ZM19.03 32.5112L17.1466 33.51L17.1572 33.5301L17.1683 33.5499L19.03 32.5112ZM20.8077 37.4569L22.9145 37.131L22.9091 37.0964L22.9026 37.0619L20.8077 37.4569ZM20.9717 40.1646L23.0718 40.5314L23.0876 40.4412L23.0955 40.35L20.9717 40.1646ZM19.7411 42.9551L20.8302 44.7878L20.9852 44.6957L21.1225 44.5789L19.7411 42.9551ZM16.7055 41.9328L18.5261 40.8238L18.4921 40.768L18.4548 40.7143L16.7055 41.9328ZM15.3927 39.612L13.4386 40.4643L13.4441 40.4766L15.3927 39.612ZM13.2322 29.3892L11.1095 29.5861L11.1119 29.6128L11.1151 29.6394L13.2322 29.3892ZM12.7399 24.4159L10.6418 24.7935C10.9864 26.7086 11.4444 28.4688 11.8529 30.037L13.9159 29.4997L15.979 28.9623C15.567 27.3808 15.1498 25.7702 14.8381 24.0383L12.7399 24.4159ZM13.9159 29.4997L11.8401 29.9853C12.0098 30.7108 12.1664 31.4883 12.3411 32.3323C12.5124 33.1596 12.6988 34.0377 12.9172 34.8911L14.9825 34.3624L17.0478 33.8337C16.856 33.0846 16.6868 32.2912 16.5163 31.4677C16.3492 30.6608 16.1775 29.8081 15.9917 29.014L13.9159 29.4997ZM14.9825 34.3624L12.9151 34.8827C13.3329 36.543 13.8402 38.3209 14.651 39.9906L16.5687 39.0594L18.4864 38.1282C17.8751 36.8692 17.4526 35.4421 17.0499 33.8422L14.9825 34.3624ZM16.5687 39.0594L14.6353 39.9577C14.9885 40.7179 15.5227 41.6905 16.1022 42.4445C16.3707 42.7938 16.7788 43.2708 17.3059 43.6042C17.5767 43.7755 18.0256 44.0035 18.6065 44.038C19.2694 44.0773 19.9157 43.851 20.4136 43.3959L18.9753 41.8223L17.537 40.2488C17.8913 39.9248 18.3745 39.7529 18.8591 39.7817C19.2618 39.8056 19.5176 39.9581 19.585 40.0007C19.7053 40.0768 19.6656 40.0841 19.4828 39.8463C19.1599 39.4261 18.7779 38.7547 18.5021 38.1611L16.5687 39.0594ZM18.9753 41.8223L20.1282 43.6156C20.6234 43.2972 20.9047 42.8629 21.0346 42.6421C21.193 42.3729 21.3131 42.0912 21.4035 41.8383C21.5828 41.3362 21.7147 40.7491 21.7574 40.1883L19.6317 40.0264L17.506 39.8646C17.5007 39.934 17.4877 40.0263 17.465 40.1304C17.4425 40.2341 17.4149 40.3291 17.3881 40.4042C17.3588 40.4862 17.3439 40.5068 17.3596 40.4802C17.3683 40.4654 17.3988 40.4149 17.4569 40.3459C17.5102 40.2827 17.6282 40.154 17.8224 40.0291L18.9753 41.8223ZM19.6317 40.0264L21.7508 40.2595C21.8637 39.2325 21.7461 38.1789 21.6346 37.3619L19.5223 37.6503L17.41 37.9387C17.5173 38.7241 17.5637 39.3283 17.5126 39.7933L19.6317 40.0264ZM19.5223 37.6503L21.6346 37.3619C21.3762 35.4697 20.7103 33.6832 20.03 32.108L18.0729 32.9533L16.1157 33.7986C16.7481 35.2627 17.2308 36.6259 17.41 37.9387L19.5223 37.6503ZM18.0729 32.9533L20.017 32.0786C18.552 28.8225 16.2542 25.8458 14.484 23.2021L12.7126 24.3883L10.9412 25.5744C12.945 28.5671 14.8589 31.0057 16.1287 33.828L18.0729 32.9533ZM12.7399 24.4159L11.1907 25.8804C13.5229 28.3474 15.6571 30.701 17.1466 33.51L19.03 32.5112L20.9135 31.5125C19.1212 28.1325 16.6062 25.4023 14.2891 22.9514L12.7399 24.4159ZM19.03 32.5112L17.1683 33.5499C17.8998 34.8612 18.4254 36.328 18.7127 37.8519L20.8077 37.4569L22.9026 37.0619C22.5336 35.1044 21.8558 33.2005 20.8918 31.4726L19.03 32.5112ZM20.8077 37.4569L18.7008 37.7827C18.8335 38.6403 18.9063 39.3107 18.848 39.9791L20.9717 40.1646L23.0955 40.35C23.2012 39.1397 23.0553 38.0417 22.9145 37.131L20.8077 37.4569ZM20.9717 40.1646L18.8717 39.7977C18.8473 39.9372 18.8259 40.0746 18.8081 40.1882C18.7893 40.3085 18.7738 40.4066 18.7571 40.501C18.724 40.688 18.6945 40.8098 18.663 40.9038C18.6174 41.0398 18.5572 41.1633 18.3597 41.3314L19.7411 42.9551L21.1225 44.5789C22.8671 43.0946 22.9512 41.2216 23.0718 40.5314L20.9717 40.1646ZM19.7411 42.9551L18.652 41.1224C18.6285 41.1364 18.6287 41.1326 18.652 41.1261C18.6758 41.1194 18.7086 41.1141 18.7457 41.1142C18.8223 41.1144 18.8549 41.1362 18.8305 41.1238C18.8009 41.1088 18.7415 41.0698 18.6685 40.9975C18.5953 40.925 18.5456 40.8557 18.5261 40.8238L16.7055 41.9328L14.8848 43.0419C15.2547 43.6492 15.9323 44.4335 16.8982 44.9246C17.973 45.471 19.4084 45.6328 20.8302 44.7878L19.7411 42.9551ZM16.7055 41.9328L18.4548 40.7143C18.0098 40.0755 17.6398 39.42 17.3414 38.7473L15.3927 39.612L13.4441 40.4766C13.8566 41.4064 14.3618 42.2981 14.9561 43.1513L16.7055 41.9328ZM15.3927 39.612L17.3468 38.7596C16.7229 37.3293 16.3245 35.8178 16.043 34.2147L13.9433 34.5834L11.8435 34.9522C12.1637 36.7751 12.6404 38.6344 13.4386 40.4643L15.3927 39.612ZM13.9433 34.5834L16.043 34.2147C15.7543 32.5708 15.5694 31.0009 15.3494 29.1389L13.2322 29.3892L11.1151 29.6394C11.3326 31.4797 11.5305 33.17 11.8435 34.9522L13.9433 34.5834ZM13.2322 29.3892L15.355 29.1922C15.1945 27.4633 15.0516 25.7028 14.8235 24.0898L12.7126 24.3883L10.6017 24.6868C10.8112 26.1682 10.9417 27.7785 11.1095 29.5861L13.2322 29.3892Z" fill="#F974AB" mask="url(#path-12-inside-5_576_934)"/>
<mask id="path-14-inside-6_576_934" fill="white">
<path d="M12.9038 13.5583C12.5209 16.5147 11.6184 19.4434 10.3604 22.151C9.7314 23.5325 8.96564 24.8587 7.87171 26.0468C7.32475 26.627 6.69573 27.152 5.98468 27.5388C5.30098 27.8703 4.48056 28.4505 3.27724 27.9808C2.62088 27.7045 2.37472 26.8204 2.48412 26.3507C2.56616 25.8257 2.67556 25.5218 2.78495 25.1626C3.00373 24.4443 3.27724 23.6983 3.57807 23.0076C4.17973 21.5985 4.91812 20.2446 5.87531 19.0566C7.70763 16.6252 10.1416 14.6359 12.9038 13.586V13.5583ZM12.9038 13.5583C10.3878 15.1332 8.28194 17.2054 6.72309 19.6368C5.95734 20.8525 5.27366 22.1234 4.7814 23.4773C4.53526 24.1404 4.2891 24.8311 4.07032 25.5218C3.98827 25.8534 3.85154 26.2402 3.82419 26.4888C3.82419 26.7375 3.8242 26.7099 3.8789 26.7375C4.09769 26.8757 4.78137 26.6823 5.35568 26.3507C5.93 26.0468 6.44962 25.6047 6.94188 25.135C7.92642 24.168 8.69215 22.9247 9.4032 21.6814C10.8253 19.1118 11.9466 16.4042 12.8764 13.5583H12.9038Z"/>
</mask>
<path d="M12.9038 13.5583C12.5209 16.5147 11.6184 19.4434 10.3604 22.151C9.7314 23.5325 8.96564 24.8587 7.87171 26.0468C7.32475 26.627 6.69573 27.152 5.98468 27.5388C5.30098 27.8703 4.48056 28.4505 3.27724 27.9808C2.62088 27.7045 2.37472 26.8204 2.48412 26.3507C2.56616 25.8257 2.67556 25.5218 2.78495 25.1626C3.00373 24.4443 3.27724 23.6983 3.57807 23.0076C4.17973 21.5985 4.91812 20.2446 5.87531 19.0566C7.70763 16.6252 10.1416 14.6359 12.9038 13.586V13.5583ZM12.9038 13.5583C10.3878 15.1332 8.28194 17.2054 6.72309 19.6368C5.95734 20.8525 5.27366 22.1234 4.7814 23.4773C4.53526 24.1404 4.2891 24.8311 4.07032 25.5218C3.98827 25.8534 3.85154 26.2402 3.82419 26.4888C3.82419 26.7375 3.8242 26.7099 3.8789 26.7375C4.09769 26.8757 4.78137 26.6823 5.35568 26.3507C5.93 26.0468 6.44962 25.6047 6.94188 25.135C7.92642 24.168 8.69215 22.9247 9.4032 21.6814C10.8253 19.1118 11.9466 16.4042 12.8764 13.5583H12.9038Z" fill="#ED94AB"/>
<path d="M12.9038 13.5583H15.0357V11.4265H12.9038V13.5583ZM10.3604 22.151L8.42702 21.2528L8.42358 21.2602L8.42019 21.2676L10.3604 22.151ZM7.87171 26.0468L9.42296 27.5091L9.43154 27.5L9.44002 27.4908L7.87171 26.0468ZM5.98468 27.5388L6.91489 29.457L6.95969 29.4353L7.00342 29.4115L5.98468 27.5388ZM3.27724 27.9808L2.45012 29.9457L2.47595 29.9566L2.50206 29.9668L3.27724 27.9808ZM2.48412 26.3507L4.56042 26.8343L4.57827 26.7576L4.59042 26.6799L2.48412 26.3507ZM3.57807 23.0076L5.53261 23.8588L5.53568 23.8518L5.53869 23.8447L3.57807 23.0076ZM5.87531 19.0566L7.53541 20.3941L7.55707 20.3672L7.57784 20.3396L5.87531 19.0566ZM12.9038 13.586L13.6613 15.5788L15.0357 15.0563V13.586H12.9038ZM6.72309 19.6368L4.92841 18.4862L4.9238 18.4933L4.91925 18.5006L6.72309 19.6368ZM4.7814 23.4773L6.78002 24.2191L6.7825 24.2125L6.78493 24.2058L4.7814 23.4773ZM4.07032 25.5218L2.03796 24.8781L2.0173 24.9433L2.00087 25.0097L4.07032 25.5218ZM3.82419 26.4888L1.7051 26.2558L1.69232 26.372V26.4888H3.82419ZM3.8789 26.7375L5.0171 24.9349L4.931 24.8805L4.84012 24.8346L3.8789 26.7375ZM5.35568 26.3507L4.35853 24.4664L4.32382 24.4848L4.28982 24.5044L5.35568 26.3507ZM6.94188 25.135L8.41357 26.6774L8.42474 26.6668L8.43576 26.6559L6.94188 25.135ZM9.4032 21.6814L11.2538 22.7397L11.2612 22.7267L11.2685 22.7137L9.4032 21.6814ZM12.8764 13.5583V11.4265H11.3302L10.85 12.8962L12.8764 13.5583ZM12.9038 13.5583L10.7896 13.2845C10.4379 16.0004 9.6041 18.7193 8.42702 21.2528L10.3604 22.151L12.2938 23.0493C13.6327 20.1674 14.604 17.0289 15.018 13.8322L12.9038 13.5583ZM10.3604 22.151L8.42019 21.2676C7.84782 22.5247 7.19403 23.6355 6.30341 24.6027L7.87171 26.0468L9.44002 27.4908C10.7373 26.082 11.615 24.5403 12.3006 23.0345L10.3604 22.151ZM7.87171 26.0468L6.32046 24.5844C5.88804 25.0431 5.43332 25.4118 4.96594 25.6661L5.98468 27.5388L7.00342 29.4115C7.95815 28.8921 8.76146 28.2109 9.42296 27.5091L7.87171 26.0468ZM5.98468 27.5388L5.05447 25.6205C4.93965 25.6762 4.82689 25.7347 4.74173 25.7788C4.64843 25.827 4.57719 25.8638 4.50705 25.898C4.36862 25.9656 4.28735 25.9967 4.23248 26.0126C4.18542 26.0263 4.16847 26.0254 4.16553 26.0253C4.16503 26.0253 4.13177 26.0259 4.05242 25.9949L3.27724 27.9808L2.50206 29.9668C4.7586 30.8476 6.55349 29.6322 6.91489 29.457L5.98468 27.5388ZM3.27724 27.9808L4.10435 26.0159C4.45176 26.1622 4.55481 26.4024 4.56371 26.4239C4.5745 26.45 4.5824 26.4776 4.58699 26.5167C4.59024 26.5445 4.60173 26.6569 4.56042 26.8343L2.48412 26.3507L0.407817 25.8671C0.229833 26.6313 0.365642 27.4293 0.623336 28.0527C0.892056 28.7028 1.44636 29.5232 2.45012 29.9457L3.27724 27.9808ZM2.48412 26.3507L4.59042 26.6799C4.64389 26.3377 4.69749 26.2002 4.82433 25.7838L2.78495 25.1626L0.745568 24.5415C0.653623 24.8434 0.488434 25.3137 0.377818 26.0215L2.48412 26.3507ZM2.78495 25.1626L4.82433 25.7838C5.02 25.1413 5.26543 24.4723 5.53261 23.8588L3.57807 23.0076L1.62353 22.1563C1.28905 22.9243 0.987468 23.7473 0.745568 24.5415L2.78495 25.1626ZM3.57807 23.0076L5.53869 23.8447C6.0892 22.5554 6.73597 21.3864 7.53541 20.3941L5.87531 19.0566L4.2152 17.7191C3.10028 19.1029 2.27026 20.6415 1.61745 22.1704L3.57807 23.0076ZM5.87531 19.0566L7.57784 20.3396C9.21186 18.1714 11.337 16.4622 13.6613 15.5788L12.9038 13.586L12.1463 11.5932C8.94625 12.8096 6.20341 15.079 4.17277 17.7735L5.87531 19.0566ZM12.9038 13.586H15.0357V13.5583H12.9038H10.7719V13.586H12.9038ZM12.9038 13.5583L11.7727 11.7513C8.99677 13.4888 6.66169 15.7827 4.92841 18.4862L6.72309 19.6368L8.51778 20.7874C9.90219 18.6281 11.7788 16.7776 14.0349 15.3654L12.9038 13.5583ZM6.72309 19.6368L4.91925 18.5006C4.10425 19.7945 3.33896 21.2056 2.77786 22.7488L4.7814 23.4773L6.78493 24.2058C7.20837 23.0412 7.81044 21.9105 8.52694 20.773L6.72309 19.6368ZM4.7814 23.4773L2.78277 22.7354C2.53072 23.4144 2.27142 24.141 2.03796 24.8781L4.07032 25.5218L6.10267 26.1656C6.30679 25.5211 6.5398 24.8663 6.78002 24.2191L4.7814 23.4773ZM4.07032 25.5218L2.00087 25.0097C1.97098 25.1305 1.94015 25.2271 1.87533 25.4563C1.84836 25.5516 1.81606 25.6694 1.78725 25.792C1.75966 25.9095 1.72517 26.0733 1.7051 26.2558L3.82419 26.4888L5.94328 26.7219C5.93689 26.78 5.92974 26.8022 5.93805 26.7669C5.94513 26.7367 5.95727 26.6904 5.97816 26.6165C6.00425 26.5243 6.01689 26.4827 6.05099 26.3633C6.078 26.2687 6.1101 26.1538 6.13976 26.0339L4.07032 25.5218ZM3.82419 26.4888H1.69232C1.69232 26.538 1.69215 26.6168 1.69391 26.6843C1.6945 26.707 1.69581 26.9424 1.76163 27.2083C1.8019 27.371 1.88179 27.6157 2.05114 27.8757C2.2329 28.1548 2.45337 28.3535 2.65631 28.4901C2.82323 28.6026 2.9746 28.668 2.98016 28.6705C3.02164 28.6894 2.9632 28.6634 2.91769 28.6404L3.8789 26.7375L4.84012 24.8346C4.78093 24.8047 4.71052 24.7736 4.74154 24.7876C4.7474 24.7903 4.78309 24.8064 4.82834 24.8297C4.87548 24.8539 4.95066 24.8948 5.03825 24.9538C5.2335 25.0853 5.44755 25.2779 5.62397 25.5488C5.78797 25.8006 5.8636 26.0349 5.90044 26.1838C5.93576 26.3265 5.94692 26.4389 5.95085 26.4839C5.95527 26.5344 5.9561 26.5695 5.95619 26.5731C5.95624 26.575 5.95606 26.564 5.95606 26.4888H3.82419ZM3.8789 26.7375L2.7407 28.5401C3.34513 28.9218 3.95829 28.9214 4.2009 28.9124C4.51597 28.9006 4.80637 28.8411 5.03691 28.7792C5.50404 28.6537 5.98996 28.4461 6.42155 28.197L5.35568 26.3507L4.28982 24.5044C4.14709 24.5868 4.00402 24.6417 3.93103 24.6613C3.89152 24.6719 3.93407 24.6556 4.04147 24.6516C4.09758 24.6495 4.20935 24.6492 4.35675 24.6755C4.49806 24.7008 4.74571 24.7636 5.0171 24.9349L3.8789 26.7375ZM5.35568 26.3507L6.35284 28.235C7.19163 27.7911 7.88153 27.1851 8.41357 26.6774L6.94188 25.135L5.4702 23.5926C5.01771 24.0244 4.66836 24.3025 4.35853 24.4664L5.35568 26.3507ZM6.94188 25.135L8.43576 26.6559C9.64996 25.4633 10.5394 23.9888 11.2538 22.7397L9.4032 21.6814L7.5526 20.623C6.84487 21.8605 6.20287 22.8727 5.44801 23.6141L6.94188 25.135ZM9.4032 21.6814L11.2685 22.7137C12.7683 20.0037 13.9399 17.1676 14.9029 14.2205L12.8764 13.5583L10.85 12.8962C9.95326 15.6407 8.88233 18.22 7.53795 20.649L9.4032 21.6814ZM12.8764 13.5583V15.6902H12.9038V13.5583V11.4265H12.8764V13.5583Z" fill="#F974AB" mask="url(#path-14-inside-6_576_934)"/>
<mask id="path-16-inside-7_576_934" fill="white">
<path d="M13.2592 16.0723C14.1891 16.2933 14.8181 16.8183 15.3924 17.3985C15.912 18.0339 16.3769 18.7247 16.5137 19.6641C15.5565 19.4154 14.9275 18.8904 14.3805 18.3378C13.8609 17.73 13.4233 17.0393 13.2592 16.0723Z"/>
</mask>
<path d="M13.2592 16.0723C14.1891 16.2933 14.8181 16.8183 15.3924 17.3985C15.912 18.0339 16.3769 18.7247 16.5137 19.6641C15.5565 19.4154 14.9275 18.8904 14.3805 18.3378C13.8609 17.73 13.4233 17.0393 13.2592 16.0723Z" fill="#ED94AB"/>
<path d="M13.2592 16.0723L13.7523 13.9982L10.6185 13.2533L11.1574 16.4289L13.2592 16.0723ZM15.3924 17.3985L17.0428 16.049L16.9787 15.9706L16.9075 15.8987L15.3924 17.3985ZM16.5137 19.6641L15.9776 21.7274L19.0859 22.5349L18.6233 19.357L16.5137 19.6641ZM14.3805 18.3378L12.76 19.7231L12.8106 19.7823L12.8654 19.8376L14.3805 18.3378ZM13.2592 16.0723L12.7662 18.1463C13.1138 18.2289 13.3978 18.4138 13.8772 18.8982L15.3924 17.3985L16.9075 15.8987C16.2384 15.2227 15.2644 14.3576 13.7523 13.9982L13.2592 16.0723ZM15.3924 17.3985L13.742 18.748C14.1815 19.2855 14.3513 19.6088 14.404 19.9711L16.5137 19.6641L18.6233 19.357C18.4026 17.8406 17.6425 16.7824 17.0428 16.049L15.3924 17.3985ZM16.5137 19.6641L17.0497 17.6007C16.6337 17.4926 16.3315 17.2784 15.8957 16.8381L14.3805 18.3378L12.8654 19.8376C13.5235 20.5024 14.4792 21.3382 15.9776 21.7274L16.5137 19.6641ZM14.3805 18.3378L16.001 16.9526C15.6329 16.5221 15.4392 16.1762 15.3611 15.7156L13.2592 16.0723L11.1574 16.4289C11.4074 17.9023 12.0889 18.938 12.76 19.7231L14.3805 18.3378Z" fill="#F974AB" mask="url(#path-16-inside-7_576_934)"/>
<mask id="path-18-inside-8_576_934" fill="white">
<path d="M12.7397 22.5925C12.7397 23.6148 12.3295 24.4713 11.8646 25.2449C11.345 25.9909 10.7707 26.7093 9.84085 27.1514C9.89554 26.0738 10.2511 25.2726 10.716 24.499C11.2083 23.753 11.7826 23.0899 12.7397 22.5925Z"/>
</mask>
<path d="M12.7397 22.5925C12.7397 23.6148 12.3295 24.4713 11.8646 25.2449C11.345 25.9909 10.7707 26.7093 9.84085 27.1514C9.89554 26.0738 10.2511 25.2726 10.716 24.499C11.2083 23.753 11.7826 23.0899 12.7397 22.5925Z" fill="#ED94AB"/>
<path d="M12.7397 22.5925H14.8716V19.0824L11.7568 20.7008L12.7397 22.5925ZM11.8646 25.2449L13.614 26.4634L13.655 26.4046L13.6919 26.3431L11.8646 25.2449ZM9.84085 27.1514L7.71172 27.0433L7.53066 30.6102L10.7562 29.0767L9.84085 27.1514ZM10.716 24.499L8.93664 23.3248L8.91188 23.3623L8.88873 23.4008L10.716 24.499ZM12.7397 22.5925H10.6079C10.6079 23.025 10.443 23.4718 10.0373 24.1468L11.8646 25.2449L13.6919 26.3431C14.2161 25.4709 14.8716 24.2046 14.8716 22.5925H12.7397ZM11.8646 25.2449L10.1153 24.0265C9.63657 24.7137 9.32698 25.0351 8.92549 25.226L9.84085 27.1514L10.7562 29.0767C12.2144 28.3835 13.0535 27.2681 13.614 26.4634L11.8646 25.2449ZM9.84085 27.1514L11.97 27.2594C12.0007 26.6548 12.1823 26.1978 12.5433 25.5971L10.716 24.499L8.88873 23.4008C8.31988 24.3474 7.79042 25.4928 7.71172 27.0433L9.84085 27.1514ZM10.716 24.499L12.4954 25.6731C12.8696 25.106 13.1981 24.7568 13.7227 24.4843L12.7397 22.5925L11.7568 20.7008C10.367 21.4229 9.54694 22.3999 8.93664 23.3248L10.716 24.499Z" fill="#F974AB" mask="url(#path-18-inside-8_576_934)"/>
<mask id="path-20-inside-9_576_934" fill="white">
<path d="M11.892 37.4297C12.9312 38.2586 13.6149 39.3085 14.2166 40.3584C14.7636 41.4636 15.2285 42.5964 15.3379 43.9502C14.2987 43.1213 13.6149 42.099 13.0133 41.0215C12.4663 39.9163 12.0014 38.7835 11.892 37.4297Z"/>
</mask>
<path d="M11.892 37.4297C12.9312 38.2586 13.6149 39.3085 14.2166 40.3584C14.7636 41.4636 15.2285 42.5964 15.3379 43.9502C14.2987 43.1213 13.6149 42.099 13.0133 41.0215C12.4663 39.9163 12.0014 38.7835 11.892 37.4297Z" fill="#ED94AB"/>
<path d="M11.892 37.4297L13.2213 35.763L9.37032 32.6915L9.76705 37.6014L11.892 37.4297ZM14.2166 40.3584L16.1273 39.4128L16.0985 39.3547L16.0663 39.2984L14.2166 40.3584ZM15.3379 43.9502L14.0086 45.6169L17.8596 48.6884L17.4628 43.7785L15.3379 43.9502ZM13.0133 41.0215L11.1026 41.9671L11.1261 42.0146L11.1519 42.0608L13.0133 41.0215ZM11.892 37.4297L10.5627 39.0964C11.2751 39.6646 11.7962 40.4224 12.3669 41.4184L14.2166 40.3584L16.0663 39.2984C15.4337 38.1946 14.5874 36.8526 13.2213 35.763L11.892 37.4297ZM14.2166 40.3584L12.3059 41.304C12.8118 42.3262 13.1361 43.1707 13.2129 44.1219L15.3379 43.9502L17.4628 43.7785C17.3209 42.0221 16.7153 40.6009 16.1273 39.4128L14.2166 40.3584ZM15.3379 43.9502L16.6672 42.2835C15.9475 41.7095 15.4256 40.9689 14.8746 39.9822L13.0133 41.0215L11.1519 42.0608C11.8043 43.2292 12.6498 44.5331 14.0086 45.6169L15.3379 43.9502ZM13.0133 41.0215L14.924 40.0759C14.418 39.0537 14.0938 38.2092 14.0169 37.258L11.892 37.4297L9.76705 37.6014C9.90898 39.3579 10.5146 40.779 11.1026 41.9671L13.0133 41.0215Z" fill="#F974AB" mask="url(#path-20-inside-9_576_934)"/>
<mask id="path-22-inside-10_576_934" fill="white">
<path d="M11.0986 49.8631C10.8252 51.2169 10.1962 52.3497 9.4851 53.4272C8.7467 54.4771 7.92625 55.4718 6.75028 56.2178C7.02376 54.8639 7.65276 53.7311 8.36382 52.6536C9.10222 51.6037 9.92266 50.6367 11.0986 49.8631Z"/>
</mask>
<path d="M11.0986 49.8631C10.8252 51.2169 10.1962 52.3497 9.4851 53.4272C8.7467 54.4771 7.92625 55.4718 6.75028 56.2178C7.02376 54.8639 7.65276 53.7311 8.36382 52.6536C9.10222 51.6037 9.92266 50.6367 11.0986 49.8631Z" fill="#ED94AB"/>
<path d="M11.0986 49.8631L13.1883 50.2852L14.2014 45.2701L9.92697 48.082L11.0986 49.8631ZM9.4851 53.4272L11.2289 54.6536L11.2471 54.6278L11.2645 54.6014L9.4851 53.4272ZM6.75028 56.2178L4.66062 55.7957L3.67074 60.6959L7.89226 58.018L6.75028 56.2178ZM8.36382 52.6536L6.62003 51.4272L6.60185 51.453L6.58444 51.4794L8.36382 52.6536ZM11.0986 49.8631L9.00897 49.4409C8.81639 50.3943 8.36435 51.255 7.70573 52.253L9.4851 53.4272L11.2645 54.6014C12.028 53.4444 12.8339 52.0395 13.1883 50.2852L11.0986 49.8631ZM9.4851 53.4272L7.74131 52.2008C7.05929 53.1706 6.4318 53.8952 5.6083 54.4176L6.75028 56.2178L7.89226 58.018C9.42071 57.0484 10.4341 55.7837 11.2289 54.6536L9.4851 53.4272ZM6.75028 56.2178L8.83994 56.6399C9.03253 55.6865 9.48457 54.8259 10.1432 53.8278L8.36382 52.6536L6.58444 51.4794C5.82095 52.6364 5.015 54.0414 4.66062 55.7957L6.75028 56.2178ZM8.36382 52.6536L10.1076 53.88C10.7719 52.9355 11.4107 52.2096 12.2703 51.6441L11.0986 49.8631L9.92697 48.082C8.43462 49.0638 7.43257 50.2719 6.62003 51.4272L8.36382 52.6536Z" fill="#F974AB" mask="url(#path-22-inside-10_576_934)"/>
<mask id="path-24-inside-11_576_934" fill="white">
<path d="M10.7983 64.0086C11.6735 64.5059 12.1931 65.169 12.6033 65.8598C12.9862 66.5781 13.2596 67.3517 13.2049 68.374C12.3572 67.932 11.8376 67.2412 11.4 66.5229C11.0171 65.7769 10.7163 64.948 10.7983 64.0086Z"/>
</mask>
<path d="M10.7983 64.0086C11.6735 64.5059 12.1931 65.169 12.6033 65.8598C12.9862 66.5781 13.2596 67.3517 13.2049 68.374C12.3572 67.932 11.8376 67.2412 11.4 66.5229C11.0171 65.7769 10.7163 64.948 10.7983 64.0086Z" fill="#ED94AB"/>
<path d="M10.7983 64.0086L11.8516 62.1551L8.96357 60.5139L8.67455 63.8231L10.7983 64.0086ZM12.6033 65.8598L14.4847 64.857L14.4615 64.8135L14.4363 64.7712L12.6033 65.8598ZM13.2049 68.374L12.2193 70.2643L15.1568 71.7961L15.3338 68.4879L13.2049 68.374ZM11.4 66.5229L9.50335 67.4963L9.53885 67.5655L9.5793 67.6319L11.4 66.5229ZM10.7983 64.0086L9.74503 65.8621C10.1852 66.1122 10.4693 66.4414 10.7703 66.9484L12.6033 65.8598L14.4363 64.7712C13.9169 63.8966 13.1618 62.8996 11.8516 62.1551L10.7983 64.0086ZM12.6033 65.8598L10.722 66.8625C10.9849 67.3557 11.1039 67.74 11.0761 68.2601L13.2049 68.374L15.3338 68.4879C15.4153 66.9635 14.9875 65.8005 14.4847 64.857L12.6033 65.8598ZM13.2049 68.374L14.1906 66.4837C13.8622 66.3124 13.5924 66.024 13.2207 65.4138L11.4 66.5229L9.5793 67.6319C10.0828 68.4584 10.8522 69.5515 12.2193 70.2643L13.2049 68.374ZM11.4 66.5229L13.2966 65.5494C12.9909 64.9538 12.8908 64.5521 12.9221 64.1941L10.7983 64.0086L8.67455 63.8231C8.54173 65.3439 9.04331 66.6 9.50335 67.4963L11.4 66.5229Z" fill="#F974AB" mask="url(#path-24-inside-11_576_934)"/>
<mask id="path-26-inside-12_576_934" fill="white">
<path d="M11.0986 71.9385C11.0439 73.016 10.6611 73.8725 10.1961 74.6738C9.67652 75.4474 9.07488 76.1658 8.11769 76.6631C8.17239 75.5855 8.55523 74.729 9.02014 73.9278C9.53976 73.1542 10.1414 72.4358 11.0986 71.9385Z"/>
</mask>
<path d="M11.0986 71.9385C11.0439 73.016 10.6611 73.8725 10.1961 74.6738C9.67652 75.4474 9.07488 76.1658 8.11769 76.6631C8.17239 75.5855 8.55523 74.729 9.02014 73.9278C9.53976 73.1542 10.1414 72.4358 11.0986 71.9385Z" fill="#ED94AB"/>
<path d="M11.0986 71.9385L13.2278 72.0466L13.4163 68.3318L10.1157 70.0467L11.0986 71.9385ZM10.1961 74.6738L11.9659 75.8624L12.0049 75.8043L12.0401 75.7437L10.1961 74.6738ZM8.11769 76.6631L5.98856 76.555L5.8 80.2697L9.1006 78.5548L8.11769 76.6631ZM9.02014 73.9278L7.25042 72.7391L7.21136 72.7973L7.17621 72.8579L9.02014 73.9278ZM11.0986 71.9385L8.96951 71.8304C8.93928 72.4259 8.73751 72.9398 8.3522 73.6038L10.1961 74.6738L12.0401 75.7437C12.5846 74.8053 13.1486 73.6061 13.2278 72.0466L11.0986 71.9385ZM10.1961 74.6738L8.42641 73.4851C7.99386 74.1291 7.63467 74.5116 7.13479 74.7713L8.11769 76.6631L9.1006 78.5548C10.5151 77.8199 11.3592 76.7657 11.9659 75.8624L10.1961 74.6738ZM8.11769 76.6631L10.2468 76.7712C10.277 76.1756 10.4788 75.6617 10.8641 74.9977L9.02014 73.9278L7.17621 72.8579C6.63164 73.7964 6.06773 74.9955 5.98856 76.555L8.11769 76.6631ZM9.02014 73.9278L10.7899 75.1165C11.2224 74.4725 11.5816 74.09 12.0815 73.8302L11.0986 71.9385L10.1157 70.0467C8.70127 70.7816 7.85713 71.8358 7.25042 72.7391L9.02014 73.9278Z" fill="#F974AB" mask="url(#path-26-inside-12_576_934)"/>
<path d="M15.9399 46.2549C15.4817 46.2549 15.0915 45.8772 15.0913 45.3877C15.0913 44.8979 15.4816 44.5195 15.9399 44.5195C16.3982 44.5197 16.7876 44.8981 16.7876 45.3877C16.7874 45.8771 16.398 46.2547 15.9399 46.2549Z" fill="#ED94AB" stroke="#F974AB" stroke-width="2.13187"/>
<path d="M6.12207 58.6875C5.66388 58.6875 5.27367 58.3098 5.27344 57.8203C5.27344 57.3306 5.66374 56.9521 6.12207 56.9521C6.58027 56.9523 6.96973 57.3307 6.96973 57.8203C6.96949 58.3097 6.58013 58.6873 6.12207 58.6875Z" fill="#ED94AB" stroke="#F974AB" stroke-width="2.13187"/>
<path d="M14.0259 70.8721C13.5677 70.8721 13.1775 70.4944 13.1772 70.0049C13.1772 69.5151 13.5675 69.1367 14.0259 69.1367C14.4841 69.1369 14.8735 69.5152 14.8735 70.0049C14.8733 70.4943 14.4839 70.8719 14.0259 70.8721Z" fill="#ED94AB" stroke="#F974AB" stroke-width="2.13187"/>
<path d="M7.32568 79.0225C6.86749 79.0225 6.47729 78.6448 6.47705 78.1553C6.47705 77.6655 6.86737 77.2871 7.32568 77.2871C7.78387 77.2873 8.17334 77.6656 8.17334 78.1553C8.1731 78.6447 7.78374 79.0223 7.32568 79.0225Z" fill="#ED94AB" stroke="#F974AB" stroke-width="2.13187"/>
<path d="M8.93896 29.5664C8.48077 29.5664 8.09057 29.1888 8.09033 28.6992C8.09033 28.2095 8.48063 27.8311 8.93896 27.8311C9.39718 27.8312 9.78662 28.2096 9.78662 28.6992C9.78638 29.1886 9.39704 29.5662 8.93896 29.5664Z" fill="#ED94AB" stroke="#F974AB" stroke-width="2.13187"/>
<path d="M17.4985 21.9404C17.0404 21.9404 16.6501 21.5628 16.6499 21.0732C16.6499 20.5835 17.0402 20.2051 17.4985 20.2051C17.9567 20.2052 18.3462 20.5836 18.3462 21.0732C18.3459 21.5627 17.9566 21.9403 17.4985 21.9404Z" fill="#ED94AB" stroke="#F974AB" stroke-width="2.13187"/>
</g>
</svg>
