<svg width="95" height="21" viewBox="0 0 95 21" fill="none" xmlns="http://www.w3.org/2000/svg">
<g opacity="0.64">
<path d="M82.0796 11.5914C71.3871 11.0991 60.6669 10.6068 49.9468 10.9897C33.5626 11.5914 17.0404 14.2715 0.877251 11.564" fill="#ED94AB"/>
<path d="M82.0796 11.5914C71.3871 11.0991 60.6669 10.6068 49.9468 10.9897C33.5626 11.5914 17.0404 14.2715 0.877249 11.564" stroke="#F974AB" stroke-width="1.06593" stroke-miterlimit="10"/>
<path d="M80.9468 11.4275L88.2685 13.6427C89.7881 14.1076 91.4182 14.5726 92.9102 13.9983C93.6286 13.7248 94.2917 13.0957 94.2088 12.3573C94.1535 11.6463 93.4628 11.1814 92.8273 10.8806C89.1526 9.07558 84.5386 9.34907 80.9468 11.4002L80.9468 11.4275Z" fill="#ED94AB" stroke="#F974AB" stroke-width="1.06593" stroke-miterlimit="10"/>
<mask id="path-4-inside-1_576_913" fill="white">
<path d="M74.1222 11.3183C75.7799 11.9473 77.2995 12.7951 78.5705 13.8617C79.206 14.4086 79.8138 14.983 80.3111 15.6393C80.8913 16.2957 81.0571 16.87 80.7808 16.952C80.5045 17.2255 79.7862 17.0614 79.0125 16.6785C78.2665 16.3504 77.5758 15.8854 76.8851 15.3932C75.5865 14.3813 74.509 13.0139 74.0945 11.2909L74.1222 11.3183ZM74.1222 11.3183C73.9288 13.1233 74.8958 14.9283 76.1944 16.1863C76.8298 16.87 77.6035 17.3896 78.4323 17.8272C78.8468 18.0459 79.2612 18.2648 79.8138 18.3742C80.3664 18.5109 81.0847 18.4562 81.6373 18.0186C82.2452 17.6084 82.4109 16.6239 82.1623 16.1043C81.9689 15.5299 81.6097 15.1197 81.3058 14.7915C80.6703 14.1078 79.9796 13.5062 79.2059 13.0139C77.6863 12.002 75.9181 11.373 74.1222 11.2909L74.1222 11.3183Z"/>
</mask>
<path d="M74.1222 11.3183C75.7799 11.9473 77.2995 12.7951 78.5705 13.8617C79.206 14.4086 79.8138 14.983 80.3111 15.6393C80.8913 16.2957 81.0571 16.87 80.7808 16.952C80.5045 17.2255 79.7862 17.0614 79.0125 16.6785C78.2665 16.3504 77.5758 15.8854 76.8851 15.3932C75.5865 14.3813 74.509 13.0139 74.0945 11.2909L74.1222 11.3183ZM74.1222 11.3183C73.9288 13.1233 74.8958 14.9283 76.1944 16.1863C76.8298 16.87 77.6035 17.3896 78.4323 17.8272C78.8468 18.0459 79.2612 18.2648 79.8138 18.3742C80.3664 18.5109 81.0847 18.4562 81.6373 18.0186C82.2452 17.6084 82.4109 16.6239 82.1623 16.1043C81.9689 15.5299 81.6097 15.1197 81.3058 14.7915C80.6703 14.1078 79.9796 13.5062 79.2059 13.0139C77.6863 12.002 75.9181 11.373 74.1222 11.2909L74.1222 11.3183Z" fill="#ED94AB"/>
<path d="M78.5705 13.8617L79.9409 12.2287L79.9511 12.2372L79.9612 12.2459L78.5705 13.8617ZM80.3111 15.6393L78.7139 17.0513L78.6605 16.991L78.6119 16.9268L80.3111 15.6393ZM80.7808 16.952L79.2811 15.4369L79.6612 15.0606L80.1739 14.9084L80.7808 16.952ZM79.0125 16.6785L79.871 14.7272L79.915 14.7465L79.9582 14.7679L79.0125 16.6785ZM76.8851 15.3932L75.6478 17.1293L75.6107 17.1028L75.5747 17.0748L76.8851 15.3932ZM74.0945 11.2909L72.0218 11.7895L70.2684 4.50006L75.5948 9.77638L74.0945 11.2909ZM76.1944 16.1863L77.6777 14.6551L77.7179 14.694L77.7559 14.7349L76.1944 16.1863ZM79.8138 18.3742L80.2278 16.2829L80.2771 16.2926L80.3259 16.3047L79.8138 18.3742ZM81.6373 18.0186L80.3139 16.3473L80.3775 16.2969L80.4448 16.2515L81.6373 18.0186ZM82.1623 16.1043L80.2393 17.0245L80.1833 16.9075L80.1419 16.7846L82.1623 16.1043ZM81.3058 14.7915L82.8673 13.3401L82.8699 13.343L81.3058 14.7915ZM79.2059 13.0139L78.0615 14.8125L78.0428 14.8006L78.0244 14.7884L79.2059 13.0139ZM74.1222 11.2909L71.9903 11.2909L71.9903 9.05946L74.2195 9.1613L74.1222 11.2909ZM74.1222 11.3183L74.8785 9.32511C76.7213 10.0243 78.4579 10.9841 79.9409 12.2287L78.5705 13.8617L77.2 15.4947C76.1412 14.6061 74.8386 13.8703 73.3659 13.3115L74.1222 11.3183ZM78.5705 13.8617L79.9612 12.2459C80.6356 12.8263 81.3771 13.5162 82.0103 14.3519L80.3111 15.6393L78.6119 16.9268C78.2505 16.4498 77.7763 15.9909 77.1798 15.4775L78.5705 13.8617ZM80.3111 15.6393L81.9084 14.2274C82.3082 14.6796 82.6858 15.2316 82.8875 15.8307C82.9806 16.1069 83.1115 16.6105 83.0006 17.1992C82.8623 17.9333 82.3388 18.7133 81.3877 18.9957L80.7808 16.952L80.1739 14.9084C79.8377 15.0082 79.4967 15.2106 79.2285 15.5312C78.9702 15.8401 78.8566 16.1656 78.8105 16.41C78.7281 16.8475 78.8332 17.1511 78.8468 17.1914C78.8897 17.3188 78.8943 17.2554 78.7139 17.0513L80.3111 15.6393ZM80.7808 16.952L82.2805 18.4672C81.3455 19.3927 80.1274 19.2338 79.7137 19.161C79.1299 19.0583 78.5548 18.8307 78.0669 18.5892L79.0125 16.6785L79.9582 14.7679C80.2439 14.9093 80.4148 14.9552 80.4527 14.9618C80.4712 14.9651 80.37 14.9428 80.1919 14.9686C80.0091 14.995 79.63 15.0915 79.2811 15.4369L80.7808 16.952ZM79.0125 16.6785L78.1541 18.6299C77.1922 18.2068 76.3493 17.6292 75.6478 17.1293L76.8851 15.3932L78.1224 13.6571C78.8023 14.1417 79.3409 14.4939 79.871 14.7272L79.0125 16.6785ZM76.8851 15.3932L75.5747 17.0748C74.0041 15.8509 72.5776 14.1001 72.0218 11.7895L74.0945 11.2909L76.1673 10.7924C76.4404 11.9277 77.169 12.9117 78.1955 13.7116L76.8851 15.3932ZM74.0945 11.2909L75.5948 9.77638L75.6225 9.80375L74.1222 11.3183L72.6219 12.8329L72.5942 12.8055L74.0945 11.2909ZM74.1222 11.3183L76.2419 11.5455C76.1432 12.4666 76.654 13.6633 77.6777 14.6551L76.1944 16.1863L74.711 17.7175C73.1376 16.1932 71.7143 13.78 72.0024 11.0912L74.1222 11.3183ZM76.1944 16.1863L77.7559 14.7349C78.1722 15.1828 78.7226 15.5697 79.4276 15.9419L78.4323 17.8272L77.4371 19.7125C76.4843 19.2095 75.4875 18.5572 74.6328 17.6377L76.1944 16.1863ZM78.4323 17.8272L79.4276 15.9419C79.8519 16.1659 80.0163 16.241 80.2278 16.2829L79.8138 18.3742L79.3998 20.4654C78.5061 20.2885 77.8417 19.926 77.4371 19.7125L78.4323 17.8272ZM79.8138 18.3742L80.3259 16.3047C80.329 16.3055 80.3397 16.3076 80.3548 16.3083C80.3696 16.309 80.3805 16.308 80.3859 16.3071C80.3909 16.3063 80.3854 16.3066 80.3717 16.3123C80.3571 16.3185 80.3362 16.3296 80.3139 16.3473L81.6373 18.0186L82.9608 19.6899C81.7653 20.6366 80.3212 20.6959 79.3017 20.4436L79.8138 18.3742ZM81.6373 18.0186L80.4448 16.2515C80.3052 16.3457 80.2293 16.4465 80.1943 16.5036C80.1599 16.5595 80.1501 16.5962 80.1472 16.6083C80.1443 16.6203 80.1398 16.6436 80.1423 16.6879C80.1444 16.7232 80.1551 16.8486 80.2393 17.0245L82.1623 16.1043L84.0853 15.184C84.4791 16.0069 84.4581 16.9113 84.2948 17.5966C84.1259 18.3054 83.7051 19.1951 82.8299 19.7857L81.6373 18.0186ZM82.1623 16.1043L80.1419 16.7846C80.104 16.6722 80.0242 16.5452 79.7416 16.2401L81.3058 14.7915L82.8699 13.343C83.1952 13.6942 83.8337 14.3877 84.1827 15.4239L82.1623 16.1043ZM81.3058 14.7915L79.7442 16.2429C79.2086 15.6666 78.6549 15.1901 78.0615 14.8125L79.2059 13.0139L80.3504 11.2153C81.3043 11.8222 82.132 12.549 82.8673 13.3401L81.3058 14.7915ZM79.2059 13.0139L78.0244 14.7884C76.7917 13.9676 75.3933 13.4831 74.0249 13.4206L74.1222 11.2909L74.2195 9.1613C76.4428 9.26287 78.581 10.0365 80.3875 11.2394L79.2059 13.0139ZM74.1222 11.2909L76.254 11.2909L76.254 11.3183L74.1222 11.3183L71.9903 11.3183L71.9903 11.2909L74.1222 11.2909Z" fill="#F974AB" mask="url(#path-4-inside-1_576_913)"/>
<mask id="path-6-inside-2_576_913" fill="white">
<path d="M65.9162 11.0713L71.6907 7.59807C72.7406 6.94171 73.7076 6.36737 74.647 5.51958C75.1167 5.08201 75.5312 4.53505 75.7522 3.85134C76.0285 3.22233 75.8627 1.99166 74.9233 1.58144C74.0668 1.22591 73.3485 1.44471 72.7406 1.63614C72.1604 1.85493 71.6078 2.10106 71.0829 2.40189C70.033 3.00355 69.0659 3.74196 68.3199 4.67179C66.7451 6.47677 65.8609 8.80139 65.9162 11.0986L65.9162 11.0713ZM65.9162 11.0713C66.4412 8.85606 67.5187 6.85968 69.0936 5.38287C69.8948 4.67182 70.7513 4.01544 71.7183 3.52318C72.6301 3.05826 73.8458 2.566 74.3431 2.81214C74.7299 2.81214 74.5089 3.9334 73.7353 4.58975C73.0169 5.32815 72.0223 5.92983 71.2486 6.61353C69.5909 7.95359 67.9055 9.48508 65.9162 11.0439L65.9162 11.0713Z"/>
</mask>
<path d="M65.9162 11.0713L71.6907 7.59807C72.7406 6.94171 73.7076 6.36737 74.647 5.51958C75.1167 5.08201 75.5312 4.53505 75.7522 3.85134C76.0285 3.22233 75.8627 1.99166 74.9233 1.58144C74.0668 1.22591 73.3485 1.44471 72.7406 1.63614C72.1604 1.85493 71.6078 2.10106 71.0829 2.40189C70.033 3.00355 69.0659 3.74196 68.3199 4.67179C66.7451 6.47677 65.8609 8.80139 65.9162 11.0986L65.9162 11.0713ZM65.9162 11.0713C66.4412 8.85606 67.5187 6.85968 69.0936 5.38287C69.8948 4.67182 70.7513 4.01544 71.7183 3.52318C72.6301 3.05826 73.8458 2.566 74.3431 2.81214C74.7299 2.81214 74.5089 3.9334 73.7353 4.58975C73.0169 5.32815 72.0223 5.92983 71.2486 6.61353C69.5909 7.95359 67.9055 9.48508 65.9162 11.0439L65.9162 11.0713Z" fill="#ED94AB"/>
<path d="M71.6907 7.59807L72.8208 9.40576L72.8052 9.41549L72.7895 9.42495L71.6907 7.59807ZM74.647 5.51958L76.1002 7.07944L76.0879 7.09093L76.0753 7.10223L74.647 5.51958ZM75.7522 3.85134L73.7237 3.19555L73.7569 3.09283L73.8003 2.99398L75.7522 3.85134ZM74.9233 1.58144L75.7406 -0.387543L75.7586 -0.380071L75.7765 -0.372272L74.9233 1.58144ZM72.7406 1.63614L71.9884 -0.35862L72.0438 -0.379491L72.1002 -0.39726L72.7406 1.63614ZM68.3199 4.67179L69.9828 6.00587L69.9553 6.04021L69.9263 6.07338L68.3199 4.67179ZM65.9162 11.0986L68.0481 11.0986L63.7849 11.1499L65.9162 11.0986ZM69.0936 5.38287L67.6353 3.82778L67.6566 3.80776L67.6785 3.78834L69.0936 5.38287ZM71.7183 3.52318L72.6868 5.42239L72.6855 5.42305L71.7183 3.52318ZM74.3431 2.81214L74.3431 4.94401L73.8444 4.94401L73.3975 4.72281L74.3431 2.81214ZM73.7353 4.58975L72.2072 3.10317L72.2783 3.0301L72.3561 2.96414L73.7353 4.58975ZM71.2486 6.61353L72.6604 8.21096L72.6253 8.242L72.5888 8.27146L71.2486 6.61353ZM65.9162 11.0439L63.7843 11.0439L63.7843 10.006L64.6013 9.36589L65.9162 11.0439ZM65.9162 11.0713L64.8174 9.24438L70.5919 5.77119L71.6907 7.59807L72.7895 9.42495L67.015 12.8981L65.9162 11.0713ZM71.6907 7.59807L70.5606 5.79037C71.6673 5.09854 72.4494 4.63122 73.2187 3.93694L74.647 5.51958L76.0753 7.10223C74.9659 8.10353 73.8139 8.78489 72.8208 9.40576L71.6907 7.59807ZM74.647 5.51958L73.1939 3.95972C73.477 3.69591 73.6435 3.44378 73.7237 3.19555L75.7522 3.85134L77.7807 4.50713C77.4189 5.62631 76.7564 6.46811 76.1002 7.07944L74.647 5.51958ZM75.7522 3.85134L73.8003 2.99398C73.7688 3.06577 73.755 3.11921 73.749 3.14772C73.7427 3.17748 73.7415 3.19532 73.7413 3.2015C73.7409 3.2097 73.7412 3.21071 73.743 3.21701C73.745 3.22404 73.7588 3.27036 73.81 3.3357C73.8671 3.40853 73.9565 3.48551 74.0702 3.53515L74.9233 1.58144L75.7765 -0.372272C76.9749 0.151064 77.5941 1.17109 77.8443 2.05167C78.0806 2.88328 78.0737 3.86721 77.7041 4.7087L75.7522 3.85134ZM74.9233 1.58144L74.106 3.55042C74.0418 3.52375 74.0038 3.52001 73.9388 3.52614C73.8302 3.53638 73.6993 3.56931 73.381 3.66955L72.7406 1.63614L72.1002 -0.39726C72.7135 -0.590414 74.1092 -1.06472 75.7406 -0.387543L74.9233 1.58144ZM72.7406 1.63614L73.4928 3.63091C72.987 3.82163 72.5435 4.02195 72.1428 4.25157L71.0829 2.40189L70.0229 0.552211C70.6721 0.180168 71.3338 -0.111768 71.9884 -0.35862L72.7406 1.63614ZM71.0829 2.40189L72.1428 4.25157C71.2466 4.76519 70.5137 5.34417 69.9828 6.00587L68.3199 4.67179L66.6571 3.33772C67.6182 2.13975 68.8193 1.24192 70.0229 0.552211L71.0829 2.40189ZM68.3199 4.67179L69.9263 6.07338C68.676 7.50637 68.0059 9.32107 68.0474 11.0474L65.9162 11.0986L63.7849 11.1499C63.716 8.28171 64.8141 5.44718 66.7136 3.27021L68.3199 4.67179ZM65.9162 11.0986L63.7843 11.0986L63.7843 11.0713L65.9162 11.0713L68.0481 11.0713L68.0481 11.0986L65.9162 11.0986ZM65.9162 11.0713L63.8418 10.5797C64.4495 8.01512 65.7144 5.6291 67.6353 3.82778L69.0936 5.38287L70.5518 6.93797C69.323 8.09025 68.4328 9.69699 67.9906 11.5629L65.9162 11.0713ZM69.0936 5.38287L67.6785 3.78834C68.5503 3.01474 69.5598 2.22977 70.7512 1.62331L71.7183 3.52318L72.6855 5.42305C71.9428 5.80111 71.2394 6.3289 70.5086 6.97741L69.0936 5.38287ZM71.7183 3.52318L70.7499 1.62396C71.2578 1.36496 71.9085 1.06727 72.5487 0.866663C72.8665 0.767101 73.2493 0.669705 73.65 0.631684C74.0053 0.597979 74.6433 0.582033 75.2887 0.901466L74.3431 2.81214L73.3975 4.72281C73.6124 4.82917 73.7934 4.8611 73.8893 4.87176C73.9873 4.88266 74.0468 4.87692 74.0528 4.87636C74.0572 4.87594 73.9858 4.88451 73.8235 4.93536C73.5037 5.03558 73.0906 5.21647 72.6868 5.42239L71.7183 3.52318ZM74.3431 2.81214L74.3431 0.68027C74.9674 0.68027 75.5808 0.932645 76.0268 1.41612C76.4189 1.84128 76.5605 2.31101 76.6156 2.60551C76.7229 3.17909 76.6204 3.70404 76.5241 4.04087C76.3163 4.76761 75.8535 5.58835 75.1145 6.21537L73.7353 4.58975L72.3561 2.96414C72.3906 2.9348 72.4252 2.86673 72.4246 2.86876C72.4213 2.88028 72.4102 2.92146 72.4033 2.99108C72.3972 3.05214 72.3882 3.19506 72.4246 3.38967C72.4581 3.5688 72.5595 3.94581 72.8928 4.30708C73.2798 4.72667 73.8155 4.94401 74.3431 4.94401L74.3431 2.81214ZM73.7353 4.58975L75.2633 6.07633C74.7793 6.57389 74.2339 6.99426 73.7963 7.32424C73.3142 7.68787 72.9671 7.93994 72.6604 8.21096L71.2486 6.61353L69.8369 5.01611C70.3038 4.60343 70.8409 4.2128 71.229 3.92007C71.6618 3.59368 71.9729 3.34402 72.2072 3.10317L73.7353 4.58975ZM71.2486 6.61353L72.5888 8.27146C71.786 8.92042 70.9778 9.61464 70.087 10.3714C69.2059 11.1199 68.2607 11.9152 67.2311 12.722L65.9162 11.0439L64.6013 9.36589C65.561 8.6138 66.4531 7.86393 67.3265 7.12196C68.1901 6.38826 69.0535 5.64671 69.9084 4.95561L71.2486 6.61353ZM65.9162 11.0439L68.0481 11.0439L68.0481 11.0713L65.9162 11.0713L63.7843 11.0713L63.7843 11.0439L65.9162 11.0439Z" fill="#F974AB" mask="url(#path-6-inside-2_576_913)"/>
<mask id="path-8-inside-3_576_913" fill="white">
<path d="M53.4558 10.8252C55.7214 11.3448 58.0146 11.7003 60.1144 12.4934C61.1643 12.9036 62.159 13.3685 63.0431 13.9976C63.9273 14.5719 64.4522 15.4196 64.0378 15.9119C63.651 16.5409 62.6563 16.6777 61.634 16.3768C60.5841 16.1033 59.5618 15.6658 58.5672 15.1735C56.6055 14.1343 54.8925 12.6028 53.4558 10.7978L53.4558 10.8252ZM53.4558 10.8252C54.3952 12.931 55.9977 14.7907 58.0146 16.1034C59.0093 16.7871 60.1144 17.252 61.2749 17.6349C62.38 18.0177 64.2035 18.0724 65.1706 16.6503C65.6679 15.9666 65.585 14.9547 65.1706 14.3257C64.7838 13.6967 64.2588 13.2592 63.7339 12.931C62.6839 12.302 61.5788 11.7823 60.4184 11.5089C58.0975 10.8799 55.749 10.7705 53.4281 10.8252L53.4558 10.8252Z"/>
</mask>
<path d="M53.4558 10.8252C55.7214 11.3448 58.0146 11.7003 60.1144 12.4934C61.1643 12.9036 62.159 13.3685 63.0431 13.9976C63.9273 14.5719 64.4522 15.4196 64.0378 15.9119C63.651 16.5409 62.6563 16.6777 61.634 16.3768C60.5841 16.1033 59.5618 15.6658 58.5672 15.1735C56.6055 14.1343 54.8925 12.6028 53.4558 10.7978L53.4558 10.8252ZM53.4558 10.8252C54.3952 12.931 55.9977 14.7907 58.0146 16.1034C59.0093 16.7871 60.1144 17.252 61.2749 17.6349C62.38 18.0177 64.2035 18.0724 65.1706 16.6503C65.6679 15.9666 65.585 14.9547 65.1706 14.3257C64.7838 13.6967 64.2588 13.2592 63.7339 12.931C62.6839 12.302 61.5788 11.7823 60.4184 11.5089C58.0975 10.8799 55.749 10.7705 53.4281 10.8252L53.4558 10.8252Z" fill="#ED94AB"/>
<path d="M60.1144 12.4934L60.8677 10.499L60.879 10.5033L60.8903 10.5077L60.1144 12.4934ZM63.0431 13.9976L61.8818 15.7854L61.844 15.7608L61.8073 15.7347L63.0431 13.9976ZM64.0378 15.9119L62.2218 14.7952L62.3048 14.6602L62.4069 14.5389L64.0378 15.9119ZM61.634 16.3768L62.1714 14.3138L62.2038 14.3222L62.2359 14.3317L61.634 16.3768ZM58.5672 15.1735L57.6216 17.0842L57.5952 17.0711L57.5692 17.0573L58.5672 15.1735ZM53.4558 10.7978L51.3239 10.7978L51.3239 4.69633L55.1238 9.47015L53.4558 10.7978ZM58.0146 16.1034L59.1775 14.3166L59.2001 14.3313L59.2222 14.3465L58.0146 16.1034ZM61.2749 17.6349L61.9428 15.6103L61.9578 15.6153L61.9727 15.6205L61.2749 17.6349ZM65.1706 16.6503L63.4077 15.4516L63.4267 15.4236L63.4466 15.3963L65.1706 16.6503ZM65.1706 14.3257L63.3904 15.4986L63.372 15.4708L63.3546 15.4425L65.1706 14.3257ZM63.7339 12.931L64.8295 11.1022L64.8468 11.1126L64.8639 11.1233L63.7339 12.931ZM60.4184 11.5089L59.9293 13.5839L59.8949 13.5758L59.8607 13.5665L60.4184 11.5089ZM53.4281 10.8252L53.4281 12.957L53.3779 8.69388L53.4281 10.8252ZM53.4558 10.8252L53.9323 8.74724C55.9922 9.21967 58.5874 9.63777 60.8677 10.499L60.1144 12.4934L59.3612 14.4878C57.4418 13.7628 55.4505 13.4699 52.9792 12.9031L53.4558 10.8252ZM60.1144 12.4934L60.8903 10.5077C62.0125 10.9462 63.1903 11.4859 64.279 12.2604L63.0431 13.9976L61.8073 15.7347C61.1277 15.2512 60.3162 14.861 59.3386 14.4791L60.1144 12.4934ZM63.0431 13.9976L64.2044 12.2098C64.8519 12.6303 65.4913 13.2236 65.8953 13.9579C66.2772 14.652 66.7014 16.0582 65.6686 17.2849L64.0378 15.9119L62.4069 14.5389C62.1422 14.8533 62.0411 15.2328 62.0506 15.5501C62.0589 15.8246 62.1447 15.9861 62.1596 16.0131C62.1837 16.0569 62.1185 15.9391 61.8818 15.7854L63.0431 13.9976ZM64.0378 15.9119L65.8538 17.0287C65.2442 18.0199 64.2596 18.4482 63.4459 18.5923C62.6281 18.7371 61.7849 18.6435 61.0322 18.422L61.634 16.3768L62.2359 14.3317C62.3616 14.3687 62.4714 14.3876 62.5584 14.3946C62.6471 14.4018 62.6945 14.3953 62.7026 14.3938C62.7121 14.3922 62.6538 14.4004 62.5591 14.4563C62.4575 14.5163 62.3265 14.625 62.2218 14.7952L64.0378 15.9119ZM61.634 16.3768L61.0966 18.4399C59.8463 18.1142 58.6768 17.6064 57.6216 17.0842L58.5672 15.1735L59.5128 13.2628C60.4469 13.7251 61.3219 14.0925 62.1714 14.3138L61.634 16.3768ZM58.5672 15.1735L57.5692 17.0573C55.298 15.8541 53.3681 14.1108 51.7878 12.1255L53.4558 10.7978L55.1238 9.47015C56.4169 11.0948 57.913 12.4144 59.5652 13.2897L58.5672 15.1735ZM53.4558 10.7978L55.5876 10.7978L55.5876 10.8252L53.4558 10.8252L51.3239 10.8252L51.3239 10.7978L53.4558 10.7978ZM53.4558 10.8252L55.4027 9.95664C56.1683 11.6728 57.4915 13.2192 59.1775 14.3166L58.0146 16.1034L56.8517 17.8901C54.5039 16.3621 52.6221 14.1892 51.5088 11.6937L53.4558 10.8252ZM58.0146 16.1034L59.2222 14.3465C59.9842 14.8703 60.8786 15.2592 61.9428 15.6103L61.2749 17.6349L60.6069 19.6594C59.3502 19.2448 58.0343 18.7038 56.807 17.8602L58.0146 16.1034ZM61.2749 17.6349L61.9727 15.6205C62.2522 15.7173 62.6246 15.7653 62.9324 15.7152C63.197 15.6722 63.3195 15.5812 63.4077 15.4516L65.1706 16.6503L66.9335 17.8491C66.0546 19.1416 64.7819 19.7343 63.6166 19.9237C62.4946 20.1061 61.4027 19.9353 60.577 19.6493L61.2749 17.6349ZM65.1706 16.6503L63.4466 15.3963C63.4062 15.4518 63.39 15.4971 63.3843 15.5175C63.3791 15.5363 63.3817 15.5373 63.3813 15.5205C63.3808 15.5035 63.3777 15.4851 63.3736 15.4715C63.3692 15.4567 63.3697 15.4672 63.3904 15.4986L65.1706 14.3257L66.9508 13.1528C67.7595 14.3802 68.0086 16.3729 66.8946 17.9044L65.1706 16.6503ZM65.1706 14.3257L63.3546 15.4425C63.1932 15.1799 62.9509 14.9557 62.6038 14.7387L63.7339 12.931L64.8639 11.1233C65.5668 11.5626 66.3744 12.2135 66.9865 13.209L65.1706 14.3257ZM63.7339 12.931L62.6382 14.7598C61.7005 14.198 60.8041 13.7901 59.9293 13.5839L60.4184 11.5089L60.9074 9.43384C62.3534 9.77463 63.6673 10.4059 64.8295 11.1022L63.7339 12.931ZM60.4184 11.5089L59.8607 13.5665C57.8249 13.0147 55.7097 12.9038 53.4784 12.9564L53.4281 10.8252L53.3779 8.69388C55.7883 8.63707 58.3701 8.74495 60.976 9.45122L60.4184 11.5089ZM53.4281 10.8252L53.4281 8.69329L53.4558 8.69329L53.4558 10.8252L53.4558 12.957L53.4281 12.957L53.4281 10.8252Z" fill="#F974AB" mask="url(#path-8-inside-3_576_913)"/>
<mask id="path-10-inside-4_576_913" fill="white">
<path d="M41.3265 11.9746C44.1171 11.0994 46.7971 9.78673 49.2561 8.17318C50.4718 7.38009 51.7151 6.50495 52.7098 5.27428C53.2071 4.67262 53.6215 3.93423 53.8426 3.14113C54.036 2.43008 54.257 1.25409 53.2624 0.433644C52.323 -0.25006 51.1902 -0.00392329 50.4718 0.351603C49.7258 0.70713 49.1456 1.09001 48.5101 1.47289C47.2668 2.26599 46.0511 3.14114 44.9736 4.18037C43.8961 5.2196 42.9014 6.36821 42.2383 7.70827C41.6028 9.04833 41.2436 10.5525 41.3265 12.002L41.3265 11.9746ZM41.3265 11.9746C41.7133 9.04832 43.454 6.6964 45.6643 4.94612C46.7695 4.07098 47.9576 3.27785 49.2009 2.5668C50.4166 1.85575 51.8257 0.92591 52.4059 1.50022C52.6269 1.60961 52.7098 2.18396 52.544 2.81296C52.4059 3.41462 52.0743 3.96157 51.6875 4.50854C50.8863 5.57512 49.7535 6.45024 48.6207 7.35273C46.3551 9.10301 43.8961 10.6345 41.3265 12.002L41.3265 11.9746Z"/>
</mask>
<path d="M41.3265 11.9746C44.1171 11.0994 46.7971 9.78673 49.2561 8.17318C50.4718 7.38009 51.7151 6.50495 52.7098 5.27428C53.2071 4.67262 53.6215 3.93423 53.8426 3.14113C54.036 2.43008 54.257 1.25409 53.2624 0.433644C52.323 -0.25006 51.1902 -0.00392329 50.4718 0.351603C49.7258 0.70713 49.1456 1.09001 48.5101 1.47289C47.2668 2.26599 46.0511 3.14114 44.9736 4.18037C43.8961 5.2196 42.9014 6.36821 42.2383 7.70827C41.6028 9.04833 41.2436 10.5525 41.3265 12.002L41.3265 11.9746ZM41.3265 11.9746C41.7133 9.04832 43.454 6.6964 45.6643 4.94612C46.7695 4.07098 47.9576 3.27785 49.2009 2.5668C50.4166 1.85575 51.8257 0.92591 52.4059 1.50022C52.6269 1.60961 52.7098 2.18396 52.544 2.81296C52.4059 3.41462 52.0743 3.96157 51.6875 4.50854C50.8863 5.57512 49.7535 6.45024 48.6207 7.35273C46.3551 9.10301 43.8961 10.6345 41.3265 12.002L41.3265 11.9746Z" fill="#ED94AB"/>
<path d="M41.3265 12.002L40.2606 12.002L40.2606 11.9746L41.3265 11.9746L42.3925 11.9746L42.3925 12.002L41.3265 12.002ZM41.3265 11.9746L41.9645 14.0088L38.775 15.009L39.2131 11.6952L41.3265 11.9746ZM49.2561 8.17318L48.0866 6.39077L48.0913 6.38768L49.2561 8.17318ZM52.7098 5.27428L51.0518 3.93422L51.0591 3.92509L51.0666 3.91604L52.7098 5.27428ZM53.8426 3.14113L55.8997 3.70067L55.8962 3.71346L53.8426 3.14113ZM53.2624 0.433644L54.5169 -1.29003L54.5691 -1.25203L54.6189 -1.21094L53.2624 0.433644ZM50.4718 0.351603L51.4174 2.26227L51.4033 2.26929L51.389 2.27609L50.4718 0.351603ZM48.5101 1.47289L47.3636 -0.324444L47.3866 -0.339095L47.4099 -0.353154L48.5101 1.47289ZM42.2383 7.70827L40.3121 6.79482L40.3197 6.77873L40.3276 6.76278L42.2383 7.70827ZM41.3265 12.002L42.3281 13.8839L39.3883 15.4484L39.1981 12.1237L41.3265 12.002ZM49.2009 2.5668L50.2772 4.40701L50.2682 4.41225L50.2592 4.4174L49.2009 2.5668ZM52.4059 1.50022L51.4603 3.41089L51.1512 3.25794L50.9061 3.01537L52.4059 1.50022ZM52.544 2.81296L50.4662 2.33588L50.4738 2.30264L50.4825 2.26966L52.544 2.81296ZM51.6875 4.50854L53.4281 5.73947L53.4104 5.7645L53.392 5.789L51.6875 4.50854ZM48.6207 7.35273L49.9491 9.02013L49.9366 9.03005L49.924 9.03979L48.6207 7.35273ZM41.3265 11.9746L40.6886 9.9404C43.2728 9.12996 45.7754 7.90731 48.0866 6.39078L49.2561 8.17318L50.4257 9.95559C47.8189 11.6661 44.9614 13.0689 41.9645 14.0088L41.3265 11.9746ZM49.2561 8.17318L48.0913 6.38768C49.2847 5.60915 50.2824 4.8861 51.0518 3.93422L52.7098 5.27428L54.3678 6.61435C53.1479 8.1238 51.659 9.15102 50.421 9.95869L49.2561 8.17318ZM52.7098 5.27428L51.0666 3.91604C51.3982 3.51484 51.6579 3.03894 51.789 2.56879L53.8426 3.14113L55.8962 3.71346C55.5851 4.82951 55.016 5.83041 54.353 6.63252L52.7098 5.27428ZM53.8426 3.14113L51.7855 2.58159C51.8225 2.44529 51.8486 2.33066 51.8636 2.22724C51.8787 2.12346 51.8783 2.05843 51.8752 2.02474C51.8725 1.99563 51.8696 2.00864 51.8859 2.04172C51.905 2.08071 51.9237 2.09294 51.9058 2.07823L53.2624 0.433644L54.6189 -1.21094C56.7246 0.525986 56.0913 2.9963 55.8997 3.70066L53.8426 3.14113ZM53.2624 0.433644L52.0079 2.15732C51.9919 2.14573 51.9834 2.14273 51.9743 2.14026C51.9613 2.13677 51.9297 2.13056 51.8733 2.13292C51.7447 2.13829 51.5738 2.18486 51.4174 2.26227L50.4718 0.351603L49.5262 -1.55907C50.5402 -2.06094 52.6324 -2.66161 54.5169 -1.29003L53.2624 0.433644ZM50.4718 0.351603L51.389 2.27609C50.7666 2.57273 50.3276 2.86678 49.6103 3.29893L48.5101 1.47289L47.4099 -0.353154C47.9636 -0.686752 48.6851 -1.15847 49.5546 -1.57288L50.4718 0.351603ZM48.5101 1.47289L49.6566 3.27022C48.4754 4.02373 47.3894 4.81229 46.4535 5.71486L44.9736 4.18037L43.4937 2.64588C44.7129 1.46999 46.0583 0.508241 47.3636 -0.324444L48.5101 1.47289ZM44.9736 4.18037L46.4535 5.71486C45.4552 6.67767 44.6565 7.62833 44.149 8.65376L42.2383 7.70827L40.3276 6.76278C41.1464 5.10809 42.3369 3.76154 43.4937 2.64588L44.9736 4.18037ZM42.2383 7.70827L44.1646 8.62172C43.652 9.70269 43.3961 10.8515 43.4549 11.8802L41.3265 12.002L39.1981 12.1237C39.0912 10.2535 39.5537 8.39397 40.3121 6.79482L42.2383 7.70827ZM41.3265 11.9746L39.2131 11.6952C39.6943 8.05445 41.8478 5.24899 44.3409 3.2748L45.6643 4.94612L46.9878 6.61744C45.0602 8.14382 43.7324 10.0422 43.44 12.254L41.3265 11.9746ZM45.6643 4.94612L44.3409 3.2748C45.537 2.32761 46.8148 1.4755 48.1425 0.716195L49.2009 2.5668L50.2592 4.4174C49.1003 5.0802 48.002 5.81434 46.9878 6.61744L45.6643 4.94612ZM49.2009 2.5668L48.1245 0.72659C48.6332 0.429083 49.4629 -0.088249 50.1951 -0.405078C50.5678 -0.566355 51.0908 -0.757555 51.6712 -0.801256C52.2901 -0.847851 53.1812 -0.731995 53.9056 -0.014924L52.4059 1.50022L50.9061 3.01537C51.3405 3.44528 51.8379 3.462 51.9913 3.45045C52.1064 3.44178 52.0923 3.4198 51.8882 3.50807C51.7076 3.58624 51.4791 3.7057 51.1899 3.87081C50.8842 4.04532 50.6263 4.20284 50.2772 4.40701L49.2009 2.5668ZM52.4059 1.50022L53.3515 -0.410451C54.0159 -0.0816402 54.3388 0.462572 54.4818 0.77421C54.6379 1.11455 54.7063 1.44849 54.7374 1.71375C54.8003 2.25118 54.7463 2.82203 54.6055 3.35627L52.544 2.81296L50.4825 2.26966C50.5075 2.17489 50.4949 2.14407 50.5026 2.20972C50.506 2.2391 50.5227 2.36963 50.6063 2.55186C50.6767 2.70538 50.9064 3.13678 51.4603 3.41089L52.4059 1.50022ZM52.544 2.81296L54.6218 3.29004C54.3856 4.31873 53.8453 5.14951 53.4281 5.73947L51.6875 4.50854L49.9469 3.2776C50.3033 2.77364 50.4261 2.51052 50.4662 2.33588L52.544 2.81296ZM51.6875 4.50854L53.392 5.789C52.3914 7.12096 51.0065 8.17767 49.9491 9.02013L48.6207 7.35273L47.2923 5.68533C48.5004 4.72281 49.3811 4.02927 49.983 3.22807L51.6875 4.50854ZM48.6207 7.35273L49.924 9.03979C47.5451 10.8776 44.9808 12.4722 42.3281 13.8839L41.3265 12.002L40.325 10.12C42.8113 8.79687 45.165 7.32842 47.3173 5.66567L48.6207 7.35273Z" fill="#F974AB" mask="url(#path-10-inside-4_576_913)"/>
<mask id="path-12-inside-5_576_913" fill="white">
<path d="M24.4173 12.7399C26.2409 13.0681 27.9263 13.5057 29.5011 13.9159C31.0207 14.2715 32.7614 14.5723 34.3639 14.9825C35.994 15.3927 37.5965 15.8576 39.0608 16.5687C40.4147 17.1977 42.3487 18.401 41.8238 18.9753C41.6304 19.2761 40.7462 19.577 40.0279 19.6317C39.2819 19.7137 38.453 19.6317 37.6518 19.5223C36.0493 19.3035 34.4744 18.7292 32.9548 18.0729C29.9156 16.7055 27.2079 14.5996 24.3897 12.7126L24.4173 12.7399ZM24.4173 12.7399C26.8763 15.0645 29.4182 17.3891 32.5127 19.03C34.0323 19.8778 35.7177 20.4795 37.4583 20.8077C38.3425 20.9444 39.2266 21.0538 40.166 20.9717C41.1054 20.8076 42.0724 20.7803 42.9566 19.7411C43.7855 18.3463 42.6527 17.143 41.9343 16.7055C41.1883 16.1858 40.4147 15.7482 39.6134 15.3927C37.9833 14.6817 36.2979 14.2441 34.5849 13.9433C32.8719 13.6424 31.2418 13.451 29.3906 13.2322C27.6223 13.0681 25.937 12.9314 24.3897 12.7126L24.4173 12.7399Z"/>
</mask>
<path d="M24.4173 12.7399C26.2409 13.0681 27.9263 13.5057 29.5011 13.9159C31.0207 14.2715 32.7614 14.5723 34.3639 14.9825C35.994 15.3927 37.5965 15.8576 39.0608 16.5687C40.4147 17.1977 42.3487 18.401 41.8238 18.9753C41.6304 19.2761 40.7462 19.577 40.0279 19.6317C39.2819 19.7137 38.453 19.6317 37.6518 19.5223C36.0493 19.3035 34.4744 18.7292 32.9548 18.0729C29.9156 16.7055 27.2079 14.5996 24.3897 12.7126L24.4173 12.7399ZM24.4173 12.7399C26.8763 15.0645 29.4182 17.3891 32.5127 19.03C34.0323 19.8778 35.7177 20.4795 37.4583 20.8077C38.3425 20.9444 39.2266 21.0538 40.166 20.9717C41.1054 20.8076 42.0724 20.7803 42.9566 19.7411C43.7855 18.3463 42.6527 17.143 41.9343 16.7055C41.1883 16.1858 40.4147 15.7482 39.6134 15.3927C37.9833 14.6817 36.2979 14.2441 34.5849 13.9433C32.8719 13.6424 31.2418 13.451 29.3906 13.2322C27.6223 13.0681 25.937 12.9314 24.3897 12.7126L24.4173 12.7399Z" fill="#ED94AB"/>
<path d="M24.3897 12.7126L25.1396 11.955L25.1672 11.9824L24.4173 12.7399L23.6675 13.4975L23.6399 13.4702L24.3897 12.7126ZM24.4173 12.7399L22.9528 14.2891L17.7542 9.37466L24.7949 10.6418L24.4173 12.7399ZM29.5011 13.9159L29.0155 15.9917L28.9895 15.9857L28.9638 15.979L29.5011 13.9159ZM34.3639 14.9825L33.8436 17.0499L33.8352 17.0478L34.3639 14.9825ZM39.0608 16.5687L38.1626 18.5021L38.146 18.4944L38.1296 18.4864L39.0608 16.5687ZM41.8238 18.9753L40.0305 17.8224L40.1283 17.6704L40.2502 17.537L41.8238 18.9753ZM40.0279 19.6317L39.7948 17.5126L39.8304 17.5087L39.866 17.506L40.0279 19.6317ZM32.9548 18.0729L32.1095 20.03L32.0947 20.0236L32.0801 20.017L32.9548 18.0729ZM24.3897 12.7126L23.2036 14.484L24.6882 10.6017L24.3897 12.7126ZM32.5127 19.03L33.5114 17.1466L33.5315 17.1572L33.5514 17.1683L32.5127 19.03ZM37.4583 20.8077L37.1325 22.9145L37.0978 22.9091L37.0634 22.9026L37.4583 20.8077ZM40.166 20.9717L40.5329 23.0718L40.4427 23.0876L40.3515 23.0955L40.166 20.9717ZM42.9566 19.7411L44.7893 20.8302L44.6971 20.9852L44.5803 21.1225L42.9566 19.7411ZM41.9343 16.7055L40.8253 18.5261L40.7694 18.4921L40.7158 18.4548L41.9343 16.7055ZM39.6134 15.3927L40.4658 13.4386L40.4781 13.4441L39.6134 15.3927ZM29.3906 13.2322L29.5876 11.1095L29.6143 11.1119L29.6408 11.1151L29.3906 13.2322ZM24.4173 12.7399L24.7949 10.6418C26.7101 10.9864 28.4703 11.4444 30.0385 11.8529L29.5011 13.9159L28.9638 15.979C27.3823 15.567 25.7717 15.1498 24.0397 14.8381L24.4173 12.7399ZM29.5011 13.9159L29.9868 11.8401C30.7123 12.0098 31.4898 12.1664 32.3337 12.3411C33.161 12.5124 34.0392 12.6988 34.8926 12.9172L34.3639 14.9825L33.8352 17.0478C33.0861 16.856 32.2927 16.6868 31.4691 16.5163C30.6622 16.3492 29.8096 16.1775 29.0155 15.9917L29.5011 13.9159ZM34.3639 14.9825L34.8842 12.9151C36.5444 13.3329 38.3224 13.8402 39.9921 14.651L39.0608 16.5687L38.1296 18.4864C36.8706 17.8751 35.4436 17.4526 33.8436 17.0499L34.3639 14.9825ZM39.0608 16.5687L39.9591 14.6353C40.7193 14.9885 41.692 15.5227 42.446 16.1022C42.7953 16.3707 43.2723 16.7788 43.6056 17.3059C43.777 17.5767 44.0049 18.0256 44.0394 18.6065C44.0788 19.2694 43.8525 19.9157 43.3973 20.4136L41.8238 18.9753L40.2502 17.537C39.9263 17.8913 39.7544 18.3745 39.7832 18.8591C39.8071 19.2618 39.9595 19.5176 40.0022 19.585C40.0782 19.7053 40.0856 19.6656 39.8477 19.4828C39.4275 19.1599 38.7562 18.7779 38.1626 18.5021L39.0608 16.5687ZM41.8238 18.9753L43.617 20.1282C43.2986 20.6234 42.8643 20.9047 42.6435 21.0346C42.3743 21.193 42.0927 21.3131 41.8397 21.4035C41.3377 21.5828 40.7506 21.7147 40.1897 21.7574L40.0279 19.6317L39.866 17.506C39.9355 17.5007 40.0277 17.4877 40.1319 17.4651C40.2355 17.4425 40.3306 17.4149 40.4056 17.3881C40.4877 17.3588 40.5082 17.3439 40.4816 17.3596C40.4669 17.3683 40.4163 17.3988 40.3474 17.4569C40.2841 17.5102 40.1554 17.6282 40.0305 17.8224L41.8238 18.9753ZM40.0279 19.6317L40.2609 21.7508C39.234 21.8637 38.1804 21.7461 37.3634 21.6346L37.6518 19.5223L37.9401 17.41C38.7256 17.5173 39.3297 17.5637 39.7948 17.5126L40.0279 19.6317ZM37.6518 19.5223L37.3634 21.6346C35.4711 21.3762 33.6847 20.7103 32.1095 20.03L32.9548 18.0729L33.8001 16.1157C35.2641 16.7481 36.6274 17.2308 37.9401 17.41L37.6518 19.5223ZM32.9548 18.0729L32.0801 20.017C28.824 18.552 25.8473 16.2542 23.2036 14.484L24.3897 12.7126L25.5759 10.9412C28.5685 12.945 31.0072 14.8589 33.8295 16.1287L32.9548 18.0729ZM24.4173 12.7399L25.8819 11.1907C28.3489 13.5229 30.7025 15.6571 33.5114 17.1466L32.5127 19.03L31.514 20.9135C28.134 19.1212 25.4038 16.6062 22.9528 14.2891L24.4173 12.7399ZM32.5127 19.03L33.5514 17.1683C34.8626 17.8998 36.3295 18.4254 37.8533 18.7127L37.4583 20.8077L37.0634 22.9026C35.1059 22.5336 33.202 21.8558 31.474 20.8918L32.5127 19.03ZM37.4583 20.8077L37.7842 18.7008C38.6418 18.8335 39.3121 18.9063 39.9805 18.848L40.166 20.9717L40.3515 23.0955C39.1411 23.2012 38.0432 23.0553 37.1325 22.9145L37.4583 20.8077ZM40.166 20.9717L39.7992 18.8717C39.9387 18.8473 40.076 18.8259 40.1897 18.8081C40.31 18.7893 40.4081 18.7738 40.5024 18.7571C40.6895 18.724 40.8112 18.6945 40.9052 18.663C41.0413 18.6174 41.1648 18.5572 41.3328 18.3597L42.9566 19.7411L44.5803 21.1225C43.0961 22.8671 41.2231 22.9512 40.5329 23.0718L40.166 20.9717ZM42.9566 19.7411L41.1239 18.652C41.1379 18.6285 41.1341 18.6287 41.1276 18.652C41.1209 18.6758 41.1156 18.7086 41.1157 18.7457C41.1159 18.8223 41.1377 18.8549 41.1253 18.8305C41.1102 18.8009 41.0713 18.7415 40.999 18.6685C40.9265 18.5953 40.8572 18.5456 40.8253 18.5261L41.9343 16.7055L43.0433 14.8848C43.6507 15.2547 44.435 15.9323 44.926 16.8982C45.4725 17.973 45.6342 19.4084 44.7893 20.8302L42.9566 19.7411ZM41.9343 16.7055L40.7158 18.4548C40.077 18.0098 39.4215 17.6398 38.7488 17.3414L39.6134 15.3927L40.4781 13.4441C41.4079 13.8566 42.2996 14.3618 43.1528 14.9561L41.9343 16.7055ZM39.6134 15.3927L38.7611 17.3468C37.3308 16.7229 35.8192 16.3245 34.2162 16.043L34.5849 13.9433L34.9536 11.8435C36.7766 12.1637 38.6358 12.6404 40.4658 13.4386L39.6134 15.3927ZM34.5849 13.9433L34.2162 16.043C32.5723 15.7543 31.0024 15.5694 29.1404 15.3494L29.3906 13.2322L29.6408 11.1151C31.4812 11.3326 33.1715 11.5305 34.9536 11.8435L34.5849 13.9433ZM29.3906 13.2322L29.1936 15.355C27.4648 15.1945 25.7043 15.0516 24.0912 14.8235L24.3897 12.7126L24.6882 10.6017C26.1696 10.8112 27.7799 10.9417 29.5876 11.1095L29.3906 13.2322Z" fill="#F974AB" mask="url(#path-12-inside-5_576_913)"/>
<mask id="path-14-inside-6_576_913" fill="white">
<path d="M13.5588 12.9043C16.5152 12.5214 19.4439 11.6189 22.1515 10.3609C23.533 9.73189 24.8592 8.96613 26.0473 7.8722C26.6275 7.32524 27.1524 6.69622 27.5392 5.98517C27.8708 5.30147 28.451 4.48105 27.9813 3.27773C27.705 2.62137 26.8209 2.37521 26.3512 2.48461C25.8262 2.56665 25.5223 2.67605 25.1631 2.78544C24.4448 3.00422 23.6988 3.27773 23.0081 3.57856C21.599 4.18022 20.2451 4.91861 19.0571 5.8758C16.6257 7.70812 14.6364 10.1421 13.5865 12.9043L13.5588 12.9043ZM13.5588 12.9043C15.1337 10.3883 17.2059 8.28243 19.6373 6.72358C20.853 5.95783 22.1239 5.27415 23.4777 4.78189C24.1408 4.53575 24.8316 4.28959 25.5223 4.07081C25.8539 3.98876 26.2407 3.85203 26.4893 3.82468C26.738 3.82468 26.7104 3.82469 26.738 3.87939C26.8761 4.09818 26.6827 4.78186 26.3512 5.35617C26.0473 5.93048 25.6052 6.45011 25.1355 6.94237C24.1685 7.92691 22.9252 8.69264 21.6818 9.40369C19.1123 10.8258 16.4046 11.9471 13.5588 12.8769L13.5588 12.9043Z"/>
</mask>
<path d="M13.5588 12.9043C16.5152 12.5214 19.4439 11.6189 22.1515 10.3609C23.533 9.73189 24.8592 8.96613 26.0473 7.8722C26.6275 7.32524 27.1524 6.69622 27.5392 5.98517C27.8708 5.30147 28.451 4.48105 27.9813 3.27773C27.705 2.62137 26.8209 2.37521 26.3512 2.48461C25.8262 2.56665 25.5223 2.67605 25.1631 2.78544C24.4448 3.00422 23.6988 3.27773 23.0081 3.57856C21.599 4.18022 20.2451 4.91861 19.0571 5.8758C16.6257 7.70812 14.6364 10.1421 13.5865 12.9043L13.5588 12.9043ZM13.5588 12.9043C15.1337 10.3883 17.2059 8.28243 19.6373 6.72358C20.853 5.95783 22.1239 5.27415 23.4777 4.78189C24.1408 4.53575 24.8316 4.28959 25.5223 4.07081C25.8539 3.98876 26.2407 3.85203 26.4893 3.82468C26.738 3.82468 26.7104 3.82469 26.738 3.87939C26.8761 4.09818 26.6827 4.78186 26.3512 5.35617C26.0473 5.93048 25.6052 6.45011 25.1355 6.94237C24.1685 7.92691 22.9252 8.69264 21.6818 9.40369C19.1123 10.8258 16.4046 11.9471 13.5588 12.8769L13.5588 12.9043Z" fill="#ED94AB"/>
<path d="M13.5588 12.9043L13.5588 15.0362L11.427 15.0362L11.427 12.9043L13.5588 12.9043ZM22.1515 10.3609L21.2533 8.42751L21.2607 8.42407L21.2681 8.42068L22.1515 10.3609ZM26.0473 7.8722L27.5096 9.42345L27.5005 9.43203L27.4913 9.44051L26.0473 7.8722ZM27.5392 5.98517L29.4575 6.91538L29.4357 6.96018L29.412 7.00391L27.5392 5.98517ZM27.9813 3.27773L29.9462 2.45061L29.9571 2.47644L29.9672 2.50255L27.9813 3.27773ZM26.3512 2.48461L26.8348 4.56091L26.7581 4.57875L26.6804 4.59091L26.3512 2.48461ZM23.0081 3.57856L23.8593 5.5331L23.8523 5.53617L23.8452 5.53918L23.0081 3.57856ZM19.0571 5.8758L20.3946 7.5359L20.3677 7.55756L20.3401 7.57833L19.0571 5.8758ZM13.5865 12.9043L15.5792 13.6618L15.0568 15.0362L13.5865 15.0362L13.5865 12.9043ZM19.6373 6.72358L18.4866 4.9289L18.4938 4.92429L18.5011 4.91974L19.6373 6.72358ZM23.4777 4.78189L24.2196 6.78051L24.2129 6.78299L24.2063 6.78542L23.4777 4.78189ZM25.5223 4.07081L24.8786 2.03845L24.9438 2.01779L25.0102 2.00136L25.5223 4.07081ZM26.4893 3.82468L26.2563 1.70559L26.3724 1.69281L26.4893 1.69281L26.4893 3.82468ZM26.738 3.87939L24.9354 5.01759L24.881 4.93149L24.8351 4.8406L26.738 3.87939ZM26.3512 5.35617L24.4669 4.35902L24.4853 4.32431L24.5049 4.29031L26.3512 5.35617ZM25.1355 6.94237L26.6779 8.41406L26.6672 8.42523L26.6564 8.43624L25.1355 6.94237ZM21.6818 9.40369L22.7402 11.2543L22.7272 11.2617L22.7142 11.2689L21.6818 9.40369ZM13.5588 12.8769L11.427 12.8769L11.427 11.3307L12.8967 10.8505L13.5588 12.8769ZM13.5588 12.9043L13.285 10.7901C16.0009 10.4384 18.7198 9.60459 21.2533 8.42751L22.1515 10.3609L23.0498 12.2943C20.1679 13.6332 17.0294 14.6045 13.8326 15.0185L13.5588 12.9043ZM22.1515 10.3609L21.2681 8.42068C22.5252 7.84831 23.636 7.19452 24.6032 6.30389L26.0473 7.8722L27.4913 9.44051C26.0825 10.7377 24.5408 11.6155 23.035 12.3011L22.1515 10.3609ZM26.0473 7.8722L24.5849 6.32095C25.0436 5.88853 25.4123 5.43381 25.6665 4.96643L27.5392 5.98517L29.412 7.00391C28.8926 7.95864 28.2113 8.76195 27.5096 9.42345L26.0473 7.8722ZM27.5392 5.98517L25.621 5.05496C25.6767 4.94014 25.7352 4.82738 25.7793 4.74222C25.8275 4.64892 25.8643 4.57768 25.8985 4.50754C25.9661 4.36911 25.9972 4.28784 26.0131 4.23297C26.0267 4.18591 26.0259 4.16896 26.0258 4.16602C26.0258 4.16552 26.0263 4.13226 25.9954 4.05291L27.9813 3.27773L29.9672 2.50255C30.8481 4.75909 29.6327 6.55398 29.4575 6.91538L27.5392 5.98517ZM27.9813 3.27773L26.0164 4.10484C26.1627 4.45225 26.4029 4.5553 26.4244 4.5642C26.4505 4.57499 26.4781 4.58289 26.5172 4.58748C26.545 4.59073 26.6574 4.60221 26.8348 4.56091L26.3512 2.48461L25.8676 0.408306C26.6318 0.230322 27.4297 0.366131 28.0532 0.623825C28.7033 0.892545 29.5236 1.44685 29.9462 2.45061L27.9813 3.27773ZM26.3512 2.48461L26.6804 4.59091C26.3382 4.64438 26.2007 4.69798 25.7843 4.82482L25.1631 2.78544L24.542 0.746058C24.8439 0.654112 25.3142 0.488923 26.022 0.378307L26.3512 2.48461ZM25.1631 2.78544L25.7843 4.82482C25.1418 5.02049 24.4728 5.26592 23.8593 5.5331L23.0081 3.57856L22.1568 1.62402C22.9248 1.28953 23.7478 0.987957 24.542 0.746058L25.1631 2.78544ZM23.0081 3.57856L23.8452 5.53918C22.5559 6.08969 21.3868 6.73645 20.3946 7.5359L19.0571 5.8758L17.7196 4.21569C19.1034 3.10076 20.642 2.27075 22.1709 1.61794L23.0081 3.57856ZM19.0571 5.8758L20.3401 7.57833C18.1719 9.21235 16.4627 11.3375 15.5792 13.6618L13.5865 12.9043L11.5937 12.1468C12.8101 8.94673 15.0795 6.2039 17.774 4.17326L19.0571 5.8758ZM13.5865 12.9043L13.5865 15.0362L13.5588 15.0362L13.5588 12.9043L13.5588 10.7724L13.5865 10.7724L13.5865 12.9043ZM13.5588 12.9043L11.7518 11.7732C13.4893 8.99726 15.7832 6.66218 18.4866 4.9289L19.6373 6.72358L20.7879 8.51827C18.6286 9.90268 16.7781 11.7793 15.3659 14.0354L13.5588 12.9043ZM19.6373 6.72358L18.5011 4.91974C19.7949 4.10474 21.2061 3.33945 22.7492 2.77835L23.4777 4.78189L24.2063 6.78542C23.0417 7.20886 21.911 7.81093 20.7735 8.52743L19.6373 6.72358ZM23.4777 4.78189L22.7359 2.78326C23.4149 2.53121 24.1415 2.27191 24.8786 2.03845L25.5223 4.07081L26.166 6.10316C25.5216 6.30728 24.8668 6.54029 24.2196 6.78051L23.4777 4.78189ZM25.5223 4.07081L25.0102 2.00136C25.131 1.97147 25.2276 1.94063 25.4568 1.87582C25.5521 1.84885 25.6699 1.81655 25.7925 1.78774C25.91 1.76015 26.0738 1.72566 26.2563 1.70559L26.4893 3.82468L26.7224 5.94377C26.7805 5.93738 26.8027 5.93023 26.7674 5.93854C26.7372 5.94562 26.6909 5.95776 26.617 5.97865C26.5248 6.00474 26.4832 6.01738 26.3638 6.05148C26.2692 6.07849 26.1543 6.11059 26.0344 6.14025L25.5223 4.07081ZM26.4893 3.82468L26.4893 1.69281C26.5385 1.69281 26.6173 1.69263 26.6848 1.6944C26.7075 1.69499 26.9429 1.6963 27.2088 1.76212C27.3715 1.80238 27.6162 1.88228 27.8762 2.05163C28.1553 2.23339 28.3539 2.45386 28.4906 2.6568C28.6031 2.82371 28.6685 2.97509 28.671 2.98065C28.6899 3.02213 28.6639 2.96369 28.6409 2.91817L26.738 3.87939L24.8351 4.8406C24.8052 4.78142 24.7741 4.71101 24.7881 4.74203C24.7908 4.74789 24.8069 4.78358 24.8301 4.82883C24.8544 4.87597 24.8953 4.95115 24.9543 5.03873C25.0858 5.23399 25.2784 5.44804 25.5493 5.62446C25.8011 5.78846 26.0354 5.86409 26.1843 5.90093C26.3269 5.93624 26.4394 5.94741 26.4844 5.95134C26.5349 5.95576 26.5699 5.95659 26.5736 5.95668C26.5755 5.95673 26.5645 5.95655 26.4893 5.95655L26.4893 3.82468ZM26.738 3.87939L28.5406 2.74119C28.9222 3.34562 28.9219 3.95877 28.9128 4.20139C28.9011 4.51646 28.8416 4.80685 28.7796 5.0374C28.6542 5.50453 28.4466 5.99045 28.1975 6.42204L26.3512 5.35617L24.5049 4.29031C24.5873 4.14758 24.6422 4.00451 24.6618 3.93152C24.6724 3.89201 24.6561 3.93456 24.6521 4.04196C24.65 4.09807 24.6497 4.20984 24.676 4.35724C24.7013 4.49855 24.764 4.7462 24.9354 5.01759L26.738 3.87939ZM26.3512 5.35617L28.2355 6.35333C27.7916 7.19212 27.1855 7.88202 26.6779 8.41406L25.1355 6.94237L23.5931 5.47069C24.0248 5.0182 24.3029 4.66885 24.4669 4.35902L26.3512 5.35617ZM25.1355 6.94237L26.6564 8.43624C25.4638 9.65045 23.9893 10.5399 22.7402 11.2543L21.6818 9.40369L20.6235 7.55309C21.861 6.84536 22.8731 6.20336 23.6146 5.4485L25.1355 6.94237ZM21.6818 9.40369L22.7142 11.2689C20.0042 12.7688 17.1681 13.9404 14.221 14.9034L13.5588 12.8769L12.8967 10.8505C15.6412 9.95375 18.2204 8.88282 20.6495 7.53844L21.6818 9.40369ZM13.5588 12.8769L15.6907 12.8769L15.6907 12.9043L13.5588 12.9043L11.427 12.9043L11.427 12.8769L13.5588 12.8769Z" fill="#F974AB" mask="url(#path-14-inside-6_576_913)"/>
<mask id="path-16-inside-7_576_913" fill="white">
<path d="M16.0732 13.2592C16.2943 14.1891 16.8192 14.8181 17.3994 15.3924C18.0349 15.912 18.7256 16.3769 19.665 16.5137C19.4164 15.5565 18.8914 14.9275 18.3388 14.3805C17.731 13.8609 17.0403 13.4233 16.0732 13.2592Z"/>
</mask>
<path d="M16.0732 13.2592C16.2943 14.1891 16.8192 14.8181 17.3994 15.3924C18.0349 15.912 18.7256 16.3769 19.665 16.5137C19.4164 15.5565 18.8914 14.9275 18.3388 14.3805C17.731 13.8609 17.0403 13.4233 16.0732 13.2592Z" fill="#ED94AB"/>
<path d="M16.0732 13.2592L13.9992 13.7523L13.2542 10.6186L16.4299 11.1574L16.0732 13.2592ZM17.3994 15.3924L16.05 17.0428L15.9716 16.9787L15.8997 16.9075L17.3994 15.3924ZM19.665 16.5137L21.7284 15.9776L22.5359 19.0859L19.358 18.6233L19.665 16.5137ZM18.3388 14.3805L19.7241 12.76L19.7832 12.8106L19.8386 12.8654L18.3388 14.3805ZM16.0732 13.2592L18.1473 12.7662C18.2299 13.1138 18.4148 13.3978 18.8992 13.8772L17.3994 15.3924L15.8997 16.9075C15.2237 16.2384 14.3586 15.2644 13.9992 13.7523L16.0732 13.2592ZM17.3994 15.3924L18.7489 13.742C19.2864 14.1815 19.6097 14.3513 19.9721 14.404L19.665 16.5137L19.358 18.6233C17.8415 18.4026 16.7834 17.6425 16.05 17.0428L17.3994 15.3924ZM19.665 16.5137L17.6017 17.0497C17.4936 16.6337 17.2794 16.3315 16.8391 15.8957L18.3388 14.3805L19.8386 12.8654C20.5034 13.5235 21.3392 14.4792 21.7284 15.9776L19.665 16.5137ZM18.3388 14.3805L16.9536 16.001C16.523 15.6329 16.1772 15.4392 15.7166 15.3611L16.0732 13.2592L16.4299 11.1574C17.9033 11.4074 18.9389 12.0889 19.7241 12.76L18.3388 14.3805Z" fill="#F974AB" mask="url(#path-16-inside-7_576_913)"/>
<mask id="path-18-inside-8_576_913" fill="white">
<path d="M22.594 12.7402C23.6163 12.7402 24.4728 12.33 25.2464 11.8651C25.9924 11.3455 26.7108 10.7712 27.1528 9.84133C26.0753 9.89603 25.274 10.2516 24.5004 10.7165C23.7544 11.2088 23.0913 11.783 22.594 12.7402Z"/>
</mask>
<path d="M22.594 12.7402C23.6163 12.7402 24.4728 12.33 25.2464 11.8651C25.9924 11.3455 26.7108 10.7712 27.1528 9.84133C26.0753 9.89603 25.274 10.2516 24.5004 10.7165C23.7544 11.2088 23.0913 11.783 22.594 12.7402Z" fill="#ED94AB"/>
<path d="M22.594 12.7402L22.594 14.8721L19.0839 14.8721L20.7022 11.7573L22.594 12.7402ZM25.2464 11.8651L26.4649 13.6144L26.406 13.6554L26.3445 13.6924L25.2464 11.8651ZM27.1528 9.84133L27.0448 7.71221L30.6117 7.53115L29.0782 10.7567L27.1528 9.84133ZM24.5004 10.7165L23.3262 8.93712L23.3638 8.91237L23.4023 8.88921L24.5004 10.7165ZM22.594 12.7402L22.594 10.6084C23.0265 10.6084 23.4733 10.4435 24.1483 10.0378L25.2464 11.8651L26.3445 13.6924C25.4723 14.2166 24.2061 14.8721 22.594 14.8721L22.594 12.7402ZM25.2464 11.8651L24.0279 10.1158C24.7152 9.63706 25.0366 9.32747 25.2275 8.92597L27.1528 9.84133L29.0782 10.7567C28.3849 12.2149 27.2696 13.0539 26.4649 13.6144L25.2464 11.8651ZM27.1528 9.84133L27.2609 11.9705C26.6563 12.0012 26.1993 12.1828 25.5986 12.5438L24.5004 10.7165L23.4023 8.88921C24.3488 8.32037 25.4943 7.79091 27.0448 7.71221L27.1528 9.84133ZM24.5004 10.7165L25.6746 12.4959C25.1075 12.8701 24.7583 13.1986 24.4858 13.7231L22.594 12.7402L20.7022 11.7573C21.4244 10.3675 22.4014 9.54742 23.3262 8.93712L24.5004 10.7165Z" fill="#F974AB" mask="url(#path-18-inside-8_576_913)"/>
<mask id="path-20-inside-9_576_913" fill="white">
<path d="M37.4307 11.893C38.2596 12.9322 39.3095 13.6159 40.3594 14.2176C41.4646 14.7645 42.5973 15.2295 43.9512 15.3389C43.1223 14.2996 42.1 13.6159 41.0225 13.0143C39.9173 12.4673 38.7845 12.0024 37.4307 11.893Z"/>
</mask>
<path d="M37.4307 11.893C38.2596 12.9322 39.3095 13.6159 40.3594 14.2176C41.4646 14.7645 42.5973 15.2295 43.9512 15.3389C43.1223 14.2996 42.1 13.6159 41.0225 13.0143C39.9173 12.4673 38.7845 12.0024 37.4307 11.893Z" fill="#ED94AB"/>
<path d="M37.4307 11.893L35.764 13.2223L32.6925 9.3713L37.6024 9.76803L37.4307 11.893ZM40.3594 14.2176L39.4138 16.1283L39.3557 16.0995L39.2994 16.0673L40.3594 14.2176ZM43.9512 15.3389L45.6178 14.0096L48.6893 17.8605L43.7795 17.4638L43.9512 15.3389ZM41.0225 13.0143L41.9681 11.1036L42.0156 11.1271L42.0618 11.1529L41.0225 13.0143ZM37.4307 11.893L39.0974 10.5637C39.6655 11.276 40.4234 11.7971 41.4194 12.3679L40.3594 14.2176L39.2994 16.0673C38.1956 15.4347 36.8536 14.5884 35.764 13.2223L37.4307 11.893ZM40.3594 14.2176L41.305 12.3069C42.3272 12.8128 43.1716 13.1371 44.1229 13.2139L43.9512 15.3389L43.7795 17.4638C42.023 17.3219 40.6019 16.7163 39.4138 16.1283L40.3594 14.2176ZM43.9512 15.3389L42.2845 16.6682C41.7105 15.9485 40.9699 15.4266 39.9832 14.8756L41.0225 13.0143L42.0618 11.1529C43.2302 11.8053 44.5341 12.6508 45.6178 14.0096L43.9512 15.3389ZM41.0225 13.0143L40.0769 14.9249C39.0547 14.419 38.2102 14.0948 37.259 14.0179L37.4307 11.893L37.6024 9.76803C39.3588 9.90995 40.78 10.5156 41.9681 11.1036L41.0225 13.0143Z" fill="#F974AB" mask="url(#path-20-inside-9_576_913)"/>
<mask id="path-22-inside-10_576_913" fill="white">
<path d="M49.864 11.0986C51.2179 10.8252 52.3507 10.1962 53.4282 9.4851C54.4781 8.7467 55.4728 7.92625 56.2187 6.75028C54.8649 7.02376 53.7321 7.65276 52.6546 8.36382C51.6047 9.10222 50.6377 9.92266 49.864 11.0986Z"/>
</mask>
<path d="M49.864 11.0986C51.2179 10.8252 52.3507 10.1962 53.4282 9.4851C54.4781 8.7467 55.4728 7.92625 56.2187 6.75028C54.8649 7.02376 53.7321 7.65276 52.6546 8.36382C51.6047 9.10222 50.6377 9.92266 49.864 11.0986Z" fill="#ED94AB"/>
<path d="M49.864 11.0986L50.2862 13.1883L45.2711 14.2014L48.083 9.92697L49.864 11.0986ZM53.4282 9.4851L54.6546 11.2289L54.6287 11.2471L54.6024 11.2645L53.4282 9.4851ZM56.2187 6.75028L55.7966 4.66062L60.6969 3.67074L58.019 7.89226L56.2187 6.75028ZM52.6546 8.36382L51.4282 6.62003L51.454 6.60185L51.4804 6.58444L52.6546 8.36382ZM49.864 11.0986L49.4419 9.00897C50.3953 8.81639 51.2559 8.36435 52.254 7.70573L53.4282 9.4851L54.6024 11.2645C53.4454 12.028 52.0405 12.8339 50.2862 13.1883L49.864 11.0986ZM53.4282 9.4851L52.2018 7.74131C53.1715 7.05929 53.8962 6.4318 54.4185 5.6083L56.2187 6.75028L58.019 7.89226C57.0494 9.42071 55.7847 10.4341 54.6546 11.2289L53.4282 9.4851ZM56.2187 6.75028L56.6409 8.83994C55.6875 9.03253 54.8268 9.48457 53.8288 10.1432L52.6546 8.36382L51.4804 6.58444C52.6374 5.82095 54.0423 5.015 55.7966 4.66062L56.2187 6.75028ZM52.6546 8.36382L53.881 10.1076C52.9365 10.7719 52.2106 11.4107 51.6451 12.2703L49.864 11.0986L48.083 9.92697C49.0648 8.43462 50.2728 7.43257 51.4282 6.62003L52.6546 8.36382Z" fill="#F974AB" mask="url(#path-22-inside-10_576_913)"/>
<mask id="path-24-inside-11_576_913" fill="white">
<path d="M64.0101 10.7983C64.5074 11.6735 65.1705 12.1931 65.8612 12.6033C66.5796 12.9862 67.3532 13.2596 68.3755 13.2049C67.9334 12.3572 67.2427 11.8376 66.5243 11.4C65.7783 11.0171 64.9495 10.7163 64.0101 10.7983Z"/>
</mask>
<path d="M64.0101 10.7983C64.5074 11.6735 65.1705 12.1931 65.8612 12.6033C66.5796 12.9862 67.3532 13.2596 68.3755 13.2049C67.9334 12.3572 67.2427 11.8376 66.5243 11.4C65.7783 11.0171 64.9495 10.7163 64.0101 10.7983Z" fill="#ED94AB"/>
<path d="M64.0101 10.7983L62.1566 11.8516L60.5153 8.96357L63.8246 8.67455L64.0101 10.7983ZM65.8612 12.6033L64.8585 14.4847L64.815 14.4615L64.7726 14.4363L65.8612 12.6033ZM68.3755 13.2049L70.2658 12.2193L71.7975 15.1568L68.4894 15.3338L68.3755 13.2049ZM66.5243 11.4L67.4978 9.50335L67.567 9.53885L67.6334 9.5793L66.5243 11.4ZM64.0101 10.7983L65.8636 9.74503C66.1137 10.1852 66.4429 10.4693 66.9498 10.7703L65.8612 12.6033L64.7726 14.4363C63.8981 13.9169 62.9011 13.1618 62.1566 11.8516L64.0101 10.7983ZM65.8612 12.6033L66.8639 10.722C67.3572 10.9849 67.7415 11.1039 68.2616 11.0761L68.3755 13.2049L68.4894 15.3338C66.9649 15.4153 65.802 14.9875 64.8585 14.4847L65.8612 12.6033ZM68.3755 13.2049L66.4852 14.1906C66.3139 13.8622 66.0255 13.5924 65.4153 13.2207L66.5243 11.4L67.6334 9.5793C68.4599 10.0828 69.5529 10.8522 70.2658 12.2193L68.3755 13.2049ZM66.5243 11.4L65.5509 13.2966C64.9552 12.9909 64.5536 12.8908 64.1955 12.9221L64.0101 10.7983L63.8246 8.67455C65.3453 8.54173 66.6014 9.04331 67.4978 9.50335L66.5243 11.4Z" fill="#F974AB" mask="url(#path-24-inside-11_576_913)"/>
<mask id="path-26-inside-12_576_913" fill="white">
<path d="M71.9395 11.0986C73.017 11.0439 73.8735 10.6611 74.6748 10.1961C75.4484 9.67652 76.1667 9.07488 76.6641 8.11769C75.5865 8.17239 74.73 8.55523 73.9288 9.02014C73.1552 9.53976 72.4368 10.1414 71.9395 11.0986Z"/>
</mask>
<path d="M71.9395 11.0986C73.017 11.0439 73.8735 10.6611 74.6748 10.1961C75.4484 9.67652 76.1667 9.07488 76.6641 8.11769C75.5865 8.17239 74.73 8.55523 73.9288 9.02014C73.1552 9.53976 72.4368 10.1414 71.9395 11.0986Z" fill="#ED94AB"/>
<path d="M71.9395 11.0986L72.0475 13.2278L68.3328 13.4163L70.0477 10.1157L71.9395 11.0986ZM74.6748 10.1961L75.8634 11.9659L75.8053 12.0049L75.7447 12.0401L74.6748 10.1961ZM76.6641 8.11769L76.556 5.98856L80.2707 5.8L78.5558 9.1006L76.6641 8.11769ZM73.9288 9.02014L72.7401 7.25042L72.7983 7.21136L72.8588 7.17621L73.9288 9.02014ZM71.9395 11.0986L71.8314 8.96951C72.4269 8.93928 72.9408 8.73751 73.6048 8.3522L74.6748 10.1961L75.7447 12.0401C74.8062 12.5846 73.6071 13.1486 72.0475 13.2278L71.9395 11.0986ZM74.6748 10.1961L73.4861 8.42641C74.1301 7.99386 74.5126 7.63467 74.7723 7.13479L76.6641 8.11769L78.5558 9.1006C77.8209 10.5151 76.7667 11.3592 75.8634 11.9659L74.6748 10.1961ZM76.6641 8.11769L76.7721 10.2468C76.1766 10.2771 75.6627 10.4788 74.9987 10.8641L73.9288 9.02014L72.8588 7.17621C73.7974 6.63164 74.9965 6.06773 76.556 5.98856L76.6641 8.11769ZM73.9288 9.02014L75.1174 10.7899C74.4735 11.2224 74.091 11.5816 73.8312 12.0815L71.9395 11.0986L70.0477 10.1157C70.7826 8.70127 71.8368 7.85713 72.7401 7.25042L73.9288 9.02014Z" fill="#F974AB" mask="url(#path-26-inside-12_576_913)"/>
<path d="M46.2554 15.9395C46.2554 15.4813 45.8777 15.0911 45.3882 15.0908C44.8984 15.0908 44.52 15.4811 44.52 15.9395C44.5202 16.3977 44.8986 16.7871 45.3882 16.7871C45.8776 16.7869 46.2552 16.3975 46.2554 15.9395Z" fill="#ED94AB" stroke="#F974AB" stroke-width="2.13187"/>
<path d="M58.6885 6.12109C58.6885 5.6629 58.3108 5.2727 57.8213 5.27246C57.3315 5.27246 56.9531 5.66276 56.9531 6.12109C56.9533 6.57929 57.3316 6.96875 57.8213 6.96875C58.3107 6.96851 58.6883 6.57915 58.6885 6.12109Z" fill="#ED94AB" stroke="#F974AB" stroke-width="2.13187"/>
<path d="M70.873 14.0254C70.873 13.5672 70.4954 13.177 70.0059 13.1768C69.5161 13.1768 69.1377 13.5671 69.1377 14.0254C69.1379 14.4836 69.5162 14.873 70.0059 14.873C70.4953 14.8728 70.8729 14.4834 70.873 14.0254Z" fill="#ED94AB" stroke="#F974AB" stroke-width="2.13187"/>
<path d="M79.0239 7.3252C79.0239 6.867 78.6463 6.4768 78.1567 6.47656C77.667 6.47656 77.2886 6.86688 77.2886 7.3252C77.2887 7.78338 77.6671 8.17285 78.1567 8.17285C78.6462 8.17262 79.0238 7.78326 79.0239 7.3252Z" fill="#ED94AB" stroke="#F974AB" stroke-width="2.13187"/>
<path d="M29.5674 8.93945C29.5674 8.48126 29.1897 8.09106 28.7002 8.09082C28.2104 8.09082 27.832 8.48112 27.832 8.93945C27.8322 9.39767 28.2106 9.78711 28.7002 9.78711C29.1896 9.78687 29.5672 9.39753 29.5674 8.93945Z" fill="#ED94AB" stroke="#F974AB" stroke-width="2.13187"/>
<path d="M21.9419 17.499C21.9419 17.0409 21.5642 16.6506 21.0747 16.6504C20.585 16.6504 20.2065 17.0407 20.2065 17.499C20.2067 17.9572 20.5851 18.3467 21.0747 18.3467C21.5641 18.3464 21.9417 17.9571 21.9419 17.499Z" fill="#ED94AB" stroke="#F974AB" stroke-width="2.13187"/>
</g>
</svg>
