<svg width="13" height="55" viewBox="0 0 13 55" fill="none" xmlns="http://www.w3.org/2000/svg">
<g opacity="0.64">
<path d="M6.75649 7.96289C6.46953 14.0975 6.18257 20.248 6.40576 26.3985C6.75649 35.7986 8.31882 45.278 6.74056 54.5512" fill="#ED94AB"/>
<path d="M6.75649 7.96289C6.46953 14.0975 6.18257 20.248 6.40576 26.3985C6.75649 35.7986 8.31882 45.278 6.74056 54.5512" stroke="#F974AB" stroke-width="0.616683" stroke-miterlimit="10"/>
<path d="M6.66158 8.61288L7.95288 4.41217C8.2239 3.54032 8.49492 2.60506 8.16014 1.74907C8.00072 1.33692 7.63404 0.956478 7.2036 1.00403C6.78911 1.03574 6.51811 1.43203 6.34274 1.79662C5.29057 3.90491 5.44999 6.55215 6.64565 8.61288L6.66158 8.61288Z" fill="#ED94AB" stroke="#F974AB" stroke-width="0.616683" stroke-miterlimit="10"/>
<mask id="path-4-inside-1_576_857" fill="white">
<path d="M6.59782 12.5282C6.96449 11.5771 7.45868 10.7052 8.08042 9.97607C8.39926 9.61147 8.73406 9.26274 9.11667 8.97741C9.49928 8.64452 9.83406 8.54941 9.88189 8.70793C10.0413 8.86645 9.94564 9.27859 9.72245 9.72244C9.53115 10.1504 9.26013 10.5467 8.97318 10.943C8.38332 11.6881 7.58622 12.3063 6.58186 12.5441L6.59782 12.5282ZM6.59782 12.5282C7.65 12.6392 8.70217 12.0844 9.43551 11.3393C9.83406 10.9747 10.1369 10.5309 10.392 10.0553C10.5196 9.81755 10.6471 9.57978 10.7109 9.26274C10.7906 8.94571 10.7587 8.53355 10.5036 8.21652C10.2645 7.86778 9.69058 7.77268 9.38768 7.91534C9.0529 8.0263 8.81375 8.23237 8.62245 8.40674C8.2239 8.77133 7.87318 9.16763 7.58622 9.61148C6.99637 10.4833 6.62969 11.4978 6.58186 12.5282L6.59782 12.5282Z"/>
</mask>
<path d="M6.59782 12.5282C6.96449 11.5771 7.45868 10.7052 8.08042 9.97607C8.39926 9.61147 8.73406 9.26274 9.11667 8.97741C9.49928 8.64452 9.83406 8.54941 9.88189 8.70793C10.0413 8.86645 9.94564 9.27859 9.72245 9.72244C9.53115 10.1504 9.26013 10.5467 8.97318 10.943C8.38332 11.6881 7.58622 12.3063 6.58186 12.5441L6.59782 12.5282ZM6.59782 12.5282C7.65 12.6392 8.70217 12.0844 9.43551 11.3393C9.83406 10.9747 10.1369 10.5309 10.392 10.0553C10.5196 9.81755 10.6471 9.57978 10.7109 9.26274C10.7906 8.94571 10.7587 8.53355 10.5036 8.21652C10.2645 7.86778 9.69058 7.77268 9.38768 7.91534C9.0529 8.0263 8.81375 8.23237 8.62245 8.40674C8.2239 8.77133 7.87318 9.16763 7.58622 9.61148C6.99637 10.4833 6.62969 11.4978 6.58186 12.5282L6.59782 12.5282Z" fill="#ED94AB"/>
<path d="M8.08042 9.97607L7.1419 9.17583L7.14691 9.16996L7.152 9.16414L8.08042 9.97607ZM9.11667 8.97741L9.92623 9.90789L9.89121 9.93836L9.854 9.96611L9.11667 8.97741ZM9.88189 8.70793L9.01224 9.58253L8.79115 9.36269L8.70109 9.06419L9.88189 8.70793ZM9.72245 9.72244L8.59645 9.21915L8.60792 9.19348L8.62056 9.16836L9.72245 9.72244ZM8.97318 10.943L9.97215 11.6664L9.95661 11.6878L9.94017 11.7086L8.97318 10.943ZM6.58186 12.5441L6.86601 13.7442L2.60989 14.7519L5.71256 11.6691L6.58186 12.5441ZM9.43551 11.3393L8.55651 10.4741L8.57918 10.4511L8.60302 10.4293L9.43551 11.3393ZM10.7109 9.26274L9.50173 9.01953L9.50755 8.99061L9.51474 8.962L10.7109 9.26274ZM10.5036 8.21652L9.54267 8.98966L9.5131 8.95291L9.48643 8.91401L10.5036 8.21652ZM9.38768 7.91534L9.91323 9.03114L9.84612 9.06274L9.77572 9.08608L9.38768 7.91534ZM8.62245 8.40674L7.78996 7.49671L7.79161 7.49521L8.62245 8.40674ZM7.58622 9.61148L8.62198 10.2811L8.61498 10.2919L8.60776 10.3026L7.58622 9.61148ZM6.58186 12.5282L6.58186 13.7616L5.28992 13.7616L5.34982 12.471L6.58186 12.5282ZM6.59782 12.5282L5.44701 12.0845C5.85544 11.0251 6.41583 10.0274 7.1419 9.17583L8.08042 9.97607L9.01894 10.7763C8.50154 11.3831 8.07354 12.1291 7.74863 12.9719L6.59782 12.5282ZM8.08042 9.97607L7.152 9.16414C7.49059 8.77697 7.89265 8.35165 8.37934 7.9887L9.11667 8.97741L9.854 9.96611C9.57547 10.1738 9.30794 10.446 9.00885 10.788L8.08042 9.97607ZM9.11667 8.97741L8.30711 8.04692C8.57093 7.81739 8.89116 7.60221 9.23679 7.48766C9.39627 7.4348 9.68447 7.3613 10.0208 7.42365C10.4369 7.50079 10.895 7.79585 11.0627 8.35167L9.88189 8.70793L8.70109 9.06419C8.76076 9.26196 8.88077 9.45917 9.06705 9.61253C9.24586 9.75975 9.43277 9.8234 9.57112 9.84905C9.81925 9.89505 9.99087 9.83642 10.0129 9.82913C10.0835 9.80572 10.045 9.80454 9.92623 9.90789L9.11667 8.97741ZM9.88189 8.70793L10.7515 7.83334C11.2957 8.37448 11.2029 9.08402 11.1598 9.32528C11.0992 9.66371 10.9655 9.99593 10.8244 10.2765L9.72245 9.72244L8.62056 9.16836C8.6584 9.09309 8.68641 9.02784 8.70561 8.97535C8.71507 8.94947 8.7216 8.92887 8.7259 8.91359C8.73027 8.89809 8.7316 8.89075 8.73154 8.8911C8.73147 8.89148 8.73092 8.89462 8.73025 8.90036C8.72958 8.90606 8.72871 8.91518 8.72817 8.92741C8.72716 8.9505 8.72696 8.99306 8.73533 9.05005C8.7515 9.16018 8.80985 9.38128 9.01224 9.58253L9.88189 8.70793ZM9.72245 9.72244L10.8485 10.2257C10.601 10.7794 10.2635 11.2641 9.97215 11.6664L8.97318 10.943L7.9742 10.2197C8.25681 9.82938 8.46132 9.52147 8.59645 9.21915L9.72245 9.72244ZM8.97318 10.943L9.94017 11.7086C9.22529 12.6116 8.20612 13.427 6.86601 13.7442L6.58186 12.5441L6.29772 11.3439C6.96631 11.1856 7.54135 10.7646 8.00618 10.1774L8.97318 10.943ZM6.58186 12.5441L5.71256 11.6691L5.72851 11.6533L6.59782 12.5282L7.46713 13.4031L7.45117 13.419L6.58186 12.5441ZM6.59782 12.5282L6.72718 11.3016C7.2768 11.3596 7.9799 11.0599 8.55651 10.4741L9.43551 11.3393L10.3145 12.2045C9.42445 13.1088 8.0232 13.9187 6.46847 13.7548L6.59782 12.5282ZM9.43551 11.3393L8.60302 10.4293C8.86401 10.1905 9.08892 9.87546 9.30513 9.47235L10.392 10.0553L11.4789 10.6383C11.185 11.1863 10.8041 11.7589 10.268 12.2494L9.43551 11.3393ZM10.392 10.0553L9.30513 9.47235C9.43596 9.22843 9.47815 9.13676 9.50173 9.01953L10.7109 9.26274L11.92 9.50595C11.8161 10.0228 11.6031 10.4067 11.4789 10.6383L10.392 10.0553ZM10.7109 9.26274L9.51474 8.962C9.51466 8.96231 9.51494 8.96124 9.51528 8.95896C9.51561 8.95671 9.5159 8.95396 9.51605 8.95095C9.51636 8.94444 9.51585 8.9402 9.51569 8.93921C9.51556 8.93846 9.51629 8.94353 9.52037 8.95309C9.52469 8.96322 9.53192 8.9763 9.54267 8.98966L10.5036 8.21652L11.4646 7.44337C12.0199 8.13357 12.056 8.97093 11.907 9.56348L10.7109 9.26274ZM10.5036 8.21652L9.48643 8.91401C9.54222 8.99539 9.60115 9.03856 9.6328 9.0577C9.66399 9.07656 9.68335 9.08136 9.68798 9.08244C9.69258 9.08352 9.70338 9.08585 9.72627 9.08455C9.74379 9.08355 9.81355 9.07808 9.91323 9.03114L9.38768 7.91534L8.86214 6.79955C9.33584 6.57644 9.85611 6.58822 10.2512 6.68086C10.6583 6.77634 11.1754 7.01528 11.5208 7.51902L10.5036 8.21652ZM9.38768 7.91534L9.77572 9.08608C9.706 9.10919 9.63035 9.15689 9.45329 9.31828L8.62245 8.40674L7.79161 7.49521C7.99716 7.30785 8.39981 6.94342 8.99965 6.74461L9.38768 7.91534ZM8.62245 8.40674L9.45493 9.31678C9.1188 9.62427 8.84145 9.94164 8.62198 10.2811L7.58622 9.61148L6.55047 8.94185C6.90491 8.39362 7.32899 7.9184 7.78996 7.49671L8.62245 8.40674ZM7.58622 9.61148L8.60776 10.3026C8.13034 11.0083 7.85006 11.8065 7.8139 12.5854L6.58186 12.5282L5.34982 12.471C5.40932 11.1891 5.86239 9.9584 6.56469 8.92035L7.58622 9.61148ZM6.58186 12.5282L6.58186 11.2948L6.59782 11.2948L6.59782 12.5282L6.59782 13.7616L6.58186 13.7616L6.58186 12.5282Z" fill="#F974AB" mask="url(#path-4-inside-1_576_857)"/>
<mask id="path-6-inside-2_576_857" fill="white">
<path d="M6.45377 17.237L4.42914 13.924C4.04653 13.3216 3.71173 12.7668 3.21753 12.2278C2.96246 11.9583 2.64361 11.7206 2.24506 11.5937C1.87839 11.4352 1.161 11.5303 0.921867 12.0693C0.71462 12.5607 0.842164 12.9728 0.953758 13.3216C1.0813 13.6545 1.22477 13.9715 1.40013 14.2727C1.75086 14.8751 2.1813 15.4299 2.72333 15.8579C3.77551 16.7614 5.13059 17.2687 6.46973 17.237L6.45377 17.237ZM6.45377 17.237C5.16246 16.9358 3.99871 16.3176 3.13784 15.414C2.72335 14.9543 2.34072 14.4629 2.05377 13.9081C1.78275 13.385 1.4958 12.6875 1.63928 12.4022C1.63928 12.1803 2.2929 12.3071 2.67551 12.7509C3.10594 13.1631 3.45668 13.7337 3.85523 14.1776C4.63639 15.1287 5.52914 16.0956 6.43784 17.237L6.45377 17.237Z"/>
</mask>
<path d="M6.45377 17.237L4.42914 13.924C4.04653 13.3216 3.71173 12.7668 3.21753 12.2278C2.96246 11.9583 2.64361 11.7206 2.24506 11.5937C1.87839 11.4352 1.161 11.5303 0.921867 12.0693C0.71462 12.5607 0.842164 12.9728 0.953758 13.3216C1.0813 13.6545 1.22477 13.9715 1.40013 14.2727C1.75086 14.8751 2.1813 15.4299 2.72333 15.8579C3.77551 16.7614 5.13059 17.2687 6.46973 17.237L6.45377 17.237ZM6.45377 17.237C5.16246 16.9358 3.99871 16.3176 3.13784 15.414C2.72335 14.9543 2.34072 14.4629 2.05377 13.9081C1.78275 13.385 1.4958 12.6875 1.63928 12.4022C1.63928 12.1803 2.2929 12.3071 2.67551 12.7509C3.10594 13.1631 3.45668 13.7337 3.85523 14.1776C4.63639 15.1287 5.52914 16.0956 6.43784 17.237L6.45377 17.237Z" fill="#ED94AB"/>
<path d="M4.42914 13.924L5.47025 13.2627L5.47598 13.2717L5.48155 13.2808L4.42914 13.924ZM3.21753 12.2278L4.11327 11.38L4.11998 11.3871L4.12658 11.3943L3.21753 12.2278ZM2.24506 11.5937L1.8711 12.7691L1.81228 12.7503L1.75563 12.7258L2.24506 11.5937ZM0.921867 12.0693L-0.214566 11.59L-0.210136 11.5795L-0.205513 11.5691L0.921867 12.0693ZM0.953758 13.3216L-0.197974 13.7628L-0.210371 13.7305L-0.220931 13.6975L0.953758 13.3216ZM2.72333 15.8579L3.48766 14.8899L3.50759 14.9056L3.52686 14.9222L2.72333 15.8579ZM6.46973 17.237L6.46973 16.0036L6.49892 18.47L6.46973 17.237ZM3.13784 15.414L2.24488 16.2648L2.23319 16.2525L2.22184 16.2399L3.13784 15.414ZM2.05377 13.9081L3.14889 13.3407L3.14927 13.3415L2.05377 13.9081ZM1.63928 12.4022L2.87265 12.4022L2.87265 12.6948L2.74118 12.9563L1.63928 12.4022ZM2.67551 12.7509L1.82252 13.6418L1.77987 13.6009L1.74132 13.5562L2.67551 12.7509ZM3.85523 14.1776L4.77292 13.3535L4.79108 13.3738L4.80833 13.3948L3.85523 14.1776ZM6.43784 17.237L6.43784 18.4703L5.84328 18.4703L5.47294 18.0052L6.43784 17.237ZM6.45377 17.237L5.40136 17.8801L3.37674 14.5671L4.42914 13.924L5.48155 13.2808L7.50618 16.5938L6.45377 17.237ZM4.42914 13.924L3.38804 14.5852C2.98469 13.9502 2.71275 13.5023 2.30848 13.0614L3.21753 12.2278L4.12658 11.3943C4.71072 12.0313 5.10838 12.693 5.47025 13.2627L4.42914 13.924ZM3.21753 12.2278L2.32179 13.0757C2.16862 12.9139 2.02027 12.8165 1.8711 12.7691L2.24506 11.5937L2.61903 10.4184C3.26696 10.6246 3.75629 11.0028 4.11327 11.38L3.21753 12.2278ZM2.24506 11.5937L1.75563 12.7258C1.79606 12.7433 1.82566 12.7508 1.84071 12.7539C1.85651 12.7572 1.86535 12.7577 1.86743 12.7577C1.86919 12.7578 1.8668 12.758 1.8678 12.7578C1.86906 12.7574 1.89411 12.7506 1.9312 12.7219C1.97268 12.6899 2.01885 12.638 2.04925 12.5695L0.921867 12.0693L-0.205513 11.5691C0.102063 10.8759 0.697743 10.5236 1.20347 10.3822C1.68311 10.248 2.24976 10.2521 2.73449 10.4616L2.24506 11.5937ZM0.921867 12.0693L2.0583 12.5486C2.04444 12.5814 2.04285 12.5985 2.04599 12.6313C2.05164 12.6903 2.06991 12.7628 2.12845 12.9457L0.953758 13.3216L-0.220931 13.6975C-0.333429 13.3459 -0.613404 12.5357 -0.214566 11.59L0.921867 12.0693ZM0.953758 13.3216L2.10549 12.8803C2.21634 13.1697 2.33269 13.4231 2.46599 13.6521L1.40013 14.2727L0.334275 14.8933C0.116854 14.5199 -0.0537551 14.1393 -0.197974 13.7628L0.953758 13.3216ZM1.40013 14.2727L2.46599 13.6521C2.76454 14.1648 3.10149 14.585 3.48766 14.8899L2.72333 15.8579L1.95899 16.8258C1.26111 16.2748 0.737182 15.5853 0.334275 14.8933L1.40013 14.2727ZM2.72333 15.8579L3.52686 14.9222C4.36298 15.6402 5.42568 16.028 6.44054 16.004L6.46973 17.237L6.49892 18.47C4.83551 18.5094 3.18803 17.8826 1.9198 16.7936L2.72333 15.8579ZM6.46973 17.237L6.46973 18.4703L6.45377 18.4703L6.45377 17.237L6.45377 16.0036L6.46973 16.0036L6.46973 17.237ZM6.45377 17.237L6.17362 18.4381C4.68355 18.0906 3.29486 17.3668 2.24488 16.2648L3.13784 15.414L4.0308 14.5632C4.70256 15.2683 5.64138 15.781 6.73392 16.0358L6.45377 17.237ZM3.13784 15.414L2.22184 16.2399C1.77095 15.7399 1.31264 15.1599 0.958256 14.4747L2.05377 13.9081L3.14927 13.3415C3.3688 13.7659 3.67574 14.1688 4.05384 14.5881L3.13784 15.414ZM2.05377 13.9081L0.958646 14.4755C0.807484 14.1837 0.633341 13.8092 0.515836 13.4401C0.457534 13.257 0.400157 13.0353 0.377727 12.8027C0.357819 12.5961 0.348377 12.224 0.537382 11.8481L1.63928 12.4022L2.74118 12.9563C2.80449 12.8304 2.82383 12.7235 2.83035 12.6658C2.83698 12.6071 2.83355 12.5708 2.83308 12.566C2.83257 12.5606 2.83696 12.5996 2.86634 12.6918C2.92419 12.8736 3.02903 13.1094 3.14889 13.3407L2.05377 13.9081ZM1.63928 12.4022L0.405914 12.4022C0.405914 12.0345 0.557206 11.678 0.839056 11.4221C1.08562 11.1982 1.35629 11.1186 1.52401 11.0877C1.85225 11.0272 2.15337 11.0849 2.34802 11.1396C2.76691 11.2575 3.24373 11.5211 3.60969 11.9456L2.67551 12.7509L1.74132 13.5562C1.73861 13.5531 1.72701 13.5415 1.70566 13.5283C1.68304 13.5144 1.67011 13.5114 1.67981 13.5141C1.68537 13.5157 1.70778 13.5217 1.74642 13.5255C1.78014 13.5288 1.8606 13.5339 1.97076 13.5136C2.07122 13.4951 2.28784 13.4385 2.49717 13.2484C2.74178 13.0263 2.87265 12.7144 2.87265 12.4022L1.63928 12.4022ZM2.67551 12.7509L3.52849 11.8601C3.81863 12.1379 4.06386 12.451 4.25633 12.7022C4.46839 12.979 4.61511 13.1778 4.77292 13.3535L3.85523 14.1776L2.93754 15.0016C2.6968 14.7335 2.46887 14.4251 2.29832 14.2025C2.10817 13.9544 1.96282 13.7761 1.82252 13.6418L2.67551 12.7509ZM3.85523 14.1776L4.80833 13.3948C5.18657 13.8553 5.59119 14.3189 6.03237 14.8301C6.46869 15.3355 6.93236 15.878 7.40273 16.4687L6.43784 17.237L5.47294 18.0052C5.03462 17.4547 4.59756 16.9429 4.16504 16.4418C3.73738 15.9464 3.30504 15.451 2.90212 14.9604L3.85523 14.1776ZM6.43784 17.237L6.43784 16.0036L6.45377 16.0036L6.45377 17.237L6.45377 18.4703L6.43784 18.4703L6.43784 17.237Z" fill="#F974AB" mask="url(#path-6-inside-2_576_857)"/>
<mask id="path-8-inside-3_576_857" fill="white">
<path d="M6.31149 24.3855C6.61439 23.0856 6.82164 21.7699 7.28396 20.5652C7.52309 19.9628 7.79411 19.3922 8.16078 18.8849C8.49556 18.3777 8.98976 18.0765 9.27672 18.3143C9.64339 18.5362 9.72309 19.1069 9.54773 19.6934C9.38831 20.2957 9.13323 20.8823 8.84627 21.4529C8.24048 22.5784 7.34773 23.5612 6.29556 24.3855L6.31149 24.3855ZM6.31149 24.3855C7.53903 23.8465 8.6231 22.9271 9.38832 21.7699C9.78688 21.1993 10.0579 20.5652 10.2811 19.8994C10.5043 19.2654 10.5361 18.2192 9.70716 17.6643C9.30861 17.379 8.71874 17.4266 8.35207 17.6643C7.98541 17.8863 7.73034 18.1874 7.53904 18.4886C7.17237 19.091 6.86946 19.7251 6.71004 20.3908C6.34338 21.7224 6.27961 23.0698 6.31149 24.4013L6.31149 24.3855Z"/>
</mask>
<path d="M6.31149 24.3855C6.61439 23.0856 6.82164 21.7699 7.28396 20.5652C7.52309 19.9628 7.79411 19.3922 8.16078 18.8849C8.49556 18.3777 8.98976 18.0765 9.27672 18.3143C9.64339 18.5362 9.72309 19.1069 9.54773 19.6934C9.38831 20.2957 9.13323 20.8823 8.84627 21.4529C8.24048 22.5784 7.34773 23.5612 6.29556 24.3855L6.31149 24.3855ZM6.31149 24.3855C7.53903 23.8465 8.6231 22.9271 9.38832 21.7699C9.78688 21.1993 10.0579 20.5652 10.2811 19.8994C10.5043 19.2654 10.5361 18.2192 9.70716 17.6643C9.30861 17.379 8.71874 17.4266 8.35207 17.6643C7.98541 17.8863 7.73034 18.1874 7.53904 18.4886C7.17237 19.091 6.86946 19.7251 6.71004 20.3908C6.34338 21.7224 6.27961 23.0698 6.31149 24.4013L6.31149 24.3855Z" fill="#ED94AB"/>
<path d="M7.28396 20.5652L6.13247 20.1233L6.13501 20.1167L6.13762 20.1101L7.28396 20.5652ZM8.16078 18.8849L9.19016 19.5643L9.17571 19.5862L9.16035 19.6075L8.16078 18.8849ZM9.27672 18.3143L8.63809 19.3694L8.56004 19.3222L8.48978 19.264L9.27672 18.3143ZM9.54773 19.6934L8.35541 19.3778L8.36043 19.3589L8.36605 19.3401L9.54773 19.6934ZM8.84627 21.4529L9.94817 22.007L9.94045 22.0224L9.93231 22.0375L8.84627 21.4529ZM6.29556 24.3855L6.29556 25.6189L2.72128 25.6189L5.53494 23.4146L6.29556 24.3855ZM9.38832 21.7699L8.35955 21.0896L8.36819 21.0766L8.37715 21.0637L9.38832 21.7699ZM10.2811 19.8994L9.11167 19.5074L9.11461 19.4986L9.11768 19.4899L10.2811 19.8994ZM9.70716 17.6643L9.02117 18.6893L9.00501 18.6785L8.98919 18.6672L9.70716 17.6643ZM8.35207 17.6643L9.02314 18.6992L9.00708 18.7096L8.9907 18.7195L8.35207 17.6643ZM7.53904 18.4886L6.4855 17.8473L6.49162 17.8373L6.49793 17.8273L7.53904 18.4886ZM6.71004 20.3908L7.9095 20.6781L7.90466 20.6983L7.89915 20.7183L6.71004 20.3908ZM6.31149 24.4013L7.54486 24.4013L5.07848 24.4309L6.31149 24.4013ZM6.31149 24.3855L5.11031 24.1056C5.38512 22.9262 5.62963 21.4336 6.13247 20.1233L7.28396 20.5652L8.43545 21.0071C8.01365 22.1062 7.84366 23.245 7.51268 24.6654L6.31149 24.3855ZM7.28396 20.5652L6.13762 20.1101C6.39361 19.4653 6.70888 18.7882 7.16121 18.1624L8.16078 18.8849L9.16035 19.6075C8.87934 19.9962 8.65257 20.4604 8.4303 21.0203L7.28396 20.5652ZM8.16078 18.8849L7.13139 18.2055C7.37772 17.8323 7.72371 17.4661 8.14941 17.2356C8.55054 17.0184 9.35664 16.7787 10.0637 17.3646L9.27672 18.3143L8.48978 19.264C8.67137 19.4144 8.88744 19.4699 9.06491 19.4646C9.21909 19.46 9.30941 19.4127 9.32395 19.4048C9.34712 19.3922 9.27862 19.4303 9.19016 19.5643L8.16078 18.8849ZM9.27672 18.3143L9.91535 17.2591C10.4908 17.6074 10.744 18.1741 10.8294 18.6487C10.9147 19.1234 10.8594 19.6119 10.7294 20.0467L9.54773 19.6934L8.36605 19.3401C8.38716 19.2694 8.39778 19.2084 8.4017 19.1606C8.40363 19.1372 8.40379 19.1188 8.40328 19.1055C8.40303 19.0989 8.40262 19.0939 8.40226 19.0905C8.40189 19.0871 8.40159 19.0854 8.4016 19.0854C8.40161 19.0855 8.40196 19.0874 8.40294 19.0912C8.40393 19.0949 8.40561 19.1007 8.40831 19.1083C8.41366 19.1232 8.42349 19.1466 8.44067 19.1752C8.4769 19.2356 8.54072 19.3105 8.63809 19.3694L9.27672 18.3143ZM9.54773 19.6934L10.74 20.0089C10.5496 20.7286 10.2528 21.4012 9.94817 22.007L8.84627 21.4529L7.74438 20.8988C8.01366 20.3633 8.22705 19.8628 8.35541 19.3778L9.54773 19.6934ZM8.84627 21.4529L9.93231 22.0375C9.22973 23.3428 8.21266 24.4504 7.05618 25.3564L6.29556 24.3855L5.53494 23.4146C6.48281 22.672 7.25122 21.814 7.76024 20.8683L8.84627 21.4529ZM6.29556 24.3855L6.29556 23.1521L6.31149 23.1521L6.31149 24.3855L6.31149 25.6189L6.29556 25.6189L6.29556 24.3855ZM6.31149 24.3855L5.81566 23.2562C6.81967 22.8154 7.7212 22.055 8.35955 21.0896L9.38832 21.7699L10.4171 22.4503C9.525 23.7993 8.25839 24.8777 6.80732 25.5148L6.31149 24.3855ZM9.38832 21.7699L8.37715 21.0637C8.68147 20.628 8.90744 20.1166 9.11167 19.5074L10.2811 19.8994L11.4505 20.2915C11.2083 21.0138 10.8923 21.7706 10.3995 22.4761L9.38832 21.7699ZM10.2811 19.8994L9.11768 19.4899C9.17301 19.3327 9.20003 19.124 9.17181 18.9532C9.14804 18.8093 9.0985 18.7411 9.02117 18.6893L9.70716 17.6643L10.3932 16.6394C11.1448 17.1424 11.4938 17.8747 11.6056 18.5512C11.7128 19.2006 11.6123 19.8321 11.4445 20.3089L10.2811 19.8994ZM9.70716 17.6643L8.98919 18.6672C9.02046 18.6896 9.04498 18.6979 9.05413 18.7004C9.06249 18.7027 9.06029 18.7009 9.04781 18.7012C9.03532 18.7015 9.02217 18.7037 9.01215 18.7067C9.0077 18.708 9.00601 18.7088 9.00715 18.7083C9.00821 18.7078 9.0138 18.7052 9.02314 18.6992L8.35207 17.6643L7.68101 16.6295C8.39124 16.1689 9.54008 16.0279 10.4251 16.6615L9.70716 17.6643ZM8.35207 17.6643L8.9907 18.7195C8.83595 18.8132 8.70555 18.9525 8.58014 19.1499L7.53904 18.4886L6.49793 17.8273C6.75513 17.4224 7.13486 16.9594 7.71345 16.6092L8.35207 17.6643ZM7.53904 18.4886L8.59257 19.1299C8.26543 19.6674 8.02886 20.1796 7.9095 20.6781L6.71004 20.3908L5.51058 20.1036C5.71007 19.2705 6.07931 18.5146 6.4855 17.8473L7.53904 18.4886ZM6.71004 20.3908L7.89915 20.7183C7.57853 21.8826 7.51388 23.093 7.5445 24.3718L6.31149 24.4013L5.07848 24.4309C5.04533 23.0466 5.10822 21.5622 5.52094 20.0634L6.71004 20.3908ZM6.31149 24.4013L5.07813 24.4013L5.07813 24.3855L6.31149 24.3855L7.54486 24.3855L7.54486 24.4013L6.31149 24.4013Z" fill="#F974AB" mask="url(#path-8-inside-3_576_857)"/>
<mask id="path-10-inside-4_576_857" fill="white">
<path d="M6.98014 31.3446C6.46999 29.7435 5.70477 28.2059 4.76419 26.7951C4.30187 26.0976 3.79173 25.3843 3.07433 24.8136C2.72361 24.5283 2.29317 24.2905 1.83085 24.1637C1.41636 24.0528 0.730841 23.9259 0.252579 24.4966C-0.145973 25.0356 -0.00249228 25.6855 0.204755 26.0976C0.412002 26.5256 0.635197 26.8585 0.858386 27.2231C1.32071 27.9364 1.83086 28.6339 2.43666 29.2521C3.04246 29.8704 3.71202 30.441 4.49318 30.8215C5.27434 31.186 6.15116 31.3921 6.99609 31.3446L6.98014 31.3446ZM6.98014 31.3446C5.27433 31.1226 3.90333 30.124 2.88304 28.8558C2.37289 28.2218 1.91055 27.5401 1.49606 26.8268C1.08157 26.1293 0.539535 25.3209 0.874319 24.988C0.938087 24.8612 1.27289 24.8136 1.63956 24.9088C1.99028 24.988 2.30912 25.1782 2.62796 25.4002C3.2497 25.8599 3.75983 26.5098 4.28592 27.1597C5.30621 28.4595 6.19899 29.8704 6.99609 31.3446L6.98014 31.3446Z"/>
</mask>
<path d="M6.98014 31.3446C6.46999 29.7435 5.70477 28.2059 4.76419 26.7951C4.30187 26.0976 3.79173 25.3843 3.07433 24.8136C2.72361 24.5283 2.29317 24.2905 1.83085 24.1637C1.41636 24.0528 0.730841 23.9259 0.252579 24.4966C-0.145973 25.0356 -0.00249228 25.6855 0.204755 26.0976C0.412002 26.5256 0.635197 26.8585 0.858386 27.2231C1.32071 27.9364 1.83086 28.6339 2.43666 29.2521C3.04246 29.8704 3.71202 30.441 4.49318 30.8215C5.27434 31.186 6.15116 31.3921 6.99609 31.3446L6.98014 31.3446ZM6.98014 31.3446C5.27433 31.1226 3.90333 30.124 2.88304 28.8558C2.37289 28.2218 1.91055 27.5401 1.49606 26.8268C1.08157 26.1293 0.539535 25.3209 0.874319 24.988C0.938087 24.8612 1.27289 24.8136 1.63956 24.9088C1.99028 24.988 2.30912 25.1782 2.62796 25.4002C3.2497 25.8599 3.75983 26.5098 4.28592 27.1597C5.30621 28.4595 6.19899 29.8704 6.99609 31.3446L6.98014 31.3446Z" fill="#ED94AB"/>
<path d="M6.99609 31.3446L6.99609 31.9613L6.98014 31.9613L6.98014 31.3446L6.98014 30.7279L6.99609 30.7279L6.99609 31.3446ZM6.98014 31.3446L8.15529 30.9701L8.74403 32.8178L6.82102 32.5676L6.98014 31.3446ZM4.76419 26.7951L3.73798 27.4793L3.73616 27.4765L4.76419 26.7951ZM3.07433 24.8136L2.30648 25.7789L2.29598 25.7704L3.07433 24.8136ZM1.83085 24.1637L2.14981 22.9723L2.15711 22.9743L1.83085 24.1637ZM0.252579 24.4966L-0.739098 23.7633L-0.716799 23.7331L-0.692709 23.7044L0.252579 24.4966ZM0.204755 26.0976L1.30665 25.5435L1.3108 25.5518L1.31483 25.5601L0.204755 26.0976ZM0.858386 27.2231L-0.176613 27.8939L-0.185244 27.8806L-0.193531 27.8671L0.858386 27.2231ZM4.49318 30.8215L3.97155 31.9391L3.96231 31.9348L3.95314 31.9303L4.49318 30.8215ZM6.99609 31.3446L8.08102 30.758L9.005 32.4668L7.0654 32.576L6.99609 31.3446ZM1.49606 26.8268L2.55638 26.1967L2.56246 26.2072L1.49606 26.8268ZM0.874319 24.988L1.97622 25.5421L1.88614 25.7212L1.74396 25.8626L0.874319 24.988ZM1.63956 24.9088L1.36769 26.1118L1.34871 26.1075L1.32988 26.1026L1.63956 24.9088ZM2.62796 25.4002L3.33255 24.3879L3.34703 24.3979L3.36122 24.4084L2.62796 25.4002ZM4.28592 27.1597L5.24458 26.3837L5.2504 26.3909L5.25611 26.3982L4.28592 27.1597ZM6.98014 31.3446L5.80498 31.719C5.33331 30.2387 4.62148 28.8045 3.73798 27.4793L4.76419 26.7951L5.7904 26.1109C6.78806 27.6074 7.60667 29.2484 8.15529 30.9701L6.98014 31.3446ZM4.76419 26.7951L3.73616 27.4765C3.28278 26.7926 2.86166 26.2205 2.30652 25.7789L3.07433 24.8136L3.84214 23.8484C4.7218 24.5481 5.32095 25.4027 5.79222 26.1137L4.76419 26.7951ZM3.07433 24.8136L2.29598 25.7704C2.0617 25.5798 1.78239 25.4293 1.50459 25.3532L1.83085 24.1637L2.15711 22.9743C2.80396 23.1517 3.38552 23.4768 3.85269 23.8569L3.07433 24.8136ZM1.83085 24.1637L1.5119 25.3551C1.43199 25.3337 1.36403 25.3185 1.30221 25.3096C1.24016 25.3008 1.19989 25.3008 1.17744 25.3028C1.15744 25.3047 1.16207 25.3071 1.17891 25.2989C1.19929 25.2891 1.20591 25.2792 1.19787 25.2888L0.252579 24.4966L-0.692709 23.7044C0.315585 22.5013 1.74224 22.8632 2.1498 22.9723L1.83085 24.1637ZM0.252579 24.4966L1.24426 25.2299C1.23827 25.238 1.23767 25.2409 1.23707 25.2431C1.23585 25.2476 1.23249 25.2627 1.23375 25.2923C1.23666 25.3609 1.26234 25.4554 1.30665 25.5435L0.204755 26.0976L-0.897143 26.6517C-1.19125 26.0668 -1.54537 24.8536 -0.739098 23.7633L0.252579 24.4966ZM0.204755 26.0976L1.31483 25.5601C1.48726 25.9162 1.658 26.167 1.9103 26.5792L0.858386 27.2231L-0.193531 27.8671C-0.387612 27.55 -0.663257 27.1351 -0.905318 26.6352L0.204755 26.0976ZM0.858386 27.2231L1.89338 26.5523C2.3323 27.2295 2.79165 27.8522 3.31759 28.3889L2.43666 29.2521L1.55573 30.1154C0.87007 29.4156 0.309112 28.6434 -0.176613 27.8939L0.858386 27.2231ZM2.43666 29.2521L3.31759 28.3889C3.87842 28.9612 4.43327 29.4204 5.03321 29.7126L4.49318 30.8215L3.95314 31.9303C2.99076 31.4616 2.2065 30.7795 1.55573 30.1154L2.43666 29.2521ZM4.49318 30.8215L5.01481 29.7038C5.64713 29.999 6.32124 30.1472 6.92679 30.1132L6.99609 31.3446L7.0654 32.576C5.98109 32.637 4.90154 32.3731 3.97155 31.9391L4.49318 30.8215ZM6.98014 31.3446L6.82102 32.5676C4.70783 32.2927 3.07465 31.0615 1.92208 29.629L2.88304 28.8558L3.84399 28.0827C4.73201 29.1864 5.84084 29.9526 7.13926 30.1215L6.98014 31.3446ZM2.88304 28.8558L1.92208 29.629C1.36969 28.9424 0.872635 28.2088 0.429654 27.4465L1.49606 26.8268L2.56246 26.2072C2.94847 26.8715 3.37609 27.5011 3.84399 28.0827L2.88304 28.8558ZM1.49606 26.8268L0.435788 27.4569C0.262848 27.1659 -0.0395811 26.6885 -0.22487 26.267C-0.319121 26.0527 -0.431996 25.7495 -0.457832 25.4118C-0.485569 25.0492 -0.41549 24.5312 0.00467778 24.1134L0.874319 24.988L1.74396 25.8626C1.99674 25.6113 2.00903 25.3192 2.00171 25.2236C1.9963 25.1529 1.98207 25.1578 2.03329 25.2743C2.07842 25.377 2.14767 25.5074 2.24385 25.6732C2.34554 25.8486 2.43713 25.9961 2.55633 26.1967L1.49606 26.8268ZM0.874319 24.988L-0.227579 24.4339C-0.0340366 24.049 0.284015 23.8649 0.46174 23.7846C0.657604 23.6962 0.849597 23.6575 1.00212 23.6399C1.3113 23.6043 1.64045 23.6348 1.94923 23.7149L1.63956 24.9088L1.32988 26.1026C1.27199 26.0876 1.25041 26.0944 1.28458 26.0904C1.2996 26.0887 1.37302 26.0797 1.47671 26.0329C1.56227 25.9942 1.81456 25.8636 1.97622 25.5421L0.874319 24.988ZM1.63956 24.9088L1.91142 23.7057C2.50635 23.8402 2.98819 24.1482 3.33255 24.3879L2.62796 25.4002L1.92336 26.4125C1.63004 26.2083 1.47421 26.1359 1.36769 26.1118L1.63956 24.9088ZM2.62796 25.4002L3.36122 24.4084C4.13719 24.9822 4.75326 25.7767 5.24458 26.3837L4.28592 27.1597L3.32727 27.9357C2.7664 27.2428 2.36221 26.7376 1.8947 26.3919L2.62796 25.4002ZM4.28592 27.1597L5.25611 26.3982C6.32778 27.7635 7.25772 29.2353 8.08102 30.758L6.99609 31.3446L5.91117 31.9312C5.14027 30.5054 4.28465 29.1556 3.31574 27.9212L4.28592 27.1597Z" fill="#F974AB" mask="url(#path-10-inside-4_576_857)"/>
<mask id="path-12-inside-5_576_857" fill="white">
<path d="M7.42666 41.0447C7.61796 39.9985 7.87305 39.0315 8.11218 38.128C8.31943 37.2561 8.49479 36.2575 8.73392 35.3381C8.97305 34.4028 9.24407 33.4834 9.65856 32.6433C10.0252 31.8665 10.7267 30.7569 11.0614 31.0581C11.2368 31.169 11.4122 31.6763 11.4441 32.0884C11.4919 32.5164 11.4441 32.992 11.3803 33.4517C11.2528 34.3711 10.918 35.2747 10.5354 36.1465C9.73828 37.8902 8.51073 39.4437 7.41073 41.0605L7.42666 41.0447ZM7.42666 41.0447C8.78173 39.6339 10.1368 38.1755 11.0933 36.4001C11.5875 35.5283 11.9383 34.5613 12.1296 33.5627C12.2093 33.0554 12.2731 32.5481 12.2252 32.0092C12.1296 31.4702 12.1136 30.9154 11.5078 30.4082C10.6948 29.9326 9.99335 30.5825 9.73828 30.9947C9.43538 31.4227 9.18029 31.8665 8.97304 32.3262C8.55855 33.2615 8.30348 34.2284 8.12811 35.2113C7.95275 36.1941 7.84116 37.1293 7.71363 38.1914C7.61798 39.2059 7.53826 40.1728 7.41073 41.0605L7.42666 41.0447Z"/>
</mask>
<path d="M7.42666 41.0447C7.61796 39.9985 7.87305 39.0315 8.11218 38.128C8.31943 37.2561 8.49479 36.2575 8.73392 35.3381C8.97305 34.4028 9.24407 33.4834 9.65856 32.6433C10.0252 31.8665 10.7267 30.7569 11.0614 31.0581C11.2368 31.169 11.4122 31.6763 11.4441 32.0884C11.4919 32.5164 11.4441 32.992 11.3803 33.4517C11.2528 34.3711 10.918 35.2747 10.5354 36.1465C9.73828 37.8902 8.51073 39.4437 7.41073 41.0605L7.42666 41.0447ZM7.42666 41.0447C8.78173 39.6339 10.1368 38.1755 11.0933 36.4001C11.5875 35.5283 11.9383 34.5613 12.1296 33.5627C12.2093 33.0554 12.2731 32.5481 12.2252 32.0092C12.1296 31.4702 12.1136 30.9154 11.5078 30.4082C10.6948 29.9326 9.99335 30.5825 9.73828 30.9947C9.43538 31.4227 9.18029 31.8665 8.97304 32.3262C8.55855 33.2615 8.30348 34.2284 8.12811 35.2113C7.95275 36.1941 7.84116 37.1293 7.71363 38.1914C7.61798 39.2059 7.53826 40.1728 7.41073 41.0605L7.42666 41.0447Z" fill="#ED94AB"/>
<path d="M7.41073 41.0605L6.9759 40.6233L6.99184 40.6074L7.42666 41.0447L7.86148 41.482L7.84555 41.4978L7.41073 41.0605ZM7.42666 41.0447L8.31617 41.8991L5.4759 44.8562L6.21341 40.8229L7.42666 41.0447ZM8.11218 38.128L9.31211 38.4132L9.3085 38.4284L9.3045 38.4435L8.11218 38.128ZM8.73392 35.3381L9.92886 35.6436L9.92757 35.6485L8.73392 35.3381ZM9.65856 32.6433L10.7739 33.1698L10.7694 33.1794L10.7646 33.189L9.65856 32.6433ZM11.0614 31.0581L10.402 32.1003L10.314 32.0446L10.2366 31.975L11.0614 31.0581ZM11.4441 32.0884L10.2183 32.2254L10.216 32.2045L10.2144 32.1836L11.4441 32.0884ZM10.5354 36.1465L11.6648 36.6421L11.661 36.6507L11.6571 36.6593L10.5354 36.1465ZM7.41073 41.0605L8.43047 41.7543L6.18989 40.8852L7.41073 41.0605ZM11.0933 36.4001L10.0075 35.8151L10.0138 35.8035L10.0204 35.7919L11.0933 36.4001ZM12.1296 33.5627L13.348 33.7541L13.3448 33.7745L13.3409 33.7947L12.1296 33.5627ZM12.2252 32.0092L13.4396 31.7937L13.449 31.8466L13.4538 31.9002L12.2252 32.0092ZM11.5078 30.4082L12.1305 29.3435L12.2201 29.3959L12.2996 29.4625L11.5078 30.4082ZM9.73828 30.9947L10.787 31.6437L10.767 31.6761L10.745 31.7072L9.73828 30.9947ZM8.97304 32.3262L7.84543 31.8265L7.84866 31.8193L8.97304 32.3262ZM7.71363 38.1914L6.48571 38.0756L6.48718 38.0599L6.48906 38.0443L7.71363 38.1914ZM7.42666 41.0447L6.21341 40.8229C6.41454 39.7229 6.68176 38.7121 6.91986 37.8124L8.11218 38.128L9.3045 38.4435C9.06433 39.351 8.82138 40.2741 8.63991 41.2666L7.42666 41.0447ZM8.11218 38.128L6.91225 37.8427C7.01109 37.4269 7.10223 36.9814 7.20415 36.4969C7.30402 36.0222 7.41275 35.5179 7.54027 35.0276L8.73392 35.3381L9.92757 35.6485C9.81596 36.0776 9.71744 36.5323 9.61804 37.0048C9.52068 37.4675 9.42052 37.9572 9.31211 38.4132L8.11218 38.128ZM8.73392 35.3381L7.53899 35.0325C7.78268 34.0794 8.0789 33.0575 8.55248 32.0976L9.65856 32.6433L10.7646 33.189C10.4092 33.9093 10.1634 34.7262 9.92884 35.6436L8.73392 35.3381ZM9.65856 32.6433L8.54322 32.1168C8.74954 31.6797 9.06147 31.1207 9.39986 30.6874C9.55697 30.4862 9.79484 30.2129 10.1008 30.0224C10.2582 29.9244 10.5161 29.796 10.8482 29.7766C11.2256 29.7545 11.597 29.8809 11.8863 30.1412L11.0614 31.0581L10.2366 31.975C10.4422 32.16 10.7184 32.2551 10.992 32.2391C11.2202 32.2258 11.3656 32.1407 11.4044 32.1165C11.4732 32.0737 11.45 32.0699 11.3441 32.2055C11.1564 32.4459 10.9342 32.8301 10.7739 33.1698L9.65856 32.6433ZM11.0614 31.0581L11.7209 30.0158C12.0082 30.1976 12.1727 30.4468 12.2494 30.5752C12.3424 30.7307 12.4129 30.8935 12.4659 31.0396C12.5711 31.3295 12.6486 31.6687 12.6738 31.9933L11.4441 32.0884L10.2144 32.1836C10.2114 32.1453 10.2041 32.0936 10.1911 32.0349C10.1782 31.9766 10.1624 31.9231 10.1472 31.8811C10.1305 31.835 10.1223 31.8243 10.1321 31.8407C10.1375 31.8497 10.1556 31.8792 10.1897 31.9191C10.2212 31.9559 10.2898 32.0294 10.402 32.1003L11.0614 31.0581ZM11.4441 32.0884L12.6698 31.9515C12.7361 32.5446 12.667 33.1522 12.602 33.6212L11.3803 33.4517L10.1586 33.2822C10.2211 32.8318 10.2477 32.4883 10.2183 32.2254L11.4441 32.0884ZM11.3803 33.4517L12.602 33.6212C12.4509 34.7106 12.0615 35.7381 11.6648 36.6421L10.5354 36.1465L9.40598 35.6509C9.77446 34.8112 10.0547 34.0316 10.1586 33.2822L11.3803 33.4517ZM10.5354 36.1465L11.6571 36.6593C10.8023 38.5291 9.46154 40.2388 8.43047 41.7543L7.41073 41.0605L6.39098 40.3668C7.55991 38.6486 8.67424 37.2512 9.41366 35.6337L10.5354 36.1465ZM7.42666 41.0447L6.53714 40.1903C7.89704 38.7745 9.14024 37.4249 10.0075 35.8151L11.0933 36.4001L12.1791 36.9851C11.1334 38.9261 9.66643 40.4933 8.31617 41.8991L7.42666 41.0447ZM11.0933 36.4001L10.0204 35.7919C10.4459 35.0412 10.7513 34.202 10.9182 33.3306L12.1296 33.5627L13.3409 33.7947C13.1252 34.9207 12.7292 36.0153 12.1663 37.0083L11.0933 36.4001ZM12.1296 33.5627L10.9112 33.3712C10.9884 32.8795 11.0304 32.4979 10.9967 32.1182L12.2252 32.0092L13.4538 31.9002C13.5157 32.5984 13.4301 33.2313 13.348 33.7541L12.1296 33.5627ZM12.2252 32.0092L11.0108 32.2247C10.9966 32.1444 10.9841 32.0653 10.9737 32.0002C10.9627 31.9311 10.9538 31.8751 10.9441 31.8213C10.9249 31.7147 10.908 31.6463 10.8902 31.594C10.865 31.5201 10.8316 31.4506 10.716 31.3538L11.5078 30.4082L12.2996 29.4625C13.3189 30.316 13.3693 31.3975 13.4396 31.7937L12.2252 32.0092ZM11.5078 30.4082L10.8851 31.4728C10.8705 31.4642 10.869 31.4656 10.8804 31.4687C10.892 31.472 10.9086 31.4746 10.9275 31.4746C10.9667 31.4745 10.9818 31.4635 10.9657 31.4715C10.9467 31.481 10.9114 31.5041 10.869 31.5454C10.8263 31.587 10.7978 31.6264 10.787 31.6437L9.73828 30.9947L8.68951 30.3456C8.9066 29.9948 9.30186 29.5458 9.8619 29.2655C10.4826 28.9549 11.3089 28.863 12.1305 29.3435L11.5078 30.4082ZM9.73828 30.9947L10.745 31.7072C10.486 32.0731 10.2709 32.4484 10.0974 32.8331L8.97304 32.3262L7.84866 31.8193C8.0897 31.2847 8.38474 30.7722 8.73153 30.2822L9.73828 30.9947ZM8.97304 32.3262L10.1006 32.826C9.73785 33.6445 9.50613 34.5097 9.3423 35.4279L8.12811 35.2113L6.91392 34.9946C7.10082 33.9472 7.37924 32.8784 7.84545 31.8265L8.97304 32.3262ZM8.12811 35.2113L9.3423 35.4279C9.17418 36.3701 9.0665 37.27 8.9382 38.3384L7.71363 38.1914L6.48906 38.0443C6.61583 36.9886 6.73132 36.018 6.91392 34.9946L8.12811 35.2113ZM7.71363 38.1914L8.94155 38.3072C8.84808 39.2985 8.76465 40.3096 8.63156 41.2359L7.41073 41.0605L6.18989 40.8852C6.31188 40.0361 6.38787 39.1133 6.48571 38.0756L7.71363 38.1914Z" fill="#F974AB" mask="url(#path-12-inside-5_576_857)"/>
<mask id="path-14-inside-6_576_857" fill="white">
<path d="M7.52246 47.2762C7.29927 45.5801 6.77317 43.8998 6.03984 42.3463C5.67317 41.5537 5.22678 40.7928 4.5891 40.1112C4.27026 39.7783 3.90359 39.4771 3.48909 39.2552C3.09054 39.065 2.6123 38.7321 1.91084 39.0016C1.52823 39.1601 1.38474 39.6674 1.44851 39.9369C1.49634 40.238 1.56011 40.4124 1.62387 40.6185C1.75141 41.0306 1.91085 41.4586 2.08621 41.8549C2.43693 42.6634 2.86736 43.4401 3.42534 44.1217C4.49346 45.5167 5.91231 46.658 7.52246 47.2604L7.52246 47.2762ZM7.52246 47.2762C6.05579 46.3727 4.82824 45.1838 3.91954 43.7888C3.47316 43.0914 3.07462 42.3622 2.78766 41.5854C2.64418 41.205 2.50069 40.8087 2.37315 40.4124C2.32533 40.2222 2.24562 40.0003 2.22968 39.8576C2.22968 39.7149 2.22969 39.7308 2.26157 39.7149C2.38911 39.6357 2.78765 39.7466 3.12243 39.9369C3.45722 40.1112 3.76012 40.3649 4.04708 40.6343C4.62099 41.1891 5.06736 41.9025 5.48185 42.6158C6.31084 44.09 6.96447 45.6435 7.5065 47.2762L7.52246 47.2762Z"/>
</mask>
<path d="M7.52246 47.2762C7.29927 45.5801 6.77317 43.8998 6.03984 42.3463C5.67317 41.5537 5.22678 40.7928 4.5891 40.1112C4.27026 39.7783 3.90359 39.4771 3.48909 39.2552C3.09054 39.065 2.6123 38.7321 1.91084 39.0016C1.52823 39.1601 1.38474 39.6674 1.44851 39.9369C1.49634 40.238 1.56011 40.4124 1.62387 40.6185C1.75141 41.0306 1.91085 41.4586 2.08621 41.8549C2.43693 42.6634 2.86736 43.4401 3.42534 44.1217C4.49346 45.5167 5.91231 46.658 7.52246 47.2604L7.52246 47.2762ZM7.52246 47.2762C6.05579 46.3727 4.82824 45.1838 3.91954 43.7888C3.47316 43.0914 3.07462 42.3622 2.78766 41.5854C2.64418 41.205 2.50069 40.8087 2.37315 40.4124C2.32533 40.2222 2.24562 40.0003 2.22968 39.8576C2.22968 39.7149 2.22969 39.7308 2.26157 39.7149C2.38911 39.6357 2.78765 39.7466 3.12243 39.9369C3.45722 40.1112 3.76012 40.3649 4.04708 40.6343C4.62099 41.1891 5.06736 41.9025 5.48185 42.6158C6.31084 44.09 6.96447 45.6435 7.5065 47.2762L7.52246 47.2762Z" fill="#ED94AB"/>
<path d="M7.52246 47.2762L8.75583 47.2762L8.75583 48.5096L7.52246 48.5096L7.52246 47.2762ZM6.03984 42.3463L4.92446 42.8729L4.92045 42.8642L6.03984 42.3463ZM4.5891 40.1112L5.47981 39.2581L5.48482 39.2633L5.48977 39.2686L4.5891 40.1112ZM3.48909 39.2552L4.02035 38.1421L4.0461 38.1544L4.07126 38.1679L3.48909 39.2552ZM1.91084 39.0016L1.43876 37.8622L1.45357 37.856L1.46853 37.8503L1.91084 39.0016ZM1.44851 39.9369L2.64873 39.6528L2.65937 39.6978L2.66661 39.7434L1.44851 39.9369ZM2.08621 41.8549L3.21411 41.3558L3.21769 41.364L2.08621 41.8549ZM3.42534 44.1217L4.37972 43.3405L4.39241 43.356L4.4046 43.3719L3.42534 44.1217ZM7.52246 47.2604L7.95462 46.1052L8.75583 46.4049L8.75583 47.2604L7.52246 47.2604ZM3.91954 43.7888L2.88607 44.4621L2.8807 44.4537L3.91954 43.7888ZM2.78766 41.5854L3.94171 41.1502L3.9446 41.158L2.78766 41.5854ZM2.37315 40.4124L1.19909 40.7903L1.1868 40.7521L1.17701 40.7131L2.37315 40.4124ZM2.22968 39.8576L1.00394 39.9946L0.996315 39.9263L0.996315 39.8576L2.22968 39.8576ZM2.26157 39.7149L2.91259 40.7625L2.86296 40.7933L2.81065 40.8193L2.26157 39.7149ZM3.12243 39.9369L2.55269 41.0307L2.53271 41.0203L2.51313 41.0092L3.12243 39.9369ZM4.04708 40.6343L4.89139 39.7353L4.8979 39.7414L4.90432 39.7476L4.04708 40.6343ZM5.48185 42.6158L6.54826 41.9961L6.55264 42.0037L6.55691 42.0113L5.48185 42.6158ZM7.5065 47.2762L7.5065 48.5096L6.6164 48.5096L6.33595 47.6648L7.5065 47.2762ZM7.52246 47.2762L6.29964 47.4371C6.09503 45.8822 5.60991 44.3248 4.9245 42.8728L6.03984 42.3463L7.15517 41.8198C7.93643 43.4748 8.50351 45.2779 8.74529 47.1153L7.52246 47.2762ZM6.03984 42.3463L4.92045 42.8642C4.58747 42.1444 4.2071 41.5082 3.68843 40.9538L4.5891 40.1112L5.48977 39.2686C6.24647 40.0775 6.75887 40.9631 7.15922 41.8285L6.03984 42.3463ZM4.5891 40.1112L3.69839 40.9643C3.44658 40.7014 3.18101 40.4893 2.90693 40.3425L3.48909 39.2552L4.07126 38.1679C4.62616 38.465 5.09394 38.8552 5.47981 39.2581L4.5891 40.1112ZM3.48909 39.2552L2.95784 40.3683C2.89115 40.3365 2.82562 40.303 2.77594 40.2777C2.72158 40.25 2.67987 40.2289 2.63877 40.2091C2.55771 40.1702 2.50911 40.1517 2.47529 40.1421C2.44588 40.1337 2.43312 40.1337 2.42793 40.1338C2.42409 40.1339 2.40168 40.1343 2.35316 40.1529L1.91084 39.0016L1.46853 37.8503C2.77079 37.35 3.80443 38.0391 4.02035 38.1421L3.48909 39.2552ZM1.91084 39.0016L2.38292 40.141C2.58025 40.0593 2.64199 39.9229 2.64943 39.9052C2.65651 39.8884 2.66178 39.8702 2.66477 39.8451C2.66697 39.8266 2.67373 39.7585 2.64873 39.6528L1.44851 39.9369L0.24829 40.2209C0.14279 39.775 0.223582 39.3109 0.375137 38.95C0.534034 38.5717 0.85883 38.1024 1.43876 37.8622L1.91084 39.0016ZM1.44851 39.9369L2.66661 39.7434C2.69741 39.9373 2.72794 40.0142 2.80212 40.2539L1.62387 40.6185L0.445631 40.9831C0.39227 40.8106 0.295264 40.5387 0.230406 40.1303L1.44851 39.9369ZM1.62387 40.6185L2.80212 40.2539C2.9159 40.6216 3.05866 41.0046 3.21408 41.3558L2.08621 41.8549L0.958334 42.354C0.763026 41.9126 0.586917 41.4397 0.445631 40.9831L1.62387 40.6185ZM2.08621 41.8549L3.21769 41.364C3.538 42.1024 3.91433 42.7719 4.37972 43.3405L3.42534 44.1217L2.47095 44.903C1.8204 44.1082 1.33587 43.2243 0.954731 42.3458L2.08621 41.8549ZM3.42534 44.1217L4.4046 43.3719C5.35602 44.6144 6.59551 45.5967 7.95462 46.1052L7.52246 47.2604L7.0903 48.4156C5.22911 47.7193 3.63089 46.4189 2.44607 44.8715L3.42534 44.1217ZM7.52246 47.2604L8.75583 47.2604L8.75583 47.2762L7.52246 47.2762L6.2891 47.2762L6.2891 47.2604L7.52246 47.2604ZM7.52246 47.2762L6.87555 48.3263C5.25899 47.3304 3.89751 46.0147 2.8861 44.462L3.91954 43.7888L4.95298 43.1156C5.75896 44.3529 6.85259 45.4149 8.16938 46.2261L7.52246 47.2762ZM3.91954 43.7888L2.8807 44.4537C2.40538 43.711 1.95852 42.9001 1.63073 42.0129L2.78766 41.5854L3.9446 41.158C4.19072 41.8242 4.54094 42.4717 4.95837 43.124L3.91954 43.7888ZM2.78766 41.5854L1.63364 42.0207C1.48665 41.6309 1.33535 41.2136 1.19909 40.7903L2.37315 40.4124L3.54722 40.0346C3.66603 40.4038 3.80172 40.7791 3.94169 41.1502L2.78766 41.5854ZM2.37315 40.4124L1.17701 40.7131C1.15973 40.6444 1.14205 40.59 1.10406 40.4578C1.0883 40.4029 1.06935 40.335 1.05242 40.264C1.03621 40.1961 1.01583 40.1009 1.00394 39.9946L2.22968 39.8576L3.45542 39.7206C3.45151 39.6856 3.44706 39.6717 3.45178 39.6914C3.45577 39.7082 3.46272 39.7343 3.47487 39.7766C3.4901 39.8296 3.49731 39.8529 3.5173 39.9218C3.53307 39.9761 3.55189 40.0424 3.56929 40.1117L2.37315 40.4124ZM2.22968 39.8576L0.996315 39.8576C0.996315 39.8296 0.996207 39.7839 0.997246 39.7447C0.99759 39.7317 0.998361 39.5937 1.03755 39.4379C1.06158 39.3423 1.10904 39.1997 1.2089 39.0488C1.31578 38.8873 1.44459 38.7735 1.56165 38.6959C1.65797 38.632 1.74515 38.5949 1.74823 38.5935C1.7721 38.5829 1.73859 38.5975 1.7125 38.6105L2.26157 39.7149L2.81065 40.8193C2.77658 40.8363 2.73609 40.8539 2.75386 40.846C2.7572 40.8445 2.77768 40.8354 2.80367 40.8222C2.83073 40.8085 2.87405 40.7854 2.92462 40.7518C3.0372 40.6772 3.16228 40.5668 3.26604 40.41C3.36279 40.2638 3.40775 40.1271 3.42979 40.0395C3.45085 39.9558 3.45753 39.8897 3.4599 39.863C3.46255 39.8332 3.46305 39.8124 3.46311 39.81C3.46316 39.8084 3.46305 39.8143 3.46305 39.8576L2.22968 39.8576ZM2.26157 39.7149L1.61056 38.6674C1.9582 38.4513 2.30951 38.4518 2.4482 38.4569C2.62902 38.4635 2.79615 38.4972 2.92946 38.5324C3.19947 38.6038 3.48111 38.7221 3.73174 38.8645L3.12243 39.9369L2.51313 41.0092C2.42898 40.9614 2.34395 40.9291 2.29911 40.9172C2.27499 40.9109 2.29765 40.9197 2.35742 40.9219C2.38864 40.9231 2.45167 40.9233 2.53516 40.9086C2.61489 40.8946 2.75649 40.8595 2.91259 40.7625L2.26157 39.7149ZM3.12243 39.9369L3.69218 38.843C4.17945 39.0968 4.58096 39.4437 4.89139 39.7353L4.04708 40.6343L3.20276 41.5334C2.93928 41.286 2.73498 41.1257 2.55269 41.0307L3.12243 39.9369ZM4.04708 40.6343L4.90432 39.7476C5.61249 40.4322 6.13153 41.279 6.54826 41.9961L5.48185 42.6158L4.41545 43.2355C4.00319 42.526 3.62949 41.9461 3.18984 41.5211L4.04708 40.6343ZM5.48185 42.6158L6.55691 42.0113C7.43183 43.5672 8.11532 45.1956 8.67705 46.8876L7.5065 47.2762L6.33595 47.6648C5.81362 46.0914 5.18986 44.6129 4.4068 43.2203L5.48185 42.6158ZM7.5065 47.2762L7.5065 46.0429L7.52246 46.0429L7.52246 47.2762L7.52246 48.5096L7.5065 48.5096L7.5065 47.2762Z" fill="#F974AB" mask="url(#path-14-inside-6_576_857)"/>
<mask id="path-16-inside-7_576_857" fill="white">
<path d="M7.72838 45.8332C8.27041 45.7064 8.63707 45.4052 8.97186 45.0723C9.27476 44.7077 9.54578 44.3114 9.62549 43.7725C9.06752 43.9151 8.70085 44.2163 8.38201 44.5334C8.07911 44.8821 7.82403 45.2784 7.72838 45.8332Z"/>
</mask>
<path d="M7.72838 45.8332C8.27041 45.7064 8.63707 45.4052 8.97186 45.0723C9.27476 44.7077 9.54578 44.3114 9.62549 43.7725C9.06752 43.9151 8.70085 44.2163 8.38201 44.5334C8.07911 44.8821 7.82403 45.2784 7.72838 45.8332Z" fill="#ED94AB"/>
<path d="M7.72838 45.8332L8.00935 47.0341L6.19665 47.4582L6.51294 45.6236L7.72838 45.8332ZM8.97186 45.0723L9.92054 45.8605L9.88307 45.9056L9.8415 45.9469L8.97186 45.0723ZM9.62549 43.7725L9.31996 42.5775L11.1169 42.1181L10.8456 43.9529L9.62549 43.7725ZM8.38201 44.5334L7.45084 43.7246L7.4804 43.6905L7.51237 43.6588L8.38201 44.5334ZM7.72838 45.8332L7.44741 44.6323C7.65621 44.5834 7.82383 44.4745 8.10222 44.1977L8.97186 45.0723L9.8415 45.9469C9.45031 46.3359 8.8846 46.8294 8.00935 47.0341L7.72838 45.8332ZM8.97186 45.0723L8.02317 44.2841C8.28001 43.975 8.37571 43.7927 8.40539 43.592L9.62549 43.7725L10.8456 43.9529C10.7158 44.8301 10.2695 45.4404 9.92054 45.8605L8.97186 45.0723ZM9.62549 43.7725L9.93101 44.9674C9.68285 45.0308 9.50477 45.1563 9.25165 45.4079L8.38201 44.5334L7.51237 43.6588C7.89693 43.2764 8.45219 42.7994 9.31996 42.5775L9.62549 43.7725ZM8.38201 44.5334L9.31318 45.3421C9.09846 45.5893 8.98827 45.7849 8.94381 46.0427L7.72838 45.8332L6.51294 45.6236C6.6598 44.7719 7.05976 44.1748 7.45084 43.7246L8.38201 44.5334Z" fill="#F974AB" mask="url(#path-16-inside-7_576_857)"/>
<mask id="path-18-inside-8_576_857" fill="white">
<path d="M7.42725 42.0921C7.42725 41.5056 7.18813 41.0142 6.91711 40.5703C6.61421 40.1423 6.27942 39.7302 5.73739 39.4766C5.76927 40.0948 5.97653 40.5545 6.24755 40.9983C6.53451 41.4263 6.86927 41.8068 7.42725 42.0921Z"/>
</mask>
<path d="M7.42725 42.0921C7.42725 41.5056 7.18813 41.0142 6.91711 40.5703C6.61421 40.1423 6.27942 39.7302 5.73739 39.4766C5.76927 40.0948 5.97653 40.5545 6.24755 40.9983C6.53451 41.4263 6.86927 41.8068 7.42725 42.0921Z" fill="#ED94AB"/>
<path d="M7.42725 42.0921L8.66061 42.0921L8.66061 44.1081L6.8657 43.1902L7.42725 42.0921ZM6.91711 40.5703L7.92386 39.8578L7.94799 39.8919L7.96976 39.9276L6.91711 40.5703ZM5.73739 39.4766L4.50566 39.5401L4.39988 37.489L6.26012 38.3594L5.73739 39.4766ZM6.24755 40.9983L5.22312 41.6852L5.20854 41.6634L5.1949 41.6411L6.24755 40.9983ZM7.42725 42.0921L6.19388 42.0921C6.19388 41.8521 6.10108 41.6006 5.86446 41.2131L6.91711 40.5703L7.96976 39.9276C8.27518 40.4278 8.66061 41.1591 8.66061 42.0921L7.42725 42.0921ZM6.91711 40.5703L5.91036 41.2828C5.63251 40.8902 5.45191 40.7047 5.21467 40.5937L5.73739 39.4766L6.26012 38.3594C7.10693 38.7557 7.59591 39.3945 7.92386 39.8578L6.91711 40.5703ZM5.73739 39.4766L6.96912 39.413C6.98667 39.7533 7.0902 40.0117 7.3002 40.3556L6.24755 40.9983L5.1949 41.6411C4.86287 41.0973 4.55188 40.4362 4.50566 39.5401L5.73739 39.4766ZM6.24755 40.9983L7.27197 40.3115C7.48892 40.6351 7.68033 40.8363 7.98879 40.994L7.42725 42.0921L6.8657 43.1902C6.05821 42.7773 5.58009 42.2176 5.22312 41.6852L6.24755 40.9983Z" fill="#F974AB" mask="url(#path-18-inside-8_576_857)"/>
<mask id="path-20-inside-9_576_857" fill="white">
<path d="M6.93318 33.5789C7.53898 33.1033 7.93754 32.501 8.28826 31.8986C8.60711 31.2645 8.87813 30.6146 8.94189 29.8379C8.3361 30.3134 7.93753 30.9 7.58681 31.5182C7.26797 32.1522 6.99695 32.8022 6.93318 33.5789Z"/>
</mask>
<path d="M6.93318 33.5789C7.53898 33.1033 7.93754 32.501 8.28826 31.8986C8.60711 31.2645 8.87813 30.6146 8.94189 29.8379C8.3361 30.3134 7.93753 30.9 7.58681 31.5182C7.26797 32.1522 6.99695 32.8022 6.93318 33.5789Z" fill="#ED94AB"/>
<path d="M6.93318 33.5789L7.69475 34.5491L5.47282 36.2933L5.70395 33.478L6.93318 33.5789ZM8.28826 31.8986L9.39016 32.4527L9.37316 32.4865L9.35412 32.5192L8.28826 31.8986ZM8.94189 29.8379L8.18032 28.8677L10.4023 27.1235L10.1711 29.9388L8.94189 29.8379ZM7.58681 31.5182L6.48491 30.9641L6.4988 30.9365L6.51405 30.9096L7.58681 31.5182ZM6.93318 33.5789L6.1716 32.6087C6.58715 32.2825 6.89035 31.8483 7.2224 31.278L8.28826 31.8986L9.35412 32.5192C8.98472 33.1536 8.4908 33.9242 7.69475 34.5491L6.93318 33.5789ZM8.28826 31.8986L7.18637 31.3445C7.48112 30.7584 7.6683 30.2773 7.71266 29.737L8.94189 29.8379L10.1711 29.9388C10.0879 30.952 9.73309 31.7707 9.39016 32.4527L8.28826 31.8986ZM8.94189 29.8379L9.70347 30.808C9.28362 31.1376 8.97995 31.562 8.65957 32.1268L7.58681 31.5182L6.51405 30.9096C6.89511 30.2379 7.38857 29.4893 8.18032 28.8677L8.94189 29.8379ZM7.58681 31.5182L8.68871 32.0723C8.39395 32.6584 8.20677 33.1395 8.16241 33.6798L6.93318 33.5789L5.70395 33.478C5.78712 32.4648 6.14198 31.6461 6.48491 30.9641L7.58681 31.5182Z" fill="#F974AB" mask="url(#path-20-inside-9_576_857)"/>
<mask id="path-22-inside-10_576_857" fill="white">
<path d="M6.46973 26.4457C6.31031 25.669 5.94364 25.0191 5.52915 24.4008C5.09871 23.7985 4.62045 23.2278 3.93494 22.7998C4.09436 23.5765 4.46103 24.2265 4.87552 24.8447C5.30596 25.4471 5.78422 26.0019 6.46973 26.4457Z"/>
</mask>
<path d="M6.46973 26.4457C6.31031 25.669 5.94364 25.0191 5.52915 24.4008C5.09871 23.7985 4.62045 23.2278 3.93494 22.7998C4.09436 23.5765 4.46103 24.2265 4.87552 24.8447C5.30596 25.4471 5.78422 26.0019 6.46973 26.4457Z" fill="#ED94AB"/>
<path d="M6.46973 26.4457L7.67791 26.1977L8.26955 29.0804L5.7994 27.481L6.46973 26.4457ZM5.52915 24.4008L6.53265 23.6838L6.54333 23.6987L6.55357 23.714L5.52915 24.4008ZM3.93494 22.7998L2.72676 23.0478L2.14852 20.2304L4.58814 21.7536L3.93494 22.7998ZM4.87552 24.8447L3.87202 25.5618L3.86134 25.5468L3.8511 25.5315L4.87552 24.8447ZM6.46973 26.4457L5.26155 26.6937C5.15027 26.1515 4.8887 25.6604 4.50473 25.0877L5.52915 24.4008L6.55357 23.714C6.99859 24.3777 7.47034 25.1864 7.67791 26.1977L6.46973 26.4457ZM5.52915 24.4008L4.52566 25.1179C4.12885 24.5626 3.76316 24.1466 3.28175 23.846L3.93494 22.7998L4.58814 21.7536C5.47774 22.309 6.06858 23.0343 6.53265 23.6838L5.52915 24.4008ZM3.93494 22.7998L5.14312 22.5518C5.2544 23.094 5.51597 23.5852 5.89994 24.1578L4.87552 24.8447L3.8511 25.5315C3.40608 24.8678 2.93433 24.0591 2.72676 23.0478L3.93494 22.7998ZM4.87552 24.8447L5.87901 24.1276C6.2655 24.6685 6.63778 25.0852 7.14006 25.4104L6.46973 26.4457L5.7994 27.481C4.93066 26.9185 4.34641 26.2256 3.87202 25.5618L4.87552 24.8447Z" fill="#F974AB" mask="url(#path-22-inside-10_576_857)"/>
<mask id="path-24-inside-11_576_857" fill="white">
<path d="M6.2952 18.3298C6.80535 18.0444 7.10825 17.664 7.34738 17.2677C7.57057 16.8556 7.72997 16.4117 7.69809 15.8252C7.20388 16.0788 6.901 16.4751 6.64593 16.8873C6.42274 17.3153 6.24737 17.7908 6.2952 18.3298Z"/>
</mask>
<path d="M6.2952 18.3298C6.80535 18.0444 7.10825 17.664 7.34738 17.2677C7.57057 16.8556 7.72997 16.4117 7.69809 15.8252C7.20388 16.0788 6.901 16.4751 6.64593 16.8873C6.42274 17.3153 6.24737 17.7908 6.2952 18.3298Z" fill="#ED94AB"/>
<path d="M6.2952 18.3298L6.89726 19.4062L5.23501 20.3359L5.06666 18.4388L6.2952 18.3298ZM7.34738 17.2677L8.43193 17.855L8.41824 17.8803L8.40339 17.9049L7.34738 17.2677ZM7.69809 15.8252L7.13495 14.7279L8.82643 13.8598L8.92963 15.7582L7.69809 15.8252ZM6.64593 16.8873L5.55232 16.317L5.5733 16.2768L5.59716 16.2382L6.64593 16.8873ZM6.2952 18.3298L5.69313 17.2533C5.95196 17.1086 6.11717 16.9192 6.29137 16.6305L7.34738 17.2677L8.40339 17.9049C8.09934 18.4088 7.65873 18.9803 6.89726 19.4062L6.2952 18.3298ZM7.34738 17.2677L6.26283 16.6804C6.41527 16.3989 6.48236 16.1833 6.46654 15.8921L7.69809 15.8252L8.92963 15.7582C8.97758 16.6401 8.72588 17.3122 8.43193 17.855L7.34738 17.2677ZM7.69809 15.8252L8.26123 16.9225C8.06699 17.0222 7.91003 17.1884 7.69469 17.5363L6.64593 16.8873L5.59716 16.2382C5.89197 15.7618 6.34077 15.1355 7.13495 14.7279L7.69809 15.8252ZM6.64593 16.8873L7.73953 17.4575C7.56165 17.7987 7.50625 18.0236 7.52374 18.2208L6.2952 18.3298L5.06666 18.4388C4.9885 17.558 5.28383 16.8319 5.55232 16.317L6.64593 16.8873Z" fill="#F974AB" mask="url(#path-24-inside-11_576_857)"/>
<mask id="path-26-inside-12_576_857" fill="white">
<path d="M6.46973 13.78C6.43784 13.1618 6.21465 12.6704 5.94364 12.2107C5.64074 11.7668 5.29002 11.3547 4.73205 11.0693C4.76393 11.6876 4.9871 12.179 5.25811 12.6387C5.56101 13.0825 5.91175 13.4947 6.46973 13.78Z"/>
</mask>
<path d="M6.46973 13.78C6.43784 13.1618 6.21465 12.6704 5.94364 12.2107C5.64074 11.7668 5.29002 11.3547 4.73205 11.0693C4.76393 11.6876 4.9871 12.179 5.25811 12.6387C5.56101 13.0825 5.91175 13.4947 6.46973 13.78Z" fill="#ED94AB"/>
<path d="M6.46973 13.78L7.70146 13.7165L7.81157 15.8514L5.90818 14.8781L6.46973 13.78ZM5.94364 12.2107L6.96238 11.5154L6.98538 11.5491L7.00611 11.5843L5.94364 12.2107ZM4.73205 11.0693L3.50032 11.1329L3.39021 8.99788L5.29359 9.97122L4.73205 11.0693ZM5.25811 12.6387L4.23937 13.3339L4.21637 13.3002L4.19564 13.265L5.25811 12.6387ZM6.46973 13.78L5.238 13.8435C5.22072 13.5085 5.10552 13.2176 4.88116 12.837L5.94364 12.2107L7.00611 11.5843C7.32379 12.1231 7.65497 12.8151 7.70146 13.7165L6.46973 13.78ZM5.94364 12.2107L4.92489 12.9059C4.6739 12.5381 4.46456 12.3178 4.1705 12.1675L4.73205 11.0693L5.29359 9.97122C6.11548 10.3915 6.60757 10.9955 6.96238 11.5154L5.94364 12.2107ZM4.73205 11.0693L5.96378 11.0058C5.98106 11.3409 6.09626 11.6318 6.32059 12.0123L5.25811 12.6387L4.19564 13.265C3.87794 12.7261 3.5468 12.0342 3.50032 11.1329L4.73205 11.0693ZM5.25811 12.6387L6.27686 11.9434C6.52783 12.3112 6.73719 12.5315 7.03127 12.6819L6.46973 13.78L5.90818 14.8781C5.08632 14.4578 4.59419 13.8538 4.23937 13.3339L5.25811 12.6387Z" fill="#F974AB" mask="url(#path-26-inside-12_576_857)"/>
<path d="M9.2915 28.5205C9.01266 28.5206 8.79261 28.7449 8.79248 29.0137C8.79248 29.2825 9.01258 29.5067 9.2915 29.5068C9.57056 29.5068 9.7915 29.2826 9.7915 29.0137C9.79137 28.7449 9.57048 28.5205 9.2915 28.5205Z" fill="#ED94AB" stroke="#F974AB" stroke-width="1.23337"/>
<path d="M3.56689 21.3887C3.28807 21.3888 3.068 21.6131 3.06787 21.8818C3.06787 22.1507 3.28798 22.3749 3.56689 22.375C3.84594 22.375 4.06689 22.1508 4.06689 21.8818C4.06676 21.613 3.84585 21.3887 3.56689 21.3887Z" fill="#ED94AB" stroke="#F974AB" stroke-width="1.23337"/>
<path d="M8.17578 14.3965C7.89696 14.3966 7.6769 14.6209 7.67676 14.8896C7.67676 15.1585 7.89687 15.3827 8.17578 15.3828C8.45482 15.3828 8.67578 15.1586 8.67578 14.8896C8.67564 14.6208 8.45473 14.3965 8.17578 14.3965Z" fill="#ED94AB" stroke="#F974AB" stroke-width="1.23337"/>
<path d="M4.271 9.71973C3.99217 9.71987 3.77211 9.94414 3.77197 10.2129C3.77197 10.4818 3.99209 10.7059 4.271 10.7061C4.55003 10.7061 4.771 10.4818 4.771 10.2129C4.77086 9.94405 4.54995 9.71973 4.271 9.71973Z" fill="#ED94AB" stroke="#F974AB" stroke-width="1.23337"/>
<path d="M5.21045 38.0947C4.93161 38.0949 4.71156 38.3191 4.71143 38.5879C4.71143 38.8568 4.93152 39.0809 5.21045 39.0811C5.48951 39.0811 5.71045 38.8568 5.71045 38.5879C5.71032 38.3191 5.48942 38.0947 5.21045 38.0947Z" fill="#ED94AB" stroke="#F974AB" stroke-width="1.23337"/>
<path d="M10.2002 42.4697C9.92138 42.4699 9.70131 42.6941 9.70117 42.9629C9.70117 43.2317 9.92128 43.4559 10.2002 43.4561C10.4792 43.4561 10.7002 43.2318 10.7002 42.9629C10.7001 42.6941 10.4791 42.4697 10.2002 42.4697Z" fill="#ED94AB" stroke="#F974AB" stroke-width="1.23337"/>
</g>
</svg>
